<svg width="434" height="423" viewBox="0 0 434 423" fill="none" xmlns="http://www.w3.org/2000/svg">
<g filter="url(#filter0_f_1096_3792)">
<path d="M184.745 58C148.894 67.2275 115.435 81.559 92.8408 109.844C70.2468 138.128 58 172.784 58 208.437C58 244.089 70.2467 278.745 92.8408 307.029C114.306 333.901 143.971 353.596 177.623 363.409C180.576 364.27 183.625 362.504 184.452 359.541V359.541C185.302 356.492 183.479 353.349 180.444 352.452C149.376 343.265 121.996 325.014 102.149 300.168C81.1273 273.852 69.7328 241.608 69.7328 208.437C69.7329 175.265 81.1274 143.021 102.149 116.705C123.171 90.3883 151.389 66.5853 184.745 58Z" fill="#00C2CB" fill-opacity="0.75"/>
</g>
<g filter="url(#filter1_f_1096_3792)">
<path d="M184.745 58C148.894 67.2275 115.435 81.559 92.8408 109.844C70.2468 138.128 58 172.784 58 208.437C58 244.089 70.2467 278.745 92.8408 307.029C114.306 333.901 143.971 353.596 177.623 363.409C180.576 364.27 183.625 362.504 184.452 359.541V359.541C185.302 356.492 183.479 353.349 180.444 352.452C149.376 343.265 121.996 325.014 102.149 300.168C81.1273 273.852 69.7328 241.608 69.7328 208.437C69.7329 175.265 81.1274 143.021 102.149 116.705C123.171 90.3883 151.389 66.5853 184.745 58Z" fill="#00C2CB" fill-opacity="0.75"/>
</g>
<g filter="url(#filter2_f_1096_3792)">
<path d="M184.745 58C148.894 67.2275 115.435 81.559 92.8408 109.844C70.2468 138.128 58 172.784 58 208.437C58 244.089 70.2467 278.745 92.8408 307.029C114.306 333.901 143.971 353.596 177.623 363.409C180.576 364.27 183.625 362.504 184.452 359.541V359.541C185.302 356.492 183.479 353.349 180.444 352.452C149.376 343.265 121.996 325.014 102.149 300.168C81.1273 273.852 69.7328 241.608 69.7328 208.437C69.7329 175.265 81.1274 143.021 102.149 116.705C123.171 90.3883 151.389 66.5853 184.745 58Z" fill="#00C2CB" fill-opacity="0.75"/>
</g>
<path d="M184.745 58C148.894 67.2275 115.435 81.559 92.8408 109.844C70.2468 138.128 58 172.784 58 208.437C58 244.089 70.2467 278.745 92.8408 307.029C114.306 333.901 143.971 353.596 177.623 363.409C180.576 364.27 183.625 362.504 184.452 359.541V359.541C185.302 356.492 183.479 353.349 180.444 352.452C149.376 343.265 121.996 325.014 102.149 300.168C81.1273 273.852 69.7328 241.608 69.7328 208.437C69.7329 175.265 81.1274 143.021 102.149 116.705C123.171 90.3883 151.389 66.5853 184.745 58Z" fill="white"/>
<g opacity="0.91">
<g filter="url(#filter3_f_1096_3792)">
<path d="M184.745 58C148.894 67.2275 115.435 81.559 92.8408 109.844C70.2468 138.128 58 172.784 58 208.437C58 244.089 70.2467 278.745 92.8408 307.029C114.306 333.901 143.971 353.596 177.623 363.409C180.576 364.27 183.625 362.504 184.452 359.541V359.541C185.302 356.492 183.479 353.349 180.444 352.452C149.376 343.265 121.996 325.014 102.149 300.168C81.1273 273.852 69.7328 241.608 69.7328 208.437C69.7329 175.265 81.1274 143.021 102.149 116.705C123.171 90.3883 151.389 66.5853 184.745 58Z" fill="#00C2CB" fill-opacity="0.75"/>
</g>
<g filter="url(#filter4_f_1096_3792)">
<path d="M184.745 58C148.894 67.2275 115.435 81.559 92.8408 109.844C70.2468 138.128 58 172.784 58 208.437C58 244.089 70.2467 278.745 92.8408 307.029C114.306 333.901 143.971 353.596 177.623 363.409C180.576 364.27 183.625 362.504 184.452 359.541V359.541C185.302 356.492 183.479 353.349 180.444 352.452C149.376 343.265 121.996 325.014 102.149 300.168C81.1273 273.852 69.7328 241.608 69.7328 208.437C69.7329 175.265 81.1274 143.021 102.149 116.705C123.171 90.3883 151.389 66.5853 184.745 58Z" fill="#00C2CB" fill-opacity="0.75"/>
</g>
<g filter="url(#filter5_f_1096_3792)">
<path d="M184.745 58C148.894 67.2275 115.435 81.559 92.8408 109.844C70.2468 138.128 58 172.784 58 208.437C58 244.089 70.2467 278.745 92.8408 307.029C114.306 333.901 143.971 353.596 177.623 363.409C180.576 364.27 183.625 362.504 184.452 359.541V359.541C185.302 356.492 183.479 353.349 180.444 352.452C149.376 343.265 121.996 325.014 102.149 300.168C81.1273 273.852 69.7328 241.608 69.7328 208.437C69.7329 175.265 81.1274 143.021 102.149 116.705C123.171 90.3883 151.389 66.5853 184.745 58Z" fill="#00C2CB" fill-opacity="0.75"/>
</g>
<path d="M184.745 58C148.894 67.2275 115.435 81.559 92.8408 109.844C70.2468 138.128 58 172.784 58 208.437C58 244.089 70.2467 278.745 92.8408 307.029C114.306 333.901 143.971 353.596 177.623 363.409C180.576 364.27 183.625 362.504 184.452 359.541V359.541C185.302 356.492 183.479 353.349 180.444 352.452C149.376 343.265 121.996 325.014 102.149 300.168C81.1273 273.852 69.7328 241.608 69.7328 208.437C69.7329 175.265 81.1274 143.021 102.149 116.705C123.171 90.3883 151.389 66.5853 184.745 58Z" fill="white"/>
</g>
<g filter="url(#filter6_f_1096_3792)">
<path d="M249.256 364.874C285.106 355.647 318.566 341.316 341.16 313.031C363.754 284.746 376.001 250.09 376.001 214.438C376.001 178.786 363.754 144.13 341.16 115.845C319.694 88.9732 290.029 69.2787 256.377 59.4656C253.424 58.6044 250.375 60.3708 249.549 63.3338V63.3338C248.699 66.3822 250.522 69.5251 253.557 70.4225C284.624 79.6099 312.005 97.8608 331.851 122.706C352.873 149.023 364.268 181.267 364.268 214.438C364.268 247.609 352.873 279.853 331.851 306.17C310.83 332.486 282.611 356.289 249.256 364.874Z" fill="#E6AF5C" fill-opacity="0.67"/>
</g>
<g filter="url(#filter7_f_1096_3792)">
<path d="M249.256 364.874C285.106 355.647 318.566 341.316 341.16 313.031C363.754 284.746 376.001 250.09 376.001 214.438C376.001 178.786 363.754 144.13 341.16 115.845C319.694 88.9732 290.029 69.2787 256.377 59.4656C253.424 58.6044 250.375 60.3708 249.549 63.3338V63.3338C248.699 66.3822 250.522 69.5251 253.557 70.4225C284.624 79.6099 312.005 97.8608 331.851 122.706C352.873 149.023 364.268 181.267 364.268 214.438C364.268 247.609 352.873 279.853 331.851 306.17C310.83 332.486 282.611 356.289 249.256 364.874Z" fill="#E6AF5C" fill-opacity="0.67"/>
</g>
<g filter="url(#filter8_f_1096_3792)">
<path d="M249.256 364.874C285.106 355.647 318.566 341.316 341.16 313.031C363.754 284.746 376.001 250.09 376.001 214.438C376.001 178.786 363.754 144.13 341.16 115.845C319.694 88.9732 290.029 69.2787 256.377 59.4656C253.424 58.6044 250.375 60.3708 249.549 63.3338V63.3338C248.699 66.3822 250.522 69.5251 253.557 70.4225C284.624 79.6099 312.005 97.8608 331.851 122.706C352.873 149.023 364.268 181.267 364.268 214.438C364.268 247.609 352.873 279.853 331.851 306.17C310.83 332.486 282.611 356.289 249.256 364.874Z" fill="#E6AF5C" fill-opacity="0.67"/>
</g>
<path d="M249.256 364.874C285.106 355.647 318.566 341.316 341.16 313.031C363.754 284.746 376.001 250.09 376.001 214.438C376.001 178.786 363.754 144.13 341.16 115.845C319.694 88.9732 290.029 69.2787 256.377 59.4656C253.424 58.6044 250.375 60.3708 249.549 63.3338V63.3338C248.699 66.3822 250.522 69.5251 253.557 70.4225C284.624 79.6099 312.005 97.8608 331.851 122.706C352.873 149.023 364.268 181.267 364.268 214.438C364.268 247.609 352.873 279.853 331.851 306.17C310.83 332.486 282.611 356.289 249.256 364.874Z" fill="white"/>
<g opacity="0.61">
<g filter="url(#filter9_f_1096_3792)">
<path d="M249.256 364.874C285.106 355.647 318.566 341.316 341.16 313.031C363.754 284.746 376.001 250.09 376.001 214.438C376.001 178.786 363.754 144.13 341.16 115.845C319.694 88.9732 290.029 69.2787 256.377 59.4656C253.424 58.6044 250.375 60.3708 249.549 63.3338V63.3338C248.699 66.3822 250.522 69.5251 253.557 70.4225C284.624 79.6099 312.005 97.8608 331.851 122.706C352.873 149.023 364.268 181.267 364.268 214.438C364.268 247.609 352.873 279.853 331.851 306.17C310.83 332.486 282.611 356.289 249.256 364.874Z" fill="#E6AF5C" fill-opacity="0.67"/>
</g>
<g filter="url(#filter10_f_1096_3792)">
<path d="M249.256 364.874C285.106 355.647 318.566 341.316 341.16 313.031C363.754 284.746 376.001 250.09 376.001 214.438C376.001 178.786 363.754 144.13 341.16 115.845C319.694 88.9732 290.029 69.2787 256.377 59.4656C253.424 58.6044 250.375 60.3708 249.549 63.3338V63.3338C248.699 66.3822 250.522 69.5251 253.557 70.4225C284.624 79.6099 312.005 97.8608 331.851 122.706C352.873 149.023 364.268 181.267 364.268 214.438C364.268 247.609 352.873 279.853 331.851 306.17C310.83 332.486 282.611 356.289 249.256 364.874Z" fill="#E6AF5C" fill-opacity="0.67"/>
</g>
<g filter="url(#filter11_f_1096_3792)">
<path d="M249.256 364.874C285.106 355.647 318.566 341.316 341.16 313.031C363.754 284.746 376.001 250.09 376.001 214.438C376.001 178.786 363.754 144.13 341.16 115.845C319.694 88.9732 290.029 69.2787 256.377 59.4656C253.424 58.6044 250.375 60.3708 249.549 63.3338V63.3338C248.699 66.3822 250.522 69.5251 253.557 70.4225C284.624 79.6099 312.005 97.8608 331.851 122.706C352.873 149.023 364.268 181.267 364.268 214.438C364.268 247.609 352.873 279.853 331.851 306.17C310.83 332.486 282.611 356.289 249.256 364.874Z" fill="#E6AF5C" fill-opacity="0.67"/>
</g>
<path d="M249.256 364.874C285.106 355.647 318.566 341.316 341.16 313.031C363.754 284.746 376.001 250.09 376.001 214.438C376.001 178.786 363.754 144.13 341.16 115.845C319.694 88.9732 290.029 69.2787 256.377 59.4656C253.424 58.6044 250.375 60.3708 249.549 63.3338V63.3338C248.699 66.3822 250.522 69.5251 253.557 70.4225C284.624 79.6099 312.005 97.8608 331.851 122.706C352.873 149.023 364.268 181.267 364.268 214.438C364.268 247.609 352.873 279.853 331.851 306.17C310.83 332.486 282.611 356.289 249.256 364.874Z" fill="white"/>
</g>
<g filter="url(#filter12_f_1096_3792)">
<path d="M204.999 268.528C191.659 265.095 179.21 259.762 170.803 249.238C162.396 238.714 157.839 225.819 157.839 212.553C157.839 199.287 162.396 186.392 170.803 175.868C178.79 165.869 189.828 158.541 202.349 154.89C203.448 154.57 204.582 155.227 204.89 156.329V156.329C205.206 157.464 204.528 158.633 203.399 158.967C191.839 162.385 181.651 169.176 174.266 178.421C166.444 188.213 162.204 200.211 162.205 212.553C162.205 224.896 166.444 236.893 174.266 246.685C182.088 256.477 192.588 265.334 204.999 268.528Z" fill="#00C2CB" fill-opacity="0.75"/>
</g>
<g filter="url(#filter13_f_1096_3792)">
<path d="M204.999 268.528C191.659 265.095 179.21 259.762 170.803 249.238C162.396 238.714 157.839 225.819 157.839 212.553C157.839 199.287 162.396 186.392 170.803 175.868C178.79 165.869 189.828 158.541 202.349 154.89C203.448 154.57 204.582 155.227 204.89 156.329V156.329C205.206 157.464 204.528 158.633 203.399 158.967C191.839 162.385 181.651 169.176 174.266 178.421C166.444 188.213 162.204 200.211 162.205 212.553C162.205 224.896 166.444 236.893 174.266 246.685C182.088 256.477 192.588 265.334 204.999 268.528Z" fill="#00C2CB" fill-opacity="0.75"/>
</g>
<g filter="url(#filter14_f_1096_3792)">
<path d="M204.999 268.528C191.659 265.095 179.21 259.762 170.803 249.238C162.396 238.714 157.839 225.819 157.839 212.553C157.839 199.287 162.396 186.392 170.803 175.868C178.79 165.869 189.828 158.541 202.349 154.89C203.448 154.57 204.582 155.227 204.89 156.329V156.329C205.206 157.464 204.528 158.633 203.399 158.967C191.839 162.385 181.651 169.176 174.266 178.421C166.444 188.213 162.204 200.211 162.205 212.553C162.205 224.896 166.444 236.893 174.266 246.685C182.088 256.477 192.588 265.334 204.999 268.528Z" fill="#00C2CB" fill-opacity="0.75"/>
</g>
<path d="M204.999 268.528C191.659 265.095 179.21 259.762 170.803 249.238C162.396 238.714 157.839 225.819 157.839 212.553C157.839 199.287 162.396 186.392 170.803 175.868C178.79 165.869 189.828 158.541 202.349 154.89C203.448 154.57 204.582 155.227 204.89 156.329V156.329C205.206 157.464 204.528 158.633 203.399 158.967C191.839 162.385 181.651 169.176 174.266 178.421C166.444 188.213 162.204 200.211 162.205 212.553C162.205 224.896 166.444 236.893 174.266 246.685C182.088 256.477 192.588 265.334 204.999 268.528Z" fill="white"/>
<g opacity="0.91">
<g filter="url(#filter15_f_1096_3792)">
<path d="M204.999 268.528C191.659 265.095 179.21 259.762 170.803 249.238C162.396 238.714 157.839 225.819 157.839 212.553C157.839 199.287 162.396 186.392 170.803 175.868C178.79 165.869 189.828 158.541 202.349 154.89C203.448 154.57 204.582 155.227 204.89 156.329V156.329C205.206 157.464 204.528 158.633 203.399 158.967C191.839 162.385 181.651 169.176 174.266 178.421C166.444 188.213 162.204 200.211 162.205 212.553C162.205 224.896 166.444 236.893 174.266 246.685C182.088 256.477 192.588 265.334 204.999 268.528Z" fill="#00C2CB" fill-opacity="0.75"/>
</g>
<g filter="url(#filter16_f_1096_3792)">
<path d="M204.999 268.528C191.659 265.095 179.21 259.762 170.803 249.238C162.396 238.714 157.839 225.819 157.839 212.553C157.839 199.287 162.396 186.392 170.803 175.868C178.79 165.869 189.828 158.541 202.349 154.89C203.448 154.57 204.582 155.227 204.89 156.329V156.329C205.206 157.464 204.528 158.633 203.399 158.967C191.839 162.385 181.651 169.176 174.266 178.421C166.444 188.213 162.204 200.211 162.205 212.553C162.205 224.896 166.444 236.893 174.266 246.685C182.088 256.477 192.588 265.334 204.999 268.528Z" fill="#00C2CB" fill-opacity="0.75"/>
</g>
<g filter="url(#filter17_f_1096_3792)">
<path d="M204.999 268.528C191.659 265.095 179.21 259.762 170.803 249.238C162.396 238.714 157.839 225.819 157.839 212.553C157.839 199.287 162.396 186.392 170.803 175.868C178.79 165.869 189.828 158.541 202.349 154.89C203.448 154.57 204.582 155.227 204.89 156.329V156.329C205.206 157.464 204.528 158.633 203.399 158.967C191.839 162.385 181.651 169.176 174.266 178.421C166.444 188.213 162.204 200.211 162.205 212.553C162.205 224.896 166.444 236.893 174.266 246.685C182.088 256.477 192.588 265.334 204.999 268.528Z" fill="#00C2CB" fill-opacity="0.75"/>
</g>
<path d="M204.999 268.528C191.659 265.095 179.21 259.762 170.803 249.238C162.396 238.714 157.839 225.819 157.839 212.553C157.839 199.287 162.396 186.392 170.803 175.868C178.79 165.869 189.828 158.541 202.349 154.89C203.448 154.57 204.582 155.227 204.89 156.329V156.329C205.206 157.464 204.528 158.633 203.399 158.967C191.839 162.385 181.651 169.176 174.266 178.421C166.444 188.213 162.204 200.211 162.205 212.553C162.205 224.896 166.444 236.893 174.266 246.685C182.088 256.477 192.588 265.334 204.999 268.528Z" fill="white"/>
</g>
<g filter="url(#filter18_f_1096_3792)">
<path d="M229.002 154.345C242.341 157.778 254.791 163.111 263.198 173.635C271.605 184.159 276.162 197.054 276.162 210.32C276.162 223.586 271.605 236.481 263.198 247.005C255.211 257.004 244.173 264.332 231.652 267.983C230.553 268.303 229.418 267.646 229.111 266.544V266.544C228.794 265.409 229.473 264.24 230.602 263.906C242.162 260.488 252.35 253.697 259.734 244.452C267.556 234.66 271.796 222.662 271.796 210.32C271.796 197.977 267.556 185.98 259.734 176.188C251.913 166.396 241.413 157.539 229.002 154.345Z" fill="#E6AF5C" fill-opacity="0.67"/>
</g>
<g filter="url(#filter19_f_1096_3792)">
<path d="M229.002 154.345C242.341 157.778 254.791 163.111 263.198 173.635C271.605 184.159 276.162 197.054 276.162 210.32C276.162 223.586 271.605 236.481 263.198 247.005C255.211 257.004 244.173 264.332 231.652 267.983C230.553 268.303 229.418 267.646 229.111 266.544V266.544C228.794 265.409 229.473 264.24 230.602 263.906C242.162 260.488 252.35 253.697 259.734 244.452C267.556 234.66 271.796 222.662 271.796 210.32C271.796 197.977 267.556 185.98 259.734 176.188C251.913 166.396 241.413 157.539 229.002 154.345Z" fill="#E6AF5C" fill-opacity="0.67"/>
</g>
<g filter="url(#filter20_f_1096_3792)">
<path d="M229.002 154.345C242.341 157.778 254.791 163.111 263.198 173.635C271.605 184.159 276.162 197.054 276.162 210.32C276.162 223.586 271.605 236.481 263.198 247.005C255.211 257.004 244.173 264.332 231.652 267.983C230.553 268.303 229.418 267.646 229.111 266.544V266.544C228.794 265.409 229.473 264.24 230.602 263.906C242.162 260.488 252.35 253.697 259.734 244.452C267.556 234.66 271.796 222.662 271.796 210.32C271.796 197.977 267.556 185.98 259.734 176.188C251.913 166.396 241.413 157.539 229.002 154.345Z" fill="#E6AF5C" fill-opacity="0.67"/>
</g>
<path d="M229.002 154.345C242.341 157.778 254.791 163.111 263.198 173.635C271.605 184.159 276.162 197.054 276.162 210.32C276.162 223.586 271.605 236.481 263.198 247.005C255.211 257.004 244.173 264.332 231.652 267.983C230.553 268.303 229.418 267.646 229.111 266.544V266.544C228.794 265.409 229.473 264.24 230.602 263.906C242.162 260.488 252.35 253.697 259.734 244.452C267.556 234.66 271.796 222.662 271.796 210.32C271.796 197.977 267.556 185.98 259.734 176.188C251.913 166.396 241.413 157.539 229.002 154.345Z" fill="white"/>
<g opacity="0.61">
<g filter="url(#filter21_f_1096_3792)">
<path d="M229.002 154.345C242.341 157.778 254.791 163.111 263.198 173.635C271.605 184.159 276.162 197.054 276.162 210.32C276.162 223.586 271.605 236.481 263.198 247.005C255.211 257.004 244.173 264.332 231.652 267.983C230.553 268.303 229.418 267.646 229.111 266.544V266.544C228.794 265.409 229.473 264.24 230.602 263.906C242.162 260.488 252.35 253.697 259.734 244.452C267.556 234.66 271.796 222.662 271.796 210.32C271.796 197.977 267.556 185.98 259.734 176.188C251.913 166.396 241.413 157.539 229.002 154.345Z" fill="#E6AF5C" fill-opacity="0.67"/>
</g>
<g filter="url(#filter22_f_1096_3792)">
<path d="M229.002 154.345C242.341 157.778 254.791 163.111 263.198 173.635C271.605 184.159 276.162 197.054 276.162 210.32C276.162 223.586 271.605 236.481 263.198 247.005C255.211 257.004 244.173 264.332 231.652 267.983C230.553 268.303 229.418 267.646 229.111 266.544V266.544C228.794 265.409 229.473 264.24 230.602 263.906C242.162 260.488 252.35 253.697 259.734 244.452C267.556 234.66 271.796 222.662 271.796 210.32C271.796 197.977 267.556 185.98 259.734 176.188C251.913 166.396 241.413 157.539 229.002 154.345Z" fill="#E6AF5C" fill-opacity="0.67"/>
</g>
<g filter="url(#filter23_f_1096_3792)">
<path d="M229.002 154.345C242.341 157.778 254.791 163.111 263.198 173.635C271.605 184.159 276.162 197.054 276.162 210.32C276.162 223.586 271.605 236.481 263.198 247.005C255.211 257.004 244.173 264.332 231.652 267.983C230.553 268.303 229.418 267.646 229.111 266.544V266.544C228.794 265.409 229.473 264.24 230.602 263.906C242.162 260.488 252.35 253.697 259.734 244.452C267.556 234.66 271.796 222.662 271.796 210.32C271.796 197.977 267.556 185.98 259.734 176.188C251.913 166.396 241.413 157.539 229.002 154.345Z" fill="#E6AF5C" fill-opacity="0.67"/>
</g>
<path d="M229.002 154.345C242.341 157.778 254.791 163.111 263.198 173.635C271.605 184.159 276.162 197.054 276.162 210.32C276.162 223.586 271.605 236.481 263.198 247.005C255.211 257.004 244.173 264.332 231.652 267.983C230.553 268.303 229.418 267.646 229.111 266.544V266.544C228.794 265.409 229.473 264.24 230.602 263.906C242.162 260.488 252.35 253.697 259.734 244.452C267.556 234.66 271.796 222.662 271.796 210.32C271.796 197.977 267.556 185.98 259.734 176.188C251.913 166.396 241.413 157.539 229.002 154.345Z" fill="white"/>
</g>
<defs>
<filter id="filter0_f_1096_3792" x="51.6409" y="51.6409" width="139.463" height="318.346" filterUnits="userSpaceOnUse" color-interpolation-filters="sRGB">
<feFlood flood-opacity="0" result="BackgroundImageFix"/>
<feBlend mode="normal" in="SourceGraphic" in2="BackgroundImageFix" result="shape"/>
<feGaussianBlur stdDeviation="3.17956" result="effect1_foregroundBlur_1096_3792"/>
</filter>
<filter id="filter1_f_1096_3792" x="19.8452" y="19.8452" width="203.054" height="381.937" filterUnits="userSpaceOnUse" color-interpolation-filters="sRGB">
<feFlood flood-opacity="0" result="BackgroundImageFix"/>
<feBlend mode="normal" in="SourceGraphic" in2="BackgroundImageFix" result="shape"/>
<feGaussianBlur stdDeviation="19.0774" result="effect1_foregroundBlur_1096_3792"/>
</filter>
<filter id="filter2_f_1096_3792" x="0.767845" y="0.767845" width="241.209" height="420.092" filterUnits="userSpaceOnUse" color-interpolation-filters="sRGB">
<feFlood flood-opacity="0" result="BackgroundImageFix"/>
<feBlend mode="normal" in="SourceGraphic" in2="BackgroundImageFix" result="shape"/>
<feGaussianBlur stdDeviation="28.6161" result="effect1_foregroundBlur_1096_3792"/>
</filter>
<filter id="filter3_f_1096_3792" x="51.6409" y="51.6409" width="139.463" height="318.346" filterUnits="userSpaceOnUse" color-interpolation-filters="sRGB">
<feFlood flood-opacity="0" result="BackgroundImageFix"/>
<feBlend mode="normal" in="SourceGraphic" in2="BackgroundImageFix" result="shape"/>
<feGaussianBlur stdDeviation="3.17956" result="effect1_foregroundBlur_1096_3792"/>
</filter>
<filter id="filter4_f_1096_3792" x="19.8452" y="19.8452" width="203.054" height="381.937" filterUnits="userSpaceOnUse" color-interpolation-filters="sRGB">
<feFlood flood-opacity="0" result="BackgroundImageFix"/>
<feBlend mode="normal" in="SourceGraphic" in2="BackgroundImageFix" result="shape"/>
<feGaussianBlur stdDeviation="19.0774" result="effect1_foregroundBlur_1096_3792"/>
</filter>
<filter id="filter5_f_1096_3792" x="0.767845" y="0.767845" width="241.209" height="420.092" filterUnits="userSpaceOnUse" color-interpolation-filters="sRGB">
<feFlood flood-opacity="0" result="BackgroundImageFix"/>
<feBlend mode="normal" in="SourceGraphic" in2="BackgroundImageFix" result="shape"/>
<feGaussianBlur stdDeviation="28.6161" result="effect1_foregroundBlur_1096_3792"/>
</filter>
<filter id="filter6_f_1096_3792" x="242.897" y="52.8879" width="139.463" height="318.346" filterUnits="userSpaceOnUse" color-interpolation-filters="sRGB">
<feFlood flood-opacity="0" result="BackgroundImageFix"/>
<feBlend mode="normal" in="SourceGraphic" in2="BackgroundImageFix" result="shape"/>
<feGaussianBlur stdDeviation="3.17956" result="effect1_foregroundBlur_1096_3792"/>
</filter>
<filter id="filter7_f_1096_3792" x="211.101" y="21.0923" width="203.054" height="381.937" filterUnits="userSpaceOnUse" color-interpolation-filters="sRGB">
<feFlood flood-opacity="0" result="BackgroundImageFix"/>
<feBlend mode="normal" in="SourceGraphic" in2="BackgroundImageFix" result="shape"/>
<feGaussianBlur stdDeviation="19.0774" result="effect1_foregroundBlur_1096_3792"/>
</filter>
<filter id="filter8_f_1096_3792" x="192.024" y="2.01492" width="241.209" height="420.092" filterUnits="userSpaceOnUse" color-interpolation-filters="sRGB">
<feFlood flood-opacity="0" result="BackgroundImageFix"/>
<feBlend mode="normal" in="SourceGraphic" in2="BackgroundImageFix" result="shape"/>
<feGaussianBlur stdDeviation="28.6161" result="effect1_foregroundBlur_1096_3792"/>
</filter>
<filter id="filter9_f_1096_3792" x="242.897" y="52.8879" width="139.463" height="318.346" filterUnits="userSpaceOnUse" color-interpolation-filters="sRGB">
<feFlood flood-opacity="0" result="BackgroundImageFix"/>
<feBlend mode="normal" in="SourceGraphic" in2="BackgroundImageFix" result="shape"/>
<feGaussianBlur stdDeviation="3.17956" result="effect1_foregroundBlur_1096_3792"/>
</filter>
<filter id="filter10_f_1096_3792" x="211.101" y="21.0923" width="203.054" height="381.937" filterUnits="userSpaceOnUse" color-interpolation-filters="sRGB">
<feFlood flood-opacity="0" result="BackgroundImageFix"/>
<feBlend mode="normal" in="SourceGraphic" in2="BackgroundImageFix" result="shape"/>
<feGaussianBlur stdDeviation="19.0774" result="effect1_foregroundBlur_1096_3792"/>
</filter>
<filter id="filter11_f_1096_3792" x="192.024" y="2.01492" width="241.209" height="420.092" filterUnits="userSpaceOnUse" color-interpolation-filters="sRGB">
<feFlood flood-opacity="0" result="BackgroundImageFix"/>
<feBlend mode="normal" in="SourceGraphic" in2="BackgroundImageFix" result="shape"/>
<feGaussianBlur stdDeviation="28.6161" result="effect1_foregroundBlur_1096_3792"/>
</filter>
<filter id="filter12_f_1096_3792" x="151.48" y="148.449" width="59.8782" height="126.438" filterUnits="userSpaceOnUse" color-interpolation-filters="sRGB">
<feFlood flood-opacity="0" result="BackgroundImageFix"/>
<feBlend mode="normal" in="SourceGraphic" in2="BackgroundImageFix" result="shape"/>
<feGaussianBlur stdDeviation="3.17956" result="effect1_foregroundBlur_1096_3792"/>
</filter>
<filter id="filter13_f_1096_3792" x="119.684" y="116.654" width="123.469" height="190.029" filterUnits="userSpaceOnUse" color-interpolation-filters="sRGB">
<feFlood flood-opacity="0" result="BackgroundImageFix"/>
<feBlend mode="normal" in="SourceGraphic" in2="BackgroundImageFix" result="shape"/>
<feGaussianBlur stdDeviation="19.0774" result="effect1_foregroundBlur_1096_3792"/>
</filter>
<filter id="filter14_f_1096_3792" x="100.607" y="97.5764" width="161.624" height="228.184" filterUnits="userSpaceOnUse" color-interpolation-filters="sRGB">
<feFlood flood-opacity="0" result="BackgroundImageFix"/>
<feBlend mode="normal" in="SourceGraphic" in2="BackgroundImageFix" result="shape"/>
<feGaussianBlur stdDeviation="28.6161" result="effect1_foregroundBlur_1096_3792"/>
</filter>
<filter id="filter15_f_1096_3792" x="151.48" y="148.449" width="59.8782" height="126.438" filterUnits="userSpaceOnUse" color-interpolation-filters="sRGB">
<feFlood flood-opacity="0" result="BackgroundImageFix"/>
<feBlend mode="normal" in="SourceGraphic" in2="BackgroundImageFix" result="shape"/>
<feGaussianBlur stdDeviation="3.17956" result="effect1_foregroundBlur_1096_3792"/>
</filter>
<filter id="filter16_f_1096_3792" x="119.684" y="116.654" width="123.469" height="190.029" filterUnits="userSpaceOnUse" color-interpolation-filters="sRGB">
<feFlood flood-opacity="0" result="BackgroundImageFix"/>
<feBlend mode="normal" in="SourceGraphic" in2="BackgroundImageFix" result="shape"/>
<feGaussianBlur stdDeviation="19.0774" result="effect1_foregroundBlur_1096_3792"/>
</filter>
<filter id="filter17_f_1096_3792" x="100.607" y="97.5764" width="161.624" height="228.184" filterUnits="userSpaceOnUse" color-interpolation-filters="sRGB">
<feFlood flood-opacity="0" result="BackgroundImageFix"/>
<feBlend mode="normal" in="SourceGraphic" in2="BackgroundImageFix" result="shape"/>
<feGaussianBlur stdDeviation="28.6161" result="effect1_foregroundBlur_1096_3792"/>
</filter>
<filter id="filter18_f_1096_3792" x="222.643" y="147.986" width="59.8782" height="126.438" filterUnits="userSpaceOnUse" color-interpolation-filters="sRGB">
<feFlood flood-opacity="0" result="BackgroundImageFix"/>
<feBlend mode="normal" in="SourceGraphic" in2="BackgroundImageFix" result="shape"/>
<feGaussianBlur stdDeviation="3.17956" result="effect1_foregroundBlur_1096_3792"/>
</filter>
<filter id="filter19_f_1096_3792" x="190.847" y="116.19" width="123.469" height="190.029" filterUnits="userSpaceOnUse" color-interpolation-filters="sRGB">
<feFlood flood-opacity="0" result="BackgroundImageFix"/>
<feBlend mode="normal" in="SourceGraphic" in2="BackgroundImageFix" result="shape"/>
<feGaussianBlur stdDeviation="19.0774" result="effect1_foregroundBlur_1096_3792"/>
</filter>
<filter id="filter20_f_1096_3792" x="171.77" y="97.1126" width="161.624" height="228.184" filterUnits="userSpaceOnUse" color-interpolation-filters="sRGB">
<feFlood flood-opacity="0" result="BackgroundImageFix"/>
<feBlend mode="normal" in="SourceGraphic" in2="BackgroundImageFix" result="shape"/>
<feGaussianBlur stdDeviation="28.6161" result="effect1_foregroundBlur_1096_3792"/>
</filter>
<filter id="filter21_f_1096_3792" x="222.643" y="147.986" width="59.8782" height="126.438" filterUnits="userSpaceOnUse" color-interpolation-filters="sRGB">
<feFlood flood-opacity="0" result="BackgroundImageFix"/>
<feBlend mode="normal" in="SourceGraphic" in2="BackgroundImageFix" result="shape"/>
<feGaussianBlur stdDeviation="3.17956" result="effect1_foregroundBlur_1096_3792"/>
</filter>
<filter id="filter22_f_1096_3792" x="190.847" y="116.19" width="123.469" height="190.029" filterUnits="userSpaceOnUse" color-interpolation-filters="sRGB">
<feFlood flood-opacity="0" result="BackgroundImageFix"/>
<feBlend mode="normal" in="SourceGraphic" in2="BackgroundImageFix" result="shape"/>
<feGaussianBlur stdDeviation="19.0774" result="effect1_foregroundBlur_1096_3792"/>
</filter>
<filter id="filter23_f_1096_3792" x="171.77" y="97.1126" width="161.624" height="228.184" filterUnits="userSpaceOnUse" color-interpolation-filters="sRGB">
<feFlood flood-opacity="0" result="BackgroundImageFix"/>
<feBlend mode="normal" in="SourceGraphic" in2="BackgroundImageFix" result="shape"/>
<feGaussianBlur stdDeviation="28.6161" result="effect1_foregroundBlur_1096_3792"/>
</filter>
</defs>
</svg>
