<svg width="281" height="138" viewBox="0 0 281 138" fill="none" xmlns="http://www.w3.org/2000/svg">
<rect x="9" y="12" width="261" height="115" rx="4" fill="#DBEAFE"/>
<path d="M2 2H20.537" stroke="#DBEAFE" stroke-width="3" stroke-linecap="round"/>
<path d="M2 2L2 20.537" stroke="#DBEAFE" stroke-width="3" stroke-linecap="round"/>
<path d="M278.63 136H260.093" stroke="#DBEAFE" stroke-width="3" stroke-linecap="round"/>
<path d="M278.63 136L278.63 117.463" stroke="#DBEAFE" stroke-width="3" stroke-linecap="round"/>
<path d="M26.6356 44V32.3636H30.897C31.7227 32.3636 32.4064 32.5 32.9481 32.7727C33.4898 33.0417 33.8951 33.4072 34.164 33.8693C34.4329 34.3277 34.5674 34.8447 34.5674 35.4205C34.5674 35.9053 34.4784 36.3144 34.3004 36.6477C34.1223 36.9773 33.8837 37.2424 33.5845 37.4432C33.289 37.6402 32.9632 37.7841 32.6072 37.875V37.9886C32.9935 38.0076 33.3704 38.1326 33.7379 38.3636C34.1091 38.5909 34.4159 38.9148 34.6583 39.3352C34.9007 39.7557 35.022 40.267 35.022 40.8693C35.022 41.464 34.8818 41.9981 34.6015 42.4716C34.325 42.9413 33.897 43.3144 33.3174 43.5909C32.7379 43.8636 31.9973 44 31.0958 44H26.6356ZM28.3913 42.4943H30.9254C31.7663 42.4943 32.3685 42.3314 32.7322 42.0057C33.0958 41.6799 33.2776 41.2727 33.2776 40.7841C33.2776 40.4167 33.1848 40.0795 32.9992 39.7727C32.8136 39.4659 32.5485 39.2216 32.2038 39.0398C31.8629 38.858 31.4576 38.767 30.9879 38.767H28.3913V42.4943ZM28.3913 37.3977H30.7435C31.1375 37.3977 31.4917 37.322 31.806 37.1705C32.1242 37.0189 32.3761 36.8068 32.5617 36.5341C32.7511 36.2576 32.8458 35.9318 32.8458 35.5568C32.8458 35.0758 32.6773 34.6723 32.3401 34.3466C32.003 34.0208 31.486 33.858 30.789 33.858H28.3913V37.3977ZM36.328 47.2727V35.2727H37.9871V36.6875H38.1291C38.2276 36.5057 38.3696 36.2955 38.5553 36.0568C38.7409 35.8182 38.9984 35.6098 39.328 35.4318C39.6575 35.25 40.0931 35.1591 40.6348 35.1591C41.3393 35.1591 41.9681 35.3371 42.5212 35.6932C43.0742 36.0492 43.5079 36.5625 43.8223 37.233C44.1405 37.9034 44.2996 38.7102 44.2996 39.6534C44.2996 40.5966 44.1424 41.4053 43.828 42.0795C43.5136 42.75 43.0818 43.267 42.5325 43.6307C41.9833 43.9905 41.3564 44.1705 40.6518 44.1705C40.1215 44.1705 39.6878 44.0814 39.3507 43.9034C39.0174 43.7254 38.756 43.517 38.5666 43.2784C38.3772 43.0398 38.2314 42.8277 38.1291 42.642H38.0268V47.2727H36.328ZM37.9928 39.6364C37.9928 40.25 38.0818 40.7879 38.2598 41.25C38.4378 41.7121 38.6954 42.0739 39.0325 42.3352C39.3696 42.5928 39.7825 42.7216 40.2712 42.7216C40.7787 42.7216 41.203 42.5871 41.5439 42.3182C41.8848 42.0455 42.1424 41.6761 42.3166 41.2102C42.4946 40.7443 42.5837 40.2197 42.5837 39.6364C42.5837 39.0606 42.4965 38.5436 42.3223 38.0852C42.1518 37.6269 41.8943 37.2652 41.5496 37C41.2087 36.7348 40.7825 36.6023 40.2712 36.6023C39.7787 36.6023 39.3621 36.7292 39.0212 36.983C38.684 37.2367 38.4284 37.5909 38.2541 38.0455C38.0799 38.5 37.9928 39.0303 37.9928 39.6364ZM47.2618 32.3636V44H45.563V32.3636H47.2618ZM52.6687 44.1761C51.8089 44.1761 51.0683 43.9924 50.4471 43.625C49.8297 43.2538 49.3524 42.733 49.0153 42.0625C48.682 41.3883 48.5153 40.5985 48.5153 39.6932C48.5153 38.7992 48.682 38.0114 49.0153 37.3295C49.3524 36.6477 49.8221 36.1155 50.4244 35.733C51.0305 35.3504 51.7388 35.1591 52.5494 35.1591C53.0418 35.1591 53.5191 35.2405 53.9812 35.4034C54.4433 35.5663 54.8581 35.822 55.2255 36.1705C55.593 36.5189 55.8827 36.9716 56.0949 37.5284C56.307 38.0814 56.413 38.7538 56.413 39.5455V40.1477H49.4755V38.875H54.7483C54.7483 38.428 54.6574 38.0322 54.4755 37.6875C54.2937 37.339 54.038 37.0644 53.7085 36.8636C53.3827 36.6629 53.0002 36.5625 52.5608 36.5625C52.0835 36.5625 51.6668 36.6799 51.3108 36.9148C50.9585 37.1458 50.6858 37.4489 50.4926 37.8239C50.3032 38.1951 50.2085 38.5985 50.2085 39.0341V40.0284C50.2085 40.6117 50.3108 41.108 50.5153 41.517C50.7236 41.9261 51.0134 42.2386 51.3846 42.4545C51.7558 42.6667 52.1896 42.7727 52.6858 42.7727C53.0077 42.7727 53.3013 42.7273 53.5664 42.6364C53.8316 42.5417 54.0608 42.4015 54.2539 42.2159C54.4471 42.0303 54.5949 41.8011 54.6971 41.5284L56.3051 41.8182C56.1763 42.2917 55.9452 42.7064 55.6119 43.0625C55.2824 43.4148 54.8676 43.6894 54.3676 43.8864C53.8714 44.0795 53.3051 44.1761 52.6687 44.1761ZM58.7958 35.2727L60.7219 38.6705L62.6651 35.2727H64.523L61.8014 39.6364L64.5458 44H62.6878L60.7219 40.7386L58.7617 44H56.898L59.6139 39.6364L56.9321 35.2727H58.7958ZM69.3581 44V32.3636H76.574V33.875H71.1138V37.4205H76.057V38.9261H71.1138V44H69.3581ZM80.9922 44.1761C80.1741 44.1761 79.46 43.9886 78.8502 43.6136C78.2403 43.2386 77.7669 42.714 77.4297 42.0398C77.0926 41.3655 76.9241 40.5777 76.9241 39.6761C76.9241 38.7708 77.0926 37.9792 77.4297 37.3011C77.7669 36.6231 78.2403 36.0966 78.8502 35.7216C79.46 35.3466 80.1741 35.1591 80.9922 35.1591C81.8104 35.1591 82.5244 35.3466 83.1343 35.7216C83.7441 36.0966 84.2176 36.6231 84.5547 37.3011C84.8919 37.9792 85.0604 38.7708 85.0604 39.6761C85.0604 40.5777 84.8919 41.3655 84.5547 42.0398C84.2176 42.714 83.7441 43.2386 83.1343 43.6136C82.5244 43.9886 81.8104 44.1761 80.9922 44.1761ZM80.9979 42.75C81.5282 42.75 81.9676 42.6098 82.3161 42.3295C82.6646 42.0492 82.9222 41.6761 83.0888 41.2102C83.2593 40.7443 83.3445 40.2311 83.3445 39.6705C83.3445 39.1136 83.2593 38.6023 83.0888 38.1364C82.9222 37.6667 82.6646 37.2898 82.3161 37.0057C81.9676 36.7216 81.5282 36.5795 80.9979 36.5795C80.4638 36.5795 80.0207 36.7216 79.6684 37.0057C79.3199 37.2898 79.0604 37.6667 78.89 38.1364C78.7233 38.6023 78.64 39.1136 78.64 39.6705C78.64 40.2311 78.7233 40.7443 78.89 41.2102C79.0604 41.6761 79.3199 42.0492 79.6684 42.3295C80.0207 42.6098 80.4638 42.75 80.9979 42.75ZM86.3167 44V35.2727H87.9588V36.6591H88.0497C88.2088 36.1894 88.4891 35.8201 88.8906 35.5511C89.2959 35.2784 89.7542 35.142 90.2656 35.142C90.3717 35.142 90.4967 35.1458 90.6406 35.1534C90.7883 35.161 90.9039 35.1705 90.9872 35.1818V36.8068C90.919 36.7879 90.7978 36.767 90.6236 36.7443C90.4493 36.7178 90.2751 36.7045 90.1008 36.7045C89.6993 36.7045 89.3414 36.7898 89.027 36.9602C88.7164 37.1269 88.4701 37.3598 88.2883 37.6591C88.1065 37.9545 88.0156 38.2917 88.0156 38.6705V44H86.3167ZM96.4068 35.2727V36.6364H91.6398V35.2727H96.4068ZM92.9182 33.1818H94.6171V41.4375C94.6171 41.767 94.6663 42.0152 94.7648 42.1818C94.8633 42.3447 94.9902 42.4564 95.1455 42.517C95.3046 42.5739 95.4769 42.6023 95.6625 42.6023C95.7989 42.6023 95.9182 42.5928 96.0205 42.5739C96.1228 42.5549 96.2023 42.5398 96.2591 42.5284L96.5659 43.9318C96.4674 43.9697 96.3273 44.0076 96.1455 44.0455C95.9637 44.0871 95.7364 44.1098 95.4637 44.1136C95.0167 44.1212 94.6 44.0417 94.2137 43.875C93.8273 43.7083 93.5148 43.4508 93.2762 43.1023C93.0375 42.7538 92.9182 42.3163 92.9182 41.7898V33.1818ZM101.314 44.1761C100.454 44.1761 99.7133 43.9924 99.0921 43.625C98.4747 43.2538 97.9974 42.733 97.6603 42.0625C97.327 41.3883 97.1603 40.5985 97.1603 39.6932C97.1603 38.7992 97.327 38.0114 97.6603 37.3295C97.9974 36.6477 98.4671 36.1155 99.0694 35.733C99.6755 35.3504 100.384 35.1591 101.194 35.1591C101.687 35.1591 102.164 35.2405 102.626 35.4034C103.088 35.5663 103.503 35.822 103.871 36.1705C104.238 36.5189 104.528 36.9716 104.74 37.5284C104.952 38.0814 105.058 38.7538 105.058 39.5455V40.1477H98.1205V38.875H103.393C103.393 38.428 103.302 38.0322 103.121 37.6875C102.939 37.339 102.683 37.0644 102.353 36.8636C102.028 36.6629 101.645 36.5625 101.206 36.5625C100.728 36.5625 100.312 36.6799 99.9558 36.9148C99.6035 37.1458 99.3308 37.4489 99.1376 37.8239C98.9482 38.1951 98.8535 38.5985 98.8535 39.0341V40.0284C98.8535 40.6117 98.9558 41.108 99.1603 41.517C99.3686 41.9261 99.6584 42.2386 100.03 42.4545C100.401 42.6667 100.835 42.7727 101.331 42.7727C101.653 42.7727 101.946 42.7273 102.211 42.6364C102.477 42.5417 102.706 42.4015 102.899 42.2159C103.092 42.0303 103.24 41.8011 103.342 41.5284L104.95 41.8182C104.821 42.2917 104.59 42.7064 104.257 43.0625C103.927 43.4148 103.513 43.6894 103.013 43.8864C102.516 44.0795 101.95 44.1761 101.314 44.1761ZM109.897 44V35.2727H111.539V36.6591H111.63C111.789 36.1894 112.07 35.8201 112.471 35.5511C112.877 35.2784 113.335 35.142 113.846 35.142C113.952 35.142 114.077 35.1458 114.221 35.1534C114.369 35.161 114.484 35.1705 114.568 35.1818V36.8068C114.5 36.7879 114.378 36.767 114.204 36.7443C114.03 36.7178 113.856 36.7045 113.681 36.7045C113.28 36.7045 112.922 36.7898 112.608 36.9602C112.297 37.1269 112.051 37.3598 111.869 37.6591C111.687 37.9545 111.596 38.2917 111.596 38.6705V44H109.897ZM118.847 44.1761C117.987 44.1761 117.246 43.9924 116.625 43.625C116.008 43.2538 115.531 42.733 115.193 42.0625C114.86 41.3883 114.693 40.5985 114.693 39.6932C114.693 38.7992 114.86 38.0114 115.193 37.3295C115.531 36.6477 116 36.1155 116.603 35.733C117.209 35.3504 117.917 35.1591 118.728 35.1591C119.22 35.1591 119.697 35.2405 120.159 35.4034C120.621 35.5663 121.036 35.822 121.404 36.1705C121.771 36.5189 122.061 36.9716 122.273 37.5284C122.485 38.0814 122.591 38.7538 122.591 39.5455V40.1477H115.654V38.875H120.926C120.926 38.428 120.835 38.0322 120.654 37.6875C120.472 37.339 120.216 37.0644 119.887 36.8636C119.561 36.6629 119.178 36.5625 118.739 36.5625C118.262 36.5625 117.845 36.6799 117.489 36.9148C117.137 37.1458 116.864 37.4489 116.671 37.8239C116.481 38.1951 116.387 38.5985 116.387 39.0341V40.0284C116.387 40.6117 116.489 41.108 116.693 41.517C116.902 41.9261 117.192 42.2386 117.563 42.4545C117.934 42.6667 118.368 42.7727 118.864 42.7727C119.186 42.7727 119.479 42.7273 119.745 42.6364C120.01 42.5417 120.239 42.4015 120.432 42.2159C120.625 42.0303 120.773 41.8011 120.875 41.5284L122.483 41.8182C122.354 42.2917 122.123 42.7064 121.79 43.0625C121.46 43.4148 121.046 43.6894 120.546 43.8864C120.049 44.0795 119.483 44.1761 118.847 44.1761ZM127.103 44.1705C126.399 44.1705 125.77 43.9905 125.217 43.6307C124.668 43.267 124.236 42.75 123.921 42.0795C123.611 41.4053 123.455 40.5966 123.455 39.6534C123.455 38.7102 123.613 37.9034 123.927 37.233C124.245 36.5625 124.681 36.0492 125.234 35.6932C125.787 35.3371 126.414 35.1591 127.115 35.1591C127.656 35.1591 128.092 35.25 128.421 35.4318C128.755 35.6098 129.012 35.8182 129.194 36.0568C129.38 36.2955 129.524 36.5057 129.626 36.6875H129.728V32.3636H131.427V44H129.768V42.642H129.626C129.524 42.8277 129.376 43.0398 129.183 43.2784C128.993 43.517 128.732 43.7254 128.399 43.9034C128.065 44.0814 127.633 44.1705 127.103 44.1705ZM127.478 42.7216C127.967 42.7216 128.38 42.5928 128.717 42.3352C129.058 42.0739 129.315 41.7121 129.49 41.25C129.668 40.7879 129.757 40.25 129.757 39.6364C129.757 39.0303 129.669 38.5 129.495 38.0455C129.321 37.5909 129.065 37.2367 128.728 36.983C128.391 36.7292 127.974 36.6023 127.478 36.6023C126.967 36.6023 126.541 36.7348 126.2 37C125.859 37.2652 125.601 37.6269 125.427 38.0852C125.257 38.5436 125.171 39.0606 125.171 39.6364C125.171 40.2197 125.258 40.7443 125.433 41.2102C125.607 41.6761 125.865 42.0455 126.205 42.3182C126.55 42.5871 126.974 42.7216 127.478 42.7216ZM138.74 40.3807V35.2727H140.445V44H138.774V42.4886H138.683C138.483 42.9545 138.161 43.3428 137.717 43.6534C137.278 43.9602 136.731 44.1136 136.075 44.1136C135.515 44.1136 135.019 43.9905 134.587 43.7443C134.159 43.4943 133.822 43.125 133.575 42.6364C133.333 42.1477 133.212 41.5436 133.212 40.8239V35.2727H134.911V40.6193C134.911 41.214 135.075 41.6875 135.405 42.0398C135.734 42.392 136.162 42.5682 136.689 42.5682C137.007 42.5682 137.323 42.4886 137.638 42.3295C137.956 42.1705 138.219 41.9299 138.428 41.608C138.64 41.286 138.744 40.8769 138.74 40.3807ZM145.763 44.1761C144.919 44.1761 144.192 43.9848 143.582 43.6023C142.976 43.2159 142.51 42.6837 142.184 42.0057C141.858 41.3277 141.695 40.5511 141.695 39.6761C141.695 38.7898 141.862 38.0076 142.195 37.3295C142.529 36.6477 142.998 36.1155 143.604 35.733C144.21 35.3504 144.924 35.1591 145.746 35.1591C146.409 35.1591 147 35.2822 147.519 35.5284C148.038 35.7708 148.457 36.1117 148.775 36.5511C149.097 36.9905 149.288 37.5038 149.349 38.0909H147.695C147.604 37.6818 147.396 37.3295 147.07 37.0341C146.748 36.7386 146.317 36.5909 145.775 36.5909C145.301 36.5909 144.887 36.7159 144.531 36.9659C144.178 37.2121 143.904 37.5644 143.707 38.0227C143.51 38.4773 143.411 39.0152 143.411 39.6364C143.411 40.2727 143.508 40.822 143.701 41.2841C143.894 41.7462 144.167 42.1042 144.519 42.358C144.875 42.6117 145.294 42.7386 145.775 42.7386C146.097 42.7386 146.388 42.6799 146.65 42.5625C146.915 42.4413 147.137 42.2689 147.315 42.0455C147.496 41.822 147.623 41.553 147.695 41.2386H149.349C149.288 41.803 149.104 42.3068 148.798 42.75C148.491 43.1932 148.08 43.5417 147.565 43.7955C147.053 44.0492 146.453 44.1761 145.763 44.1761ZM154.287 44.1761C153.427 44.1761 152.686 43.9924 152.065 43.625C151.448 43.2538 150.971 42.733 150.633 42.0625C150.3 41.3883 150.133 40.5985 150.133 39.6932C150.133 38.7992 150.3 38.0114 150.633 37.3295C150.971 36.6477 151.44 36.1155 152.043 35.733C152.649 35.3504 153.357 35.1591 154.168 35.1591C154.66 35.1591 155.137 35.2405 155.599 35.4034C156.061 35.5663 156.476 35.822 156.844 36.1705C157.211 36.5189 157.501 36.9716 157.713 37.5284C157.925 38.0814 158.031 38.7538 158.031 39.5455V40.1477H151.094V38.875H156.366C156.366 38.428 156.275 38.0322 156.094 37.6875C155.912 37.339 155.656 37.0644 155.327 36.8636C155.001 36.6629 154.618 36.5625 154.179 36.5625C153.702 36.5625 153.285 36.6799 152.929 36.9148C152.577 37.1458 152.304 37.4489 152.111 37.8239C151.921 38.1951 151.827 38.5985 151.827 39.0341V40.0284C151.827 40.6117 151.929 41.108 152.133 41.517C152.342 41.9261 152.632 42.2386 153.003 42.4545C153.374 42.6667 153.808 42.7727 154.304 42.7727C154.626 42.7727 154.919 42.7273 155.185 42.6364C155.45 42.5417 155.679 42.4015 155.872 42.2159C156.065 42.0303 156.213 41.8011 156.315 41.5284L157.923 41.8182C157.794 42.2917 157.563 42.7064 157.23 43.0625C156.9 43.4148 156.486 43.6894 155.986 43.8864C155.489 44.0795 154.923 44.1761 154.287 44.1761ZM165.816 37.4034L164.276 37.6761C164.212 37.4792 164.109 37.2917 163.969 37.1136C163.833 36.9356 163.647 36.7898 163.412 36.6761C163.178 36.5625 162.884 36.5057 162.532 36.5057C162.051 36.5057 161.649 36.6136 161.327 36.8295C161.005 37.0417 160.844 37.3163 160.844 37.6534C160.844 37.9451 160.952 38.1799 161.168 38.358C161.384 38.536 161.733 38.6818 162.214 38.7955L163.6 39.1136C164.403 39.2992 165.001 39.5852 165.395 39.9716C165.789 40.358 165.986 40.8598 165.986 41.4773C165.986 42 165.835 42.4659 165.532 42.875C165.233 43.2803 164.814 43.5985 164.276 43.8295C163.742 44.0606 163.123 44.1761 162.418 44.1761C161.441 44.1761 160.644 43.9678 160.026 43.5511C159.409 43.1307 159.03 42.5341 158.89 41.7614L160.532 41.5114C160.634 41.9394 160.844 42.2633 161.162 42.483C161.481 42.6989 161.895 42.8068 162.407 42.8068C162.964 42.8068 163.409 42.6913 163.742 42.4602C164.075 42.2254 164.242 41.9394 164.242 41.6023C164.242 41.3295 164.14 41.1004 163.935 40.9148C163.734 40.7292 163.426 40.589 163.009 40.4943L161.532 40.1705C160.717 39.9848 160.115 39.6894 159.725 39.2841C159.339 38.8788 159.145 38.3655 159.145 37.7443C159.145 37.2292 159.289 36.7784 159.577 36.392C159.865 36.0057 160.263 35.7045 160.77 35.4886C161.278 35.2689 161.859 35.1591 162.515 35.1591C163.458 35.1591 164.2 35.3636 164.742 35.7727C165.284 36.178 165.642 36.7216 165.816 37.4034ZM174.962 35.2727V36.6364H170.03V35.2727H174.962ZM171.382 44V34.2614C171.382 33.7159 171.502 33.2633 171.74 32.9034C171.979 32.5398 172.295 32.2689 172.689 32.0909C173.083 31.9091 173.511 31.8182 173.973 31.8182C174.314 31.8182 174.606 31.8466 174.848 31.9034C175.091 31.9564 175.271 32.0057 175.388 32.0511L174.99 33.4261C174.911 33.4034 174.809 33.3769 174.684 33.3466C174.559 33.3125 174.407 33.2955 174.229 33.2955C173.816 33.2955 173.521 33.3977 173.343 33.6023C173.168 33.8068 173.081 34.1023 173.081 34.4886V44H171.382ZM178.349 44.1932C177.796 44.1932 177.296 44.0909 176.849 43.8864C176.402 43.678 176.048 43.3769 175.786 42.983C175.529 42.589 175.4 42.1061 175.4 41.5341C175.4 41.0417 175.495 40.6364 175.684 40.3182C175.874 40 176.129 39.7481 176.451 39.5625C176.773 39.3769 177.133 39.2367 177.531 39.142C177.929 39.0473 178.334 38.9754 178.747 38.9261C179.269 38.8655 179.694 38.8163 180.019 38.7784C180.345 38.7367 180.582 38.6705 180.73 38.5795C180.877 38.4886 180.951 38.3409 180.951 38.1364V38.0966C180.951 37.6004 180.811 37.2159 180.531 36.9432C180.254 36.6705 179.841 36.5341 179.292 36.5341C178.72 36.5341 178.269 36.661 177.94 36.9148C177.614 37.1648 177.389 37.4432 177.264 37.75L175.667 37.3864C175.857 36.8561 176.133 36.428 176.497 36.1023C176.864 35.7727 177.286 35.5341 177.764 35.3864C178.241 35.2348 178.743 35.1591 179.269 35.1591C179.618 35.1591 179.987 35.2008 180.377 35.2841C180.771 35.3636 181.139 35.5114 181.48 35.7273C181.824 35.9432 182.107 36.2519 182.326 36.6534C182.546 37.0511 182.656 37.5682 182.656 38.2045V44H180.997V42.8068H180.929C180.819 43.0265 180.654 43.2424 180.434 43.4545C180.215 43.6667 179.932 43.8428 179.588 43.983C179.243 44.1231 178.83 44.1932 178.349 44.1932ZM178.718 42.8295C179.188 42.8295 179.59 42.7367 179.923 42.5511C180.26 42.3655 180.516 42.1231 180.69 41.8239C180.868 41.5208 180.957 41.197 180.957 40.8523V39.7273C180.896 39.7879 180.779 39.8447 180.605 39.8977C180.434 39.947 180.239 39.9905 180.019 40.0284C179.8 40.0625 179.586 40.0947 179.377 40.125C179.169 40.1515 178.995 40.1742 178.855 40.1932C178.525 40.2348 178.224 40.3049 177.951 40.4034C177.682 40.5019 177.466 40.6439 177.304 40.8295C177.144 41.0114 177.065 41.2538 177.065 41.5568C177.065 41.9773 177.22 42.2955 177.531 42.5114C177.841 42.7235 178.237 42.8295 178.718 42.8295ZM188.352 35.2727V36.6364H183.585V35.2727H188.352ZM184.864 33.1818H186.563V41.4375C186.563 41.767 186.612 42.0152 186.71 42.1818C186.809 42.3447 186.936 42.4564 187.091 42.517C187.25 42.5739 187.423 42.6023 187.608 42.6023C187.745 42.6023 187.864 42.5928 187.966 42.5739C188.068 42.5549 188.148 42.5398 188.205 42.5284L188.512 43.9318C188.413 43.9697 188.273 44.0076 188.091 44.0455C187.909 44.0871 187.682 44.1098 187.409 44.1136C186.962 44.1212 186.546 44.0417 186.159 43.875C185.773 43.7083 185.46 43.4508 185.222 43.1023C184.983 42.7538 184.864 42.3163 184.864 41.7898V33.1818ZM189.592 44V35.2727H191.291V44H189.592ZM190.45 33.9261C190.154 33.9261 189.9 33.8277 189.688 33.6307C189.48 33.4299 189.376 33.1913 189.376 32.9148C189.376 32.6345 189.48 32.3958 189.688 32.1989C189.9 31.9981 190.154 31.8977 190.45 31.8977C190.745 31.8977 190.997 31.9981 191.205 32.1989C191.417 32.3958 191.524 32.6345 191.524 32.9148C191.524 33.1913 191.417 33.4299 191.205 33.6307C190.997 33.8277 190.745 33.9261 190.45 33.9261ZM196.595 47.4545C195.902 47.4545 195.305 47.3636 194.805 47.1818C194.309 47 193.904 46.7595 193.59 46.4602C193.275 46.161 193.04 45.8333 192.885 45.4773L194.345 44.875C194.447 45.0417 194.584 45.2178 194.754 45.4034C194.929 45.5928 195.163 45.7538 195.459 45.8864C195.758 46.0189 196.143 46.0852 196.612 46.0852C197.256 46.0852 197.788 45.928 198.209 45.6136C198.629 45.303 198.84 44.8068 198.84 44.125V42.4091H198.732C198.629 42.5947 198.482 42.8011 198.288 43.0284C198.099 43.2557 197.838 43.4527 197.504 43.6193C197.171 43.786 196.737 43.8693 196.203 43.8693C195.514 43.8693 194.893 43.7083 194.34 43.3864C193.79 43.0606 193.355 42.5814 193.033 41.9489C192.715 41.3125 192.555 40.5303 192.555 39.6023C192.555 38.6742 192.713 37.8788 193.027 37.2159C193.345 36.553 193.781 36.0455 194.334 35.6932C194.887 35.3371 195.514 35.1591 196.215 35.1591C196.756 35.1591 197.194 35.25 197.527 35.4318C197.86 35.6098 198.12 35.8182 198.305 36.0568C198.495 36.2955 198.641 36.5057 198.743 36.6875H198.868V35.2727H200.533V44.1932C200.533 44.9432 200.358 45.5587 200.01 46.0398C199.661 46.5208 199.19 46.8769 198.595 47.108C198.004 47.339 197.338 47.4545 196.595 47.4545ZM196.578 42.4602C197.067 42.4602 197.48 42.3466 197.817 42.1193C198.158 41.8883 198.415 41.5587 198.59 41.1307C198.768 40.6989 198.857 40.1818 198.857 39.5795C198.857 38.9924 198.769 38.4754 198.595 38.0284C198.421 37.5814 198.165 37.233 197.828 36.983C197.491 36.7292 197.074 36.6023 196.578 36.6023C196.067 36.6023 195.641 36.7348 195.3 37C194.959 37.2614 194.701 37.6174 194.527 38.0682C194.357 38.5189 194.271 39.0227 194.271 39.5795C194.271 40.1515 194.358 40.6534 194.533 41.0852C194.707 41.517 194.965 41.8542 195.305 42.0966C195.65 42.339 196.074 42.4602 196.578 42.4602ZM207.7 40.3807V35.2727H209.404V44H207.734V42.4886H207.643C207.442 42.9545 207.12 43.3428 206.677 43.6534C206.237 43.9602 205.69 44.1136 205.035 44.1136C204.474 44.1136 203.978 43.9905 203.546 43.7443C203.118 43.4943 202.781 43.125 202.535 42.6364C202.292 42.1477 202.171 41.5436 202.171 40.8239V35.2727H203.87V40.6193C203.87 41.214 204.035 41.6875 204.364 42.0398C204.694 42.392 205.122 42.5682 205.648 42.5682C205.967 42.5682 206.283 42.4886 206.597 42.3295C206.915 42.1705 207.179 41.9299 207.387 41.608C207.599 41.286 207.703 40.8769 207.7 40.3807ZM214.808 44.1761C213.948 44.1761 213.208 43.9924 212.587 43.625C211.969 43.2538 211.492 42.733 211.155 42.0625C210.821 41.3883 210.655 40.5985 210.655 39.6932C210.655 38.7992 210.821 38.0114 211.155 37.3295C211.492 36.6477 211.962 36.1155 212.564 35.733C213.17 35.3504 213.878 35.1591 214.689 35.1591C215.181 35.1591 215.658 35.2405 216.121 35.4034C216.583 35.5663 216.997 35.822 217.365 36.1705C217.732 36.5189 218.022 36.9716 218.234 37.5284C218.446 38.0814 218.552 38.7538 218.552 39.5455V40.1477H211.615V38.875H216.888C216.888 38.428 216.797 38.0322 216.615 37.6875C216.433 37.339 216.177 37.0644 215.848 36.8636C215.522 36.6629 215.14 36.5625 214.7 36.5625C214.223 36.5625 213.806 36.6799 213.45 36.9148C213.098 37.1458 212.825 37.4489 212.632 37.8239C212.443 38.1951 212.348 38.5985 212.348 39.0341V40.0284C212.348 40.6117 212.45 41.108 212.655 41.517C212.863 41.9261 213.153 42.2386 213.524 42.4545C213.895 42.6667 214.329 42.7727 214.825 42.7727C215.147 42.7727 215.441 42.7273 215.706 42.6364C215.971 42.5417 216.2 42.4015 216.393 42.2159C216.587 42.0303 216.734 41.8011 216.837 41.5284L218.444 41.8182C218.316 42.2917 218.085 42.7064 217.751 43.0625C217.422 43.4148 217.007 43.6894 216.507 43.8864C216.011 44.0795 215.444 44.1761 214.808 44.1761ZM225.284 44L222.716 35.2727H224.471L226.182 41.6818H226.267L227.983 35.2727H229.738L231.443 41.6534H231.528L233.227 35.2727H234.983L232.42 44H230.687L228.914 37.6989H228.784L227.011 44H225.284ZM235.955 44V35.2727H237.654V44H235.955ZM236.813 33.9261C236.517 33.9261 236.264 33.8277 236.051 33.6307C235.843 33.4299 235.739 33.1913 235.739 32.9148C235.739 32.6345 235.843 32.3958 236.051 32.1989C236.264 31.9981 236.517 31.8977 236.813 31.8977C237.108 31.8977 237.36 31.9981 237.568 32.1989C237.781 32.3958 237.887 32.6345 237.887 32.9148C237.887 33.1913 237.781 33.4299 237.568 33.6307C237.36 33.8277 237.108 33.9261 236.813 33.9261ZM243.373 35.2727V36.6364H238.606V35.2727H243.373ZM239.884 33.1818H241.583V41.4375C241.583 41.767 241.633 42.0152 241.731 42.1818C241.83 42.3447 241.956 42.4564 242.112 42.517C242.271 42.5739 242.443 42.6023 242.629 42.6023C242.765 42.6023 242.884 42.5928 242.987 42.5739C243.089 42.5549 243.169 42.5398 243.225 42.5284L243.532 43.9318C243.434 43.9697 243.294 44.0076 243.112 44.0455C242.93 44.0871 242.703 44.1098 242.43 44.1136C241.983 44.1212 241.566 44.0417 241.18 43.875C240.794 43.7083 240.481 43.4508 240.242 43.1023C240.004 42.7538 239.884 42.3163 239.884 41.7898V33.1818ZM246.499 38.8182V44H244.8V32.3636H246.476V36.6932H246.584C246.788 36.2235 247.101 35.8504 247.521 35.5739C247.942 35.2973 248.491 35.1591 249.169 35.1591C249.768 35.1591 250.29 35.2822 250.737 35.5284C251.188 35.7746 251.537 36.142 251.783 36.6307C252.033 37.1155 252.158 37.7216 252.158 38.4489V44H250.459V38.6534C250.459 38.0133 250.294 37.517 249.965 37.1648C249.635 36.8087 249.177 36.6307 248.59 36.6307C248.188 36.6307 247.828 36.7159 247.51 36.8864C247.196 37.0568 246.948 37.3068 246.766 37.6364C246.588 37.9621 246.499 38.3561 246.499 38.8182ZM51.5047 63V51.3636H58.7206V52.875H53.2603V56.4205H58.2035V57.9261H53.2603V63H51.5047ZM63.1388 63.1761C62.3206 63.1761 61.6066 62.9886 60.9968 62.6136C60.3869 62.2386 59.9134 61.714 59.5763 61.0398C59.2392 60.3655 59.0706 59.5777 59.0706 58.6761C59.0706 57.7708 59.2392 56.9792 59.5763 56.3011C59.9134 55.6231 60.3869 55.0966 60.9968 54.7216C61.6066 54.3466 62.3206 54.1591 63.1388 54.1591C63.957 54.1591 64.671 54.3466 65.2809 54.7216C65.8907 55.0966 66.3642 55.6231 66.7013 56.3011C67.0384 56.9792 67.207 57.7708 67.207 58.6761C67.207 59.5777 67.0384 60.3655 66.7013 61.0398C66.3642 61.714 65.8907 62.2386 65.2809 62.6136C64.671 62.9886 63.957 63.1761 63.1388 63.1761ZM63.1445 61.75C63.6748 61.75 64.1142 61.6098 64.4627 61.3295C64.8112 61.0492 65.0687 60.6761 65.2354 60.2102C65.4059 59.7443 65.4911 59.2311 65.4911 58.6705C65.4911 58.1136 65.4059 57.6023 65.2354 57.1364C65.0687 56.6667 64.8112 56.2898 64.4627 56.0057C64.1142 55.7216 63.6748 55.5795 63.1445 55.5795C62.6104 55.5795 62.1672 55.7216 61.8149 56.0057C61.4665 56.2898 61.207 56.6667 61.0365 57.1364C60.8699 57.6023 60.7865 58.1136 60.7865 58.6705C60.7865 59.2311 60.8699 59.7443 61.0365 60.2102C61.207 60.6761 61.4665 61.0492 61.8149 61.3295C62.1672 61.6098 62.6104 61.75 63.1445 61.75ZM70.1622 51.3636V63H68.4633V51.3636H70.1622ZM71.8077 63V54.2727H73.5065V63H71.8077ZM72.6656 52.9261C72.3702 52.9261 72.1164 52.8277 71.9043 52.6307C71.6959 52.4299 71.5918 52.1913 71.5918 51.9148C71.5918 51.6345 71.6959 51.3958 71.9043 51.1989C72.1164 50.9981 72.3702 50.8977 72.6656 50.8977C72.9611 50.8977 73.213 50.9981 73.4213 51.1989C73.6334 51.3958 73.7395 51.6345 73.7395 51.9148C73.7395 52.1913 73.6334 52.4299 73.4213 52.6307C73.213 52.8277 72.9611 52.9261 72.6656 52.9261ZM78.8282 63.1761C77.9835 63.1761 77.2562 62.9848 76.6464 62.6023C76.0403 62.2159 75.5744 61.6837 75.2486 61.0057C74.9229 60.3277 74.76 59.5511 74.76 58.6761C74.76 57.7898 74.9267 57.0076 75.26 56.3295C75.5933 55.6477 76.063 55.1155 76.6691 54.733C77.2752 54.3504 77.9892 54.1591 78.8111 54.1591C79.474 54.1591 80.0649 54.2822 80.5839 54.5284C81.1028 54.7708 81.5214 55.1117 81.8395 55.5511C82.1615 55.9905 82.3528 56.5038 82.4134 57.0909H80.76C80.6691 56.6818 80.4608 56.3295 80.135 56.0341C79.813 55.7386 79.3812 55.5909 78.8395 55.5909C78.3661 55.5909 77.9513 55.7159 77.5952 55.9659C77.243 56.2121 76.9683 56.5644 76.7714 57.0227C76.5744 57.4773 76.4759 58.0152 76.4759 58.6364C76.4759 59.2727 76.5725 59.822 76.7657 60.2841C76.9589 60.7462 77.2316 61.1042 77.5839 61.358C77.9399 61.6117 78.3585 61.7386 78.8395 61.7386C79.1615 61.7386 79.4532 61.6799 79.7145 61.5625C79.9797 61.4413 80.2013 61.2689 80.3793 61.0455C80.5611 60.822 80.688 60.553 80.76 60.2386H82.4134C82.3528 60.803 82.1691 61.3068 81.8623 61.75C81.5555 62.1932 81.1445 62.5417 80.6293 62.7955C80.118 63.0492 79.5176 63.1761 78.8282 63.1761ZM88.3039 63H86.4402L90.6277 51.3636H92.6561L96.8436 63H94.98L91.6902 53.4773H91.5993L88.3039 63ZM88.6164 58.4432H94.6618V59.9205H88.6164V58.4432ZM101.283 63.1761C100.438 63.1761 99.7112 62.9848 99.1014 62.6023C98.4953 62.2159 98.0294 61.6837 97.7036 61.0057C97.3779 60.3277 97.215 59.5511 97.215 58.6761C97.215 57.7898 97.3817 57.0076 97.715 56.3295C98.0483 55.6477 98.518 55.1155 99.1241 54.733C99.7301 54.3504 100.444 54.1591 101.266 54.1591C101.929 54.1591 102.52 54.2822 103.039 54.5284C103.558 54.7708 103.976 55.1117 104.295 55.5511C104.617 55.9905 104.808 56.5038 104.868 57.0909H103.215C103.124 56.6818 102.916 56.3295 102.59 56.0341C102.268 55.7386 101.836 55.5909 101.295 55.5909C100.821 55.5909 100.406 55.7159 100.05 55.9659C99.698 56.2121 99.4233 56.5644 99.2264 57.0227C99.0294 57.4773 98.9309 58.0152 98.9309 58.6364C98.9309 59.2727 99.0275 59.822 99.2207 60.2841C99.4139 60.7462 99.6866 61.1042 100.039 61.358C100.395 61.6117 100.813 61.7386 101.295 61.7386C101.617 61.7386 101.908 61.6799 102.17 61.5625C102.435 61.4413 102.656 61.2689 102.834 61.0455C103.016 60.822 103.143 60.553 103.215 60.2386H104.868C104.808 60.803 104.624 61.3068 104.317 61.75C104.01 62.1932 103.599 62.5417 103.084 62.7955C102.573 63.0492 101.973 63.1761 101.283 63.1761ZM106.045 63V54.2727H107.744V63H106.045ZM106.903 52.9261C106.608 52.9261 106.354 52.8277 106.142 52.6307C105.933 52.4299 105.829 52.1913 105.829 51.9148C105.829 51.6345 105.933 51.3958 106.142 51.1989C106.354 50.9981 106.608 50.8977 106.903 50.8977C107.199 50.8977 107.45 50.9981 107.659 51.1989C107.871 51.3958 107.977 51.6345 107.977 51.9148C107.977 52.1913 107.871 52.4299 107.659 52.6307C107.45 52.8277 107.199 52.9261 106.903 52.9261ZM112.657 63.1705C111.952 63.1705 111.323 62.9905 110.77 62.6307C110.221 62.267 109.789 61.75 109.475 61.0795C109.164 60.4053 109.009 59.5966 109.009 58.6534C109.009 57.7102 109.166 56.9034 109.48 56.233C109.799 55.5625 110.234 55.0492 110.787 54.6932C111.34 54.3371 111.967 54.1591 112.668 54.1591C113.21 54.1591 113.645 54.25 113.975 54.4318C114.308 54.6098 114.566 54.8182 114.747 55.0568C114.933 55.2955 115.077 55.5057 115.179 55.6875H115.282V51.3636H116.98V63H115.321V61.642H115.179C115.077 61.8277 114.929 62.0398 114.736 62.2784C114.547 62.517 114.285 62.7254 113.952 62.9034C113.619 63.0814 113.187 63.1705 112.657 63.1705ZM113.032 61.7216C113.52 61.7216 113.933 61.5928 114.27 61.3352C114.611 61.0739 114.869 60.7121 115.043 60.25C115.221 59.7879 115.31 59.25 115.31 58.6364C115.31 58.0303 115.223 57.5 115.049 57.0455C114.874 56.5909 114.619 56.2367 114.282 55.983C113.944 55.7292 113.528 55.6023 113.032 55.6023C112.52 55.6023 112.094 55.7348 111.753 56C111.412 56.2652 111.155 56.6269 110.98 57.0852C110.81 57.5436 110.725 58.0606 110.725 58.6364C110.725 59.2197 110.812 59.7443 110.986 60.2102C111.16 60.6761 111.418 61.0455 111.759 61.3182C112.104 61.5871 112.528 61.7216 113.032 61.7216ZM124.899 63.1932C124.346 63.1932 123.846 63.0909 123.399 62.8864C122.952 62.678 122.598 62.3769 122.337 61.983C122.079 61.589 121.95 61.1061 121.95 60.5341C121.95 60.0417 122.045 59.6364 122.235 59.3182C122.424 59 122.68 58.7481 123.002 58.5625C123.324 58.3769 123.683 58.2367 124.081 58.142C124.479 58.0473 124.884 57.9754 125.297 57.9261C125.82 57.8655 126.244 57.8163 126.57 57.7784C126.896 57.7367 127.132 57.6705 127.28 57.5795C127.428 57.4886 127.502 57.3409 127.502 57.1364V57.0966C127.502 56.6004 127.361 56.2159 127.081 55.9432C126.805 55.6705 126.392 55.5341 125.842 55.5341C125.271 55.5341 124.82 55.661 124.49 55.9148C124.164 56.1648 123.939 56.4432 123.814 56.75L122.217 56.3864C122.407 55.8561 122.683 55.428 123.047 55.1023C123.414 54.7727 123.837 54.5341 124.314 54.3864C124.791 54.2348 125.293 54.1591 125.82 54.1591C126.168 54.1591 126.538 54.2008 126.928 54.2841C127.322 54.3636 127.689 54.5114 128.03 54.7273C128.375 54.9432 128.657 55.2519 128.877 55.6534C129.096 56.0511 129.206 56.5682 129.206 57.2045V63H127.547V61.8068H127.479C127.369 62.0265 127.204 62.2424 126.985 62.4545C126.765 62.6667 126.483 62.8428 126.138 62.983C125.793 63.1231 125.38 63.1932 124.899 63.1932ZM125.269 61.8295C125.738 61.8295 126.14 61.7367 126.473 61.5511C126.81 61.3655 127.066 61.1231 127.24 60.8239C127.418 60.5208 127.507 60.197 127.507 59.8523V58.7273C127.447 58.7879 127.329 58.8447 127.155 58.8977C126.985 58.947 126.789 58.9905 126.57 59.0284C126.35 59.0625 126.136 59.0947 125.928 59.125C125.719 59.1515 125.545 59.1742 125.405 59.1932C125.075 59.2348 124.774 59.3049 124.502 59.4034C124.233 59.5019 124.017 59.6439 123.854 59.8295C123.695 60.0114 123.615 60.2538 123.615 60.5568C123.615 60.9773 123.771 61.2955 124.081 61.5114C124.392 61.7235 124.788 61.8295 125.269 61.8295ZM132.528 57.8182V63H130.829V54.2727H132.46V55.6932H132.568C132.768 55.2311 133.083 54.8598 133.511 54.5795C133.943 54.2992 134.486 54.1591 135.141 54.1591C135.736 54.1591 136.257 54.2841 136.704 54.5341C137.151 54.7803 137.497 55.1477 137.744 55.6364C137.99 56.125 138.113 56.7292 138.113 57.4489V63H136.414V57.6534C136.414 57.0208 136.249 56.5265 135.92 56.1705C135.59 55.8106 135.138 55.6307 134.562 55.6307C134.168 55.6307 133.818 55.7159 133.511 55.8864C133.208 56.0568 132.967 56.3068 132.789 56.6364C132.615 56.9621 132.528 57.3561 132.528 57.8182ZM143.018 63.1705C142.314 63.1705 141.685 62.9905 141.132 62.6307C140.583 62.267 140.151 61.75 139.837 61.0795C139.526 60.4053 139.371 59.5966 139.371 58.6534C139.371 57.7102 139.528 56.9034 139.842 56.233C140.161 55.5625 140.596 55.0492 141.149 54.6932C141.702 54.3371 142.329 54.1591 143.03 54.1591C143.571 54.1591 144.007 54.25 144.337 54.4318C144.67 54.6098 144.928 54.8182 145.109 55.0568C145.295 55.2955 145.439 55.5057 145.541 55.6875H145.643V51.3636H147.342V63H145.683V61.642H145.541C145.439 61.8277 145.291 62.0398 145.098 62.2784C144.909 62.517 144.647 62.7254 144.314 62.9034C143.981 63.0814 143.549 63.1705 143.018 63.1705ZM143.393 61.7216C143.882 61.7216 144.295 61.5928 144.632 61.3352C144.973 61.0739 145.231 60.7121 145.405 60.25C145.583 59.7879 145.672 59.25 145.672 58.6364C145.672 58.0303 145.585 57.5 145.411 57.0455C145.236 56.5909 144.981 56.2367 144.643 55.983C144.306 55.7292 143.89 55.6023 143.393 55.6023C142.882 55.6023 142.456 55.7348 142.115 56C141.774 56.2652 141.517 56.6269 141.342 57.0852C141.172 57.5436 141.087 58.0606 141.087 58.6364C141.087 59.2197 141.174 59.7443 141.348 60.2102C141.522 60.6761 141.78 61.0455 142.121 61.3182C142.465 61.5871 142.89 61.7216 143.393 61.7216ZM156.483 63.1761C155.623 63.1761 154.882 62.9924 154.261 62.625C153.644 62.2538 153.166 61.733 152.829 61.0625C152.496 60.3883 152.329 59.5985 152.329 58.6932C152.329 57.7992 152.496 57.0114 152.829 56.3295C153.166 55.6477 153.636 55.1155 154.238 54.733C154.845 54.3504 155.553 54.1591 156.363 54.1591C156.856 54.1591 157.333 54.2405 157.795 54.4034C158.257 54.5663 158.672 54.822 159.04 55.1705C159.407 55.5189 159.697 55.9716 159.909 56.5284C160.121 57.0814 160.227 57.7538 160.227 58.5455V59.1477H153.29V57.875H158.562C158.562 57.428 158.471 57.0322 158.29 56.6875C158.108 56.339 157.852 56.0644 157.523 55.8636C157.197 55.6629 156.814 55.5625 156.375 55.5625C155.898 55.5625 155.481 55.6799 155.125 55.9148C154.773 56.1458 154.5 56.4489 154.307 56.8239C154.117 57.1951 154.023 57.5985 154.023 58.0341V59.0284C154.023 59.6117 154.125 60.108 154.329 60.517C154.538 60.9261 154.827 61.2386 155.199 61.4545C155.57 61.6667 156.004 61.7727 156.5 61.7727C156.822 61.7727 157.115 61.7273 157.381 61.6364C157.646 61.5417 157.875 61.4015 158.068 61.2159C158.261 61.0303 158.409 60.8011 158.511 60.5284L160.119 60.8182C159.99 61.2917 159.759 61.7064 159.426 62.0625C159.096 62.4148 158.682 62.6894 158.182 62.8864C157.685 63.0795 157.119 63.1761 156.483 63.1761ZM168.012 56.4034L166.472 56.6761C166.408 56.4792 166.305 56.2917 166.165 56.1136C166.029 55.9356 165.843 55.7898 165.608 55.6761C165.374 55.5625 165.08 55.5057 164.728 55.5057C164.247 55.5057 163.845 55.6136 163.523 55.8295C163.201 56.0417 163.04 56.3163 163.04 56.6534C163.04 56.9451 163.148 57.1799 163.364 57.358C163.58 57.536 163.928 57.6818 164.41 57.7955L165.796 58.1136C166.599 58.2992 167.197 58.5852 167.591 58.9716C167.985 59.358 168.182 59.8598 168.182 60.4773C168.182 61 168.031 61.4659 167.728 61.875C167.428 62.2803 167.01 62.5985 166.472 62.8295C165.938 63.0606 165.319 63.1761 164.614 63.1761C163.637 63.1761 162.839 62.9678 162.222 62.5511C161.605 62.1307 161.226 61.5341 161.086 60.7614L162.728 60.5114C162.83 60.9394 163.04 61.2633 163.358 61.483C163.677 61.6989 164.091 61.8068 164.603 61.8068C165.16 61.8068 165.605 61.6913 165.938 61.4602C166.271 61.2254 166.438 60.9394 166.438 60.6023C166.438 60.3295 166.336 60.1004 166.131 59.9148C165.93 59.7292 165.622 59.589 165.205 59.4943L163.728 59.1705C162.913 58.9848 162.311 58.6894 161.921 58.2841C161.535 57.8788 161.341 57.3655 161.341 56.7443C161.341 56.2292 161.485 55.7784 161.773 55.392C162.061 55.0057 162.459 54.7045 162.966 54.4886C163.474 54.2689 164.055 54.1591 164.711 54.1591C165.654 54.1591 166.396 54.3636 166.938 54.7727C167.48 55.178 167.838 55.7216 168.012 56.4034ZM175.95 56.4034L174.41 56.6761C174.346 56.4792 174.244 56.2917 174.103 56.1136C173.967 55.9356 173.781 55.7898 173.547 55.6761C173.312 55.5625 173.018 55.5057 172.666 55.5057C172.185 55.5057 171.783 55.6136 171.461 55.8295C171.139 56.0417 170.978 56.3163 170.978 56.6534C170.978 56.9451 171.086 57.1799 171.302 57.358C171.518 57.536 171.867 57.6818 172.348 57.7955L173.734 58.1136C174.537 58.2992 175.136 58.5852 175.529 58.9716C175.923 59.358 176.12 59.8598 176.12 60.4773C176.12 61 175.969 61.4659 175.666 61.875C175.367 62.2803 174.948 62.5985 174.41 62.8295C173.876 63.0606 173.257 63.1761 172.552 63.1761C171.575 63.1761 170.778 62.9678 170.16 62.5511C169.543 62.1307 169.164 61.5341 169.024 60.7614L170.666 60.5114C170.768 60.9394 170.978 61.2633 171.297 61.483C171.615 61.6989 172.029 61.8068 172.541 61.8068C173.098 61.8068 173.543 61.6913 173.876 61.4602C174.209 61.2254 174.376 60.9394 174.376 60.6023C174.376 60.3295 174.274 60.1004 174.069 59.9148C173.869 59.7292 173.56 59.589 173.143 59.4943L171.666 59.1705C170.851 58.9848 170.249 58.6894 169.859 58.2841C169.473 57.8788 169.279 57.3655 169.279 56.7443C169.279 56.2292 169.423 55.7784 169.711 55.392C169.999 55.0057 170.397 54.7045 170.904 54.4886C171.412 54.2689 171.994 54.1591 172.649 54.1591C173.592 54.1591 174.334 54.3636 174.876 54.7727C175.418 55.178 175.776 55.7216 175.95 56.4034ZM181.11 63.1761C180.25 63.1761 179.509 62.9924 178.888 62.625C178.271 62.2538 177.793 61.733 177.456 61.0625C177.123 60.3883 176.956 59.5985 176.956 58.6932C176.956 57.7992 177.123 57.0114 177.456 56.3295C177.793 55.6477 178.263 55.1155 178.865 54.733C179.471 54.3504 180.18 54.1591 180.99 54.1591C181.483 54.1591 181.96 54.2405 182.422 54.4034C182.884 54.5663 183.299 54.822 183.666 55.1705C184.034 55.5189 184.324 55.9716 184.536 56.5284C184.748 57.0814 184.854 57.7538 184.854 58.5455V59.1477H177.916V57.875H183.189C183.189 57.428 183.098 57.0322 182.916 56.6875C182.735 56.339 182.479 56.0644 182.149 55.8636C181.824 55.6629 181.441 55.5625 181.002 55.5625C180.524 55.5625 180.108 55.6799 179.752 55.9148C179.399 56.1458 179.127 56.4489 178.934 56.8239C178.744 57.1951 178.649 57.5985 178.649 58.0341V59.0284C178.649 59.6117 178.752 60.108 178.956 60.517C179.165 60.9261 179.454 61.2386 179.826 61.4545C180.197 61.6667 180.63 61.7727 181.127 61.7727C181.449 61.7727 181.742 61.7273 182.007 61.6364C182.273 61.5417 182.502 61.4015 182.695 61.2159C182.888 61.0303 183.036 60.8011 183.138 60.5284L184.746 60.8182C184.617 61.2917 184.386 61.7064 184.053 62.0625C183.723 62.4148 183.309 62.6894 182.809 62.8864C182.312 63.0795 181.746 63.1761 181.11 63.1761ZM187.798 57.8182V63H186.099V54.2727H187.73V55.6932H187.838C188.038 55.2311 188.353 54.8598 188.781 54.5795C189.213 54.2992 189.756 54.1591 190.411 54.1591C191.006 54.1591 191.527 54.2841 191.974 54.5341C192.421 54.7803 192.767 55.1477 193.014 55.6364C193.26 56.125 193.383 56.7292 193.383 57.4489V63H191.684V57.6534C191.684 57.0208 191.519 56.5265 191.19 56.1705C190.86 55.8106 190.408 55.6307 189.832 55.6307C189.438 55.6307 189.088 55.7159 188.781 55.8864C188.478 56.0568 188.237 56.3068 188.059 56.6364C187.885 56.9621 187.798 57.3561 187.798 57.8182ZM199.095 54.2727V55.6364H194.328V54.2727H199.095ZM195.607 52.1818H197.306V60.4375C197.306 60.767 197.355 61.0152 197.453 61.1818C197.552 61.3447 197.679 61.4564 197.834 61.517C197.993 61.5739 198.165 61.6023 198.351 61.6023C198.487 61.6023 198.607 61.5928 198.709 61.5739C198.811 61.5549 198.891 61.5398 198.948 61.5284L199.254 62.9318C199.156 62.9697 199.016 63.0076 198.834 63.0455C198.652 63.0871 198.425 63.1098 198.152 63.1136C197.705 63.1212 197.288 63.0417 196.902 62.875C196.516 62.7083 196.203 62.4508 195.965 62.1023C195.726 61.7538 195.607 61.3163 195.607 60.7898V52.1818ZM200.335 63V54.2727H202.033V63H200.335ZM201.193 52.9261C200.897 52.9261 200.643 52.8277 200.431 52.6307C200.223 52.4299 200.119 52.1913 200.119 51.9148C200.119 51.6345 200.223 51.3958 200.431 51.1989C200.643 50.9981 200.897 50.8977 201.193 50.8977C201.488 50.8977 201.74 50.9981 201.948 51.1989C202.16 51.3958 202.266 51.6345 202.266 51.9148C202.266 52.1913 202.16 52.4299 201.948 52.6307C201.74 52.8277 201.488 52.9261 201.193 52.9261ZM206.219 63.1932C205.666 63.1932 205.166 63.0909 204.719 62.8864C204.272 62.678 203.918 62.3769 203.656 61.983C203.399 61.589 203.27 61.1061 203.27 60.5341C203.27 60.0417 203.365 59.6364 203.554 59.3182C203.743 59 203.999 58.7481 204.321 58.5625C204.643 58.3769 205.003 58.2367 205.401 58.142C205.798 58.0473 206.204 57.9754 206.616 57.9261C207.139 57.8655 207.563 57.8163 207.889 57.7784C208.215 57.7367 208.452 57.6705 208.599 57.5795C208.747 57.4886 208.821 57.3409 208.821 57.1364V57.0966C208.821 56.6004 208.681 56.2159 208.401 55.9432C208.124 55.6705 207.711 55.5341 207.162 55.5341C206.59 55.5341 206.139 55.661 205.81 55.9148C205.484 56.1648 205.258 56.4432 205.133 56.75L203.537 56.3864C203.726 55.8561 204.003 55.428 204.366 55.1023C204.734 54.7727 205.156 54.5341 205.633 54.3864C206.111 54.2348 206.613 54.1591 207.139 54.1591C207.488 54.1591 207.857 54.2008 208.247 54.2841C208.641 54.3636 209.008 54.5114 209.349 54.7273C209.694 54.9432 209.976 55.2519 210.196 55.6534C210.416 56.0511 210.526 56.5682 210.526 57.2045V63H208.866V61.8068H208.798C208.688 62.0265 208.524 62.2424 208.304 62.4545C208.084 62.6667 207.802 62.8428 207.457 62.983C207.113 63.1231 206.7 63.1932 206.219 63.1932ZM206.588 61.8295C207.058 61.8295 207.459 61.7367 207.793 61.5511C208.13 61.3655 208.385 61.1231 208.56 60.8239C208.738 60.5208 208.827 60.197 208.827 59.8523V58.7273C208.766 58.7879 208.649 58.8447 208.474 58.8977C208.304 58.947 208.109 58.9905 207.889 59.0284C207.669 59.0625 207.455 59.0947 207.247 59.125C207.039 59.1515 206.865 59.1742 206.724 59.1932C206.395 59.2348 206.094 59.3049 205.821 59.4034C205.552 59.5019 205.336 59.6439 205.173 59.8295C205.014 60.0114 204.935 60.2538 204.935 60.5568C204.935 60.9773 205.09 61.2955 205.401 61.5114C205.711 61.7235 206.107 61.8295 206.588 61.8295ZM213.847 51.3636V63H212.148V51.3636H213.847ZM219.223 63V51.3636H223.485C224.311 51.3636 224.994 51.5 225.536 51.7727C226.078 52.0417 226.483 52.4072 226.752 52.8693C227.021 53.3277 227.155 53.8447 227.155 54.4205C227.155 54.9053 227.066 55.3144 226.888 55.6477C226.71 55.9773 226.472 56.2424 226.172 56.4432C225.877 56.6402 225.551 56.7841 225.195 56.875V56.9886C225.581 57.0076 225.958 57.1326 226.326 57.3636C226.697 57.5909 227.004 57.9148 227.246 58.3352C227.489 58.7557 227.61 59.267 227.61 59.8693C227.61 60.464 227.47 60.9981 227.189 61.4716C226.913 61.9413 226.485 62.3144 225.905 62.5909C225.326 62.8636 224.585 63 223.684 63H219.223ZM220.979 61.4943H223.513C224.354 61.4943 224.956 61.3314 225.32 61.0057C225.684 60.6799 225.865 60.2727 225.865 59.7841C225.865 59.4167 225.773 59.0795 225.587 58.7727C225.401 58.4659 225.136 58.2216 224.792 58.0398C224.451 57.858 224.045 57.767 223.576 57.767H220.979V61.4943ZM220.979 56.3977H223.331C223.725 56.3977 224.079 56.322 224.394 56.1705C224.712 56.0189 224.964 55.8068 225.15 55.5341C225.339 55.2576 225.434 54.9318 225.434 54.5568C225.434 54.0758 225.265 53.6723 224.928 53.3466C224.591 53.0208 224.074 52.858 223.377 52.858H220.979V56.3977ZM42.8095 73.2727L39.6447 82H37.8266L34.6561 73.2727H36.48L38.6902 79.9886H38.7811L40.9857 73.2727H42.8095ZM43.7661 82V73.2727H45.465V82H43.7661ZM44.6241 71.9261C44.3286 71.9261 44.0748 71.8277 43.8627 71.6307C43.6544 71.4299 43.5502 71.1913 43.5502 70.9148C43.5502 70.6345 43.6544 70.3958 43.8627 70.1989C44.0748 69.9981 44.3286 69.8977 44.6241 69.8977C44.9195 69.8977 45.1714 69.9981 45.3797 70.1989C45.5919 70.3958 45.6979 70.6345 45.6979 70.9148C45.6979 71.1913 45.5919 71.4299 45.3797 71.6307C45.1714 71.8277 44.9195 71.9261 44.6241 71.9261ZM51.1843 73.2727V74.6364H46.4173V73.2727H51.1843ZM47.6957 71.1818H49.3946V79.4375C49.3946 79.767 49.4438 80.0152 49.5423 80.1818C49.6408 80.3447 49.7677 80.4564 49.923 80.517C50.0821 80.5739 50.2544 80.6023 50.44 80.6023C50.5764 80.6023 50.6957 80.5928 50.798 80.5739C50.9003 80.5549 50.9798 80.5398 51.0366 80.5284L51.3434 81.9318C51.245 81.9697 51.1048 82.0076 50.923 82.0455C50.7412 82.0871 50.5139 82.1098 50.2412 82.1136C49.7942 82.1212 49.3775 82.0417 48.9912 81.875C48.6048 81.7083 48.2923 81.4508 48.0537 81.1023C47.815 80.7538 47.6957 80.3163 47.6957 79.7898V71.1818ZM54.9634 82.1932C54.4103 82.1932 53.9103 82.0909 53.4634 81.8864C53.0164 81.678 52.6622 81.3769 52.4009 80.983C52.1433 80.589 52.0145 80.1061 52.0145 79.5341C52.0145 79.0417 52.1092 78.6364 52.2986 78.3182C52.488 78 52.7437 77.7481 53.0657 77.5625C53.3876 77.3769 53.7475 77.2367 54.1452 77.142C54.5429 77.0473 54.9482 76.9754 55.3611 76.9261C55.8838 76.8655 56.3081 76.8163 56.6338 76.7784C56.9596 76.7367 57.1963 76.6705 57.3441 76.5795C57.4918 76.4886 57.5657 76.3409 57.5657 76.1364V76.0966C57.5657 75.6004 57.4255 75.2159 57.1452 74.9432C56.8687 74.6705 56.4558 74.5341 55.9066 74.5341C55.3346 74.5341 54.8838 74.661 54.5543 74.9148C54.2285 75.1648 54.0032 75.4432 53.8782 75.75L52.2816 75.3864C52.471 74.8561 52.7475 74.428 53.1111 74.1023C53.4785 73.7727 53.9009 73.5341 54.3782 73.3864C54.8554 73.2348 55.3573 73.1591 55.8838 73.1591C56.2323 73.1591 56.6016 73.2008 56.9918 73.2841C57.3857 73.3636 57.7532 73.5114 58.0941 73.7273C58.4388 73.9432 58.721 74.2519 58.9407 74.6534C59.1603 75.0511 59.2702 75.5682 59.2702 76.2045V82H57.6111V80.8068H57.5429C57.4331 81.0265 57.2683 81.2424 57.0486 81.4545C56.8289 81.6667 56.5467 81.8428 56.202 81.983C55.8573 82.1231 55.4444 82.1932 54.9634 82.1932ZM55.3327 80.8295C55.8024 80.8295 56.2039 80.7367 56.5372 80.5511C56.8744 80.3655 57.13 80.1231 57.3043 79.8239C57.4823 79.5208 57.5713 79.197 57.5713 78.8523V77.7273C57.5107 77.7879 57.3933 77.8447 57.2191 77.8977C57.0486 77.947 56.8535 77.9905 56.6338 78.0284C56.4141 78.0625 56.2001 78.0947 55.9918 78.125C55.7835 78.1515 55.6092 78.1742 55.4691 78.1932C55.1395 78.2348 54.8384 78.3049 54.5657 78.4034C54.2967 78.5019 54.0808 78.6439 53.9179 78.8295C53.7588 79.0114 53.6793 79.2538 53.6793 79.5568C53.6793 79.9773 53.8346 80.2955 54.1452 80.5114C54.4558 80.7235 54.8516 80.8295 55.3327 80.8295ZM60.893 82V73.2727H62.5237V74.6932H62.6316C62.8134 74.2121 63.1108 73.8371 63.5237 73.5682C63.9365 73.2955 64.4309 73.1591 65.0066 73.1591C65.59 73.1591 66.0786 73.2955 66.4725 73.5682C66.8703 73.8409 67.1638 74.2159 67.3532 74.6932H67.4441C67.6525 74.2273 67.9839 73.8561 68.4384 73.5795C68.893 73.2992 69.4347 73.1591 70.0634 73.1591C70.8551 73.1591 71.5009 73.4072 72.0009 73.9034C72.5047 74.3996 72.7566 75.1477 72.7566 76.1477V82H71.0578V76.3068C71.0578 75.7159 70.8968 75.2879 70.5748 75.0227C70.2528 74.7576 69.8684 74.625 69.4214 74.625C68.8684 74.625 68.4384 74.7955 68.1316 75.1364C67.8248 75.4735 67.6714 75.9072 67.6714 76.4375V82H65.9782V76.1989C65.9782 75.7254 65.8305 75.3447 65.535 75.0568C65.2396 74.7689 64.8551 74.625 64.3816 74.625C64.0597 74.625 63.7623 74.7102 63.4896 74.8807C63.2206 75.0473 63.0028 75.2803 62.8362 75.5795C62.6733 75.8788 62.5918 76.2254 62.5918 76.6193V82H60.893ZM74.3936 82V73.2727H76.0925V82H74.3936ZM75.2516 71.9261C74.9561 71.9261 74.7023 71.8277 74.4902 71.6307C74.2819 71.4299 74.1777 71.1913 74.1777 70.9148C74.1777 70.6345 74.2819 70.3958 74.4902 70.1989C74.7023 69.9981 74.9561 69.8977 75.2516 69.8977C75.547 69.8977 75.7989 69.9981 76.0072 70.1989C76.2194 70.3958 76.3254 70.6345 76.3254 70.9148C76.3254 71.1913 76.2194 71.4299 76.0072 71.6307C75.7989 71.8277 75.547 71.9261 75.2516 71.9261ZM79.4368 76.8182V82H77.738V73.2727H79.3687V74.6932H79.4766C79.6774 74.2311 79.9918 73.8598 80.4198 73.5795C80.8516 73.2992 81.3952 73.1591 82.0505 73.1591C82.6452 73.1591 83.166 73.2841 83.613 73.5341C84.06 73.7803 84.4065 74.1477 84.6528 74.6364C84.899 75.125 85.0221 75.7292 85.0221 76.4489V82H83.3232V76.6534C83.3232 76.0208 83.1584 75.5265 82.8289 75.1705C82.4993 74.8106 82.0467 74.6307 81.4709 74.6307C81.077 74.6307 80.7266 74.7159 80.4198 74.8864C80.1168 75.0568 79.8762 75.3068 79.6982 75.6364C79.524 75.9621 79.4368 76.3561 79.4368 76.8182ZM93.2003 75.4034L91.6605 75.6761C91.5961 75.4792 91.4938 75.2917 91.3537 75.1136C91.2173 74.9356 91.0317 74.7898 90.7968 74.6761C90.562 74.5625 90.2684 74.5057 89.9162 74.5057C89.4351 74.5057 89.0336 74.6136 88.7116 74.8295C88.3896 75.0417 88.2287 75.3163 88.2287 75.6534C88.2287 75.9451 88.3366 76.1799 88.5525 76.358C88.7684 76.536 89.1169 76.6818 89.598 76.7955L90.9843 77.1136C91.7874 77.2992 92.3859 77.5852 92.7798 77.9716C93.1737 78.358 93.3707 78.8598 93.3707 79.4773C93.3707 80 93.2192 80.4659 92.9162 80.875C92.6169 81.2803 92.1984 81.5985 91.6605 81.8295C91.1264 82.0606 90.5071 82.1761 89.8025 82.1761C88.8253 82.1761 88.0279 81.9678 87.4105 81.5511C86.7931 81.1307 86.4143 80.5341 86.2741 79.7614L87.9162 79.5114C88.0184 79.9394 88.2287 80.2633 88.5468 80.483C88.865 80.6989 89.2798 80.8068 89.7912 80.8068C90.348 80.8068 90.7931 80.6913 91.1264 80.4602C91.4597 80.2254 91.6264 79.9394 91.6264 79.6023C91.6264 79.3295 91.5241 79.1004 91.3196 78.9148C91.1188 78.7292 90.8101 78.589 90.3934 78.4943L88.9162 78.1705C88.1018 77.9848 87.4995 77.6894 87.1093 77.2841C86.723 76.8788 86.5298 76.3655 86.5298 75.7443C86.5298 75.2292 86.6737 74.7784 86.9616 74.392C87.2495 74.0057 87.6472 73.7045 88.1548 73.4886C88.6624 73.2689 89.2438 73.1591 89.8991 73.1591C90.8423 73.1591 91.5847 73.3636 92.1264 73.7727C92.6681 74.178 93.026 74.7216 93.2003 75.4034ZM96.8088 80.4091L96.7236 81.0284C96.6668 81.483 96.5702 81.9564 96.4338 82.4489C96.3013 82.9451 96.163 83.4053 96.0191 83.8295C95.8789 84.2538 95.7634 84.5909 95.6725 84.8409H94.4679C94.5172 84.6061 94.5853 84.2879 94.6725 83.8864C94.7596 83.4886 94.8448 83.0436 94.9281 82.5511C95.0115 82.0587 95.074 81.5568 95.1156 81.0455L95.1725 80.4091H96.8088ZM103.674 76.8182V82H101.975V70.3636H103.651V74.6932H103.759C103.963 74.2235 104.276 73.8504 104.696 73.5739C105.117 73.2973 105.666 73.1591 106.344 73.1591C106.943 73.1591 107.465 73.2822 107.912 73.5284C108.363 73.7746 108.712 74.142 108.958 74.6307C109.208 75.1155 109.333 75.7216 109.333 76.4489V82H107.634V76.6534C107.634 76.0133 107.469 75.517 107.14 75.1648C106.81 74.8087 106.352 74.6307 105.765 74.6307C105.363 74.6307 105.003 74.7159 104.685 74.8864C104.371 75.0568 104.123 75.3068 103.941 75.6364C103.763 75.9621 103.674 76.3561 103.674 76.8182ZM114.721 82.1761C113.861 82.1761 113.121 81.9924 112.5 81.625C111.882 81.2538 111.405 80.733 111.068 80.0625C110.734 79.3883 110.568 78.5985 110.568 77.6932C110.568 76.7992 110.734 76.0114 111.068 75.3295C111.405 74.6477 111.875 74.1155 112.477 73.733C113.083 73.3504 113.791 73.1591 114.602 73.1591C115.094 73.1591 115.572 73.2405 116.034 73.4034C116.496 73.5663 116.911 73.822 117.278 74.1705C117.645 74.5189 117.935 74.9716 118.147 75.5284C118.359 76.0814 118.466 76.7538 118.466 77.5455V78.1477H111.528V76.875H116.801C116.801 76.428 116.71 76.0322 116.528 75.6875C116.346 75.339 116.091 75.0644 115.761 74.8636C115.435 74.6629 115.053 74.5625 114.613 74.5625C114.136 74.5625 113.719 74.6799 113.363 74.9148C113.011 75.1458 112.738 75.4489 112.545 75.8239C112.356 76.1951 112.261 76.5985 112.261 77.0341V78.0284C112.261 78.6117 112.363 79.108 112.568 79.517C112.776 79.9261 113.066 80.2386 113.437 80.4545C113.808 80.6667 114.242 80.7727 114.738 80.7727C115.06 80.7727 115.354 80.7273 115.619 80.6364C115.884 80.5417 116.113 80.4015 116.306 80.2159C116.5 80.0303 116.647 79.8011 116.75 79.5284L118.358 79.8182C118.229 80.2917 117.998 80.7064 117.664 81.0625C117.335 81.4148 116.92 81.6894 116.42 81.8864C115.924 82.0795 115.358 82.1761 114.721 82.1761ZM121.409 70.3636V82H119.71V70.3636H121.409ZM123.055 85.2727V73.2727H124.714V74.6875H124.856C124.954 74.5057 125.097 74.2955 125.282 74.0568C125.468 73.8182 125.725 73.6098 126.055 73.4318C126.384 73.25 126.82 73.1591 127.362 73.1591C128.066 73.1591 128.695 73.3371 129.248 73.6932C129.801 74.0492 130.235 74.5625 130.549 75.233C130.867 75.9034 131.026 76.7102 131.026 77.6534C131.026 78.5966 130.869 79.4053 130.555 80.0795C130.24 80.75 129.809 81.267 129.259 81.6307C128.71 81.9905 128.083 82.1705 127.379 82.1705C126.848 82.1705 126.415 82.0814 126.078 81.9034C125.744 81.7254 125.483 81.517 125.293 81.2784C125.104 81.0398 124.958 80.8277 124.856 80.642H124.754V85.2727H123.055ZM124.72 77.6364C124.72 78.25 124.809 78.7879 124.987 79.25C125.165 79.7121 125.422 80.0739 125.759 80.3352C126.097 80.5928 126.509 80.7216 126.998 80.7216C127.506 80.7216 127.93 80.5871 128.271 80.3182C128.612 80.0455 128.869 79.6761 129.043 79.2102C129.222 78.7443 129.311 78.2197 129.311 77.6364C129.311 77.0606 129.223 76.5436 129.049 76.0852C128.879 75.6269 128.621 75.2652 128.276 75C127.936 74.7348 127.509 74.6023 126.998 74.6023C126.506 74.6023 126.089 74.7292 125.748 74.983C125.411 75.2367 125.155 75.5909 124.981 76.0455C124.807 76.5 124.72 77.0303 124.72 77.6364ZM132.29 82V73.2727H133.989V82H132.29ZM133.148 71.9261C132.852 71.9261 132.599 71.8277 132.386 71.6307C132.178 71.4299 132.074 71.1913 132.074 70.9148C132.074 70.6345 132.178 70.3958 132.386 70.1989C132.599 69.9981 132.852 69.8977 133.148 69.8977C133.443 69.8977 133.695 69.9981 133.903 70.1989C134.116 70.3958 134.222 70.6345 134.222 70.9148C134.222 71.1913 134.116 71.4299 133.903 71.6307C133.695 71.8277 133.443 71.9261 133.148 71.9261ZM137.333 76.8182V82H135.634V73.2727H137.265V74.6932H137.373C137.574 74.2311 137.888 73.8598 138.316 73.5795C138.748 73.2992 139.291 73.1591 139.947 73.1591C140.541 73.1591 141.062 73.2841 141.509 73.5341C141.956 73.7803 142.303 74.1477 142.549 74.6364C142.795 75.125 142.918 75.7292 142.918 76.4489V82H141.219V76.6534C141.219 76.0208 141.055 75.5265 140.725 75.1705C140.396 74.8106 139.943 74.6307 139.367 74.6307C138.973 74.6307 138.623 74.7159 138.316 74.8864C138.013 75.0568 137.772 75.3068 137.594 75.6364C137.42 75.9621 137.333 76.3561 137.333 76.8182ZM148.216 85.4545C147.523 85.4545 146.926 85.3636 146.426 85.1818C145.93 85 145.525 84.7595 145.21 84.4602C144.896 84.161 144.661 83.8333 144.506 83.4773L145.966 82.875C146.068 83.0417 146.204 83.2178 146.375 83.4034C146.549 83.5928 146.784 83.7538 147.079 83.8864C147.379 84.0189 147.763 84.0852 148.233 84.0852C148.877 84.0852 149.409 83.928 149.829 83.6136C150.25 83.303 150.46 82.8068 150.46 82.125V80.4091H150.352C150.25 80.5947 150.102 80.8011 149.909 81.0284C149.72 81.2557 149.458 81.4527 149.125 81.6193C148.792 81.786 148.358 81.8693 147.824 81.8693C147.134 81.8693 146.513 81.7083 145.96 81.3864C145.411 81.0606 144.975 80.5814 144.653 79.9489C144.335 79.3125 144.176 78.5303 144.176 77.6023C144.176 76.6742 144.333 75.8788 144.648 75.2159C144.966 74.553 145.401 74.0455 145.954 73.6932C146.507 73.3371 147.134 73.1591 147.835 73.1591C148.377 73.1591 148.814 73.25 149.148 73.4318C149.481 73.6098 149.74 73.8182 149.926 74.0568C150.115 74.2955 150.261 74.5057 150.364 74.6875H150.489V73.2727H152.153V82.1932C152.153 82.9432 151.979 83.5587 151.631 84.0398C151.282 84.5208 150.811 84.8769 150.216 85.108C149.625 85.339 148.958 85.4545 148.216 85.4545ZM148.199 80.4602C148.687 80.4602 149.1 80.3466 149.437 80.1193C149.778 79.8883 150.036 79.5587 150.21 79.1307C150.388 78.6989 150.477 78.1818 150.477 77.5795C150.477 76.9924 150.39 76.4754 150.216 76.0284C150.042 75.5814 149.786 75.233 149.449 74.983C149.112 74.7292 148.695 74.6023 148.199 74.6023C147.687 74.6023 147.261 74.7348 146.92 75C146.579 75.2614 146.322 75.6174 146.148 76.0682C145.977 76.5189 145.892 77.0227 145.892 77.5795C145.892 78.1515 145.979 78.6534 146.153 79.0852C146.328 79.517 146.585 79.8542 146.926 80.0966C147.271 80.339 147.695 80.4602 148.199 80.4602ZM161.46 73.2727V74.6364H156.693V73.2727H161.46ZM157.971 71.1818H159.67V79.4375C159.67 79.767 159.719 80.0152 159.818 80.1818C159.916 80.3447 160.043 80.4564 160.199 80.517C160.358 80.5739 160.53 80.6023 160.716 80.6023C160.852 80.6023 160.971 80.5928 161.074 80.5739C161.176 80.5549 161.255 80.5398 161.312 80.5284L161.619 81.9318C161.521 81.9697 161.38 82.0076 161.199 82.0455C161.017 82.0871 160.79 82.1098 160.517 82.1136C160.07 82.1212 159.653 82.0417 159.267 81.875C158.88 81.7083 158.568 81.4508 158.329 81.1023C158.091 80.7538 157.971 80.3163 157.971 79.7898V71.1818ZM166.282 82.1761C165.463 82.1761 164.749 81.9886 164.14 81.6136C163.53 81.2386 163.056 80.714 162.719 80.0398C162.382 79.3655 162.213 78.5777 162.213 77.6761C162.213 76.7708 162.382 75.9792 162.719 75.3011C163.056 74.6231 163.53 74.0966 164.14 73.7216C164.749 73.3466 165.463 73.1591 166.282 73.1591C167.1 73.1591 167.814 73.3466 168.424 73.7216C169.034 74.0966 169.507 74.6231 169.844 75.3011C170.181 75.9792 170.35 76.7708 170.35 77.6761C170.35 78.5777 170.181 79.3655 169.844 80.0398C169.507 80.714 169.034 81.2386 168.424 81.6136C167.814 81.9886 167.1 82.1761 166.282 82.1761ZM166.287 80.75C166.818 80.75 167.257 80.6098 167.605 80.3295C167.954 80.0492 168.212 79.6761 168.378 79.2102C168.549 78.7443 168.634 78.2311 168.634 77.6705C168.634 77.1136 168.549 76.6023 168.378 76.1364C168.212 75.6667 167.954 75.2898 167.605 75.0057C167.257 74.7216 166.818 74.5795 166.287 74.5795C165.753 74.5795 165.31 74.7216 164.958 75.0057C164.609 75.2898 164.35 75.6667 164.179 76.1364C164.013 76.6023 163.929 77.1136 163.929 77.6705C163.929 78.2311 164.013 78.7443 164.179 79.2102C164.35 79.6761 164.609 80.0492 164.958 80.3295C165.31 80.6098 165.753 80.75 166.287 80.75ZM176.763 79.0398L176.752 76.9659H177.047L180.524 73.2727H182.558L178.593 77.4773H178.325L176.763 79.0398ZM175.2 82V70.3636H176.899V82H175.2ZM180.712 82L177.587 77.8523L178.757 76.6648L182.797 82H180.712ZM186.869 82.1761C186.009 82.1761 185.268 81.9924 184.647 81.625C184.03 81.2538 183.552 80.733 183.215 80.0625C182.882 79.3883 182.715 78.5985 182.715 77.6932C182.715 76.7992 182.882 76.0114 183.215 75.3295C183.552 74.6477 184.022 74.1155 184.624 73.733C185.23 73.3504 185.939 73.1591 186.749 73.1591C187.242 73.1591 187.719 73.2405 188.181 73.4034C188.643 73.5663 189.058 73.822 189.426 74.1705C189.793 74.5189 190.083 74.9716 190.295 75.5284C190.507 76.0814 190.613 76.7538 190.613 77.5455V78.1477H183.676V76.875H188.948C188.948 76.428 188.857 76.0322 188.676 75.6875C188.494 75.339 188.238 75.0644 187.908 74.8636C187.583 74.6629 187.2 74.5625 186.761 74.5625C186.283 74.5625 185.867 74.6799 185.511 74.9148C185.158 75.1458 184.886 75.4489 184.693 75.8239C184.503 76.1951 184.408 76.5985 184.408 77.0341V78.0284C184.408 78.6117 184.511 79.108 184.715 79.517C184.924 79.9261 185.213 80.2386 185.585 80.4545C185.956 80.6667 186.39 80.7727 186.886 80.7727C187.208 80.7727 187.501 80.7273 187.766 80.6364C188.032 80.5417 188.261 80.4015 188.454 80.2159C188.647 80.0303 188.795 79.8011 188.897 79.5284L190.505 79.8182C190.376 80.2917 190.145 80.7064 189.812 81.0625C189.482 81.4148 189.068 81.6894 188.568 81.8864C188.071 82.0795 187.505 82.1761 186.869 82.1761ZM195.619 82.1761C194.76 82.1761 194.019 81.9924 193.398 81.625C192.78 81.2538 192.303 80.733 191.966 80.0625C191.633 79.3883 191.466 78.5985 191.466 77.6932C191.466 76.7992 191.633 76.0114 191.966 75.3295C192.303 74.6477 192.773 74.1155 193.375 73.733C193.981 73.3504 194.689 73.1591 195.5 73.1591C195.992 73.1591 196.47 73.2405 196.932 73.4034C197.394 73.5663 197.809 73.822 198.176 74.1705C198.544 74.5189 198.833 74.9716 199.045 75.5284C199.258 76.0814 199.364 76.7538 199.364 77.5455V78.1477H192.426V76.875H197.699C197.699 76.428 197.608 76.0322 197.426 75.6875C197.244 75.339 196.989 75.0644 196.659 74.8636C196.333 74.6629 195.951 74.5625 195.511 74.5625C195.034 74.5625 194.617 74.6799 194.261 74.9148C193.909 75.1458 193.636 75.4489 193.443 75.8239C193.254 76.1951 193.159 76.5985 193.159 77.0341V78.0284C193.159 78.6117 193.261 79.108 193.466 79.517C193.674 79.9261 193.964 80.2386 194.335 80.4545C194.706 80.6667 195.14 80.7727 195.636 80.7727C195.958 80.7727 196.252 80.7273 196.517 80.6364C196.782 80.5417 197.011 80.4015 197.205 80.2159C197.398 80.0303 197.545 79.8011 197.648 79.5284L199.256 79.8182C199.127 80.2917 198.896 80.7064 198.563 81.0625C198.233 81.4148 197.818 81.6894 197.318 81.8864C196.822 82.0795 196.256 82.1761 195.619 82.1761ZM200.609 85.2727V73.2727H202.268V74.6875H202.41C202.508 74.5057 202.65 74.2955 202.836 74.0568C203.021 73.8182 203.279 73.6098 203.609 73.4318C203.938 73.25 204.374 73.1591 204.915 73.1591C205.62 73.1591 206.249 73.3371 206.802 73.6932C207.355 74.0492 207.789 74.5625 208.103 75.233C208.421 75.9034 208.58 76.7102 208.58 77.6534C208.58 78.5966 208.423 79.4053 208.109 80.0795C207.794 80.75 207.362 81.267 206.813 81.6307C206.264 81.9905 205.637 82.1705 204.932 82.1705C204.402 82.1705 203.968 82.0814 203.631 81.9034C203.298 81.7254 203.037 81.517 202.847 81.2784C202.658 81.0398 202.512 80.8277 202.41 80.642H202.307V85.2727H200.609ZM202.273 77.6364C202.273 78.25 202.362 78.7879 202.54 79.25C202.718 79.7121 202.976 80.0739 203.313 80.3352C203.65 80.5928 204.063 80.7216 204.552 80.7216C205.059 80.7216 205.484 80.5871 205.825 80.3182C206.165 80.0455 206.423 79.6761 206.597 79.2102C206.775 78.7443 206.864 78.2197 206.864 77.6364C206.864 77.0606 206.777 76.5436 206.603 76.0852C206.432 75.6269 206.175 75.2652 205.83 75C205.489 74.7348 205.063 74.6023 204.552 74.6023C204.059 74.6023 203.643 74.7292 203.302 74.983C202.965 75.2367 202.709 75.5909 202.535 76.0455C202.36 76.5 202.273 77.0303 202.273 77.6364ZM214.512 85.2727C214.258 85.2727 214.027 85.2519 213.819 85.2102C213.61 85.1723 213.455 85.1307 213.353 85.0852L213.762 83.6932C214.072 83.7765 214.349 83.8125 214.591 83.8011C214.834 83.7898 215.048 83.6989 215.233 83.5284C215.423 83.358 215.589 83.0795 215.733 82.6932L215.944 82.1136L212.75 73.2727H214.569L216.779 80.0455H216.87L219.08 73.2727H220.904L217.307 83.1648C217.141 83.6193 216.929 84.0038 216.671 84.3182C216.413 84.6364 216.107 84.875 215.75 85.0341C215.394 85.1932 214.982 85.2727 214.512 85.2727ZM225.24 82.1761C224.422 82.1761 223.708 81.9886 223.098 81.6136C222.488 81.2386 222.014 80.714 221.677 80.0398C221.34 79.3655 221.172 78.5777 221.172 77.6761C221.172 76.7708 221.34 75.9792 221.677 75.3011C222.014 74.6231 222.488 74.0966 223.098 73.7216C223.708 73.3466 224.422 73.1591 225.24 73.1591C226.058 73.1591 226.772 73.3466 227.382 73.7216C227.992 74.0966 228.465 74.6231 228.802 75.3011C229.139 75.9792 229.308 76.7708 229.308 77.6761C229.308 78.5777 229.139 79.3655 228.802 80.0398C228.465 80.714 227.992 81.2386 227.382 81.6136C226.772 81.9886 226.058 82.1761 225.24 82.1761ZM225.245 80.75C225.776 80.75 226.215 80.6098 226.564 80.3295C226.912 80.0492 227.17 79.6761 227.336 79.2102C227.507 78.7443 227.592 78.2311 227.592 77.6705C227.592 77.1136 227.507 76.6023 227.336 76.1364C227.17 75.6667 226.912 75.2898 226.564 75.0057C226.215 74.7216 225.776 74.5795 225.245 74.5795C224.711 74.5795 224.268 74.7216 223.916 75.0057C223.567 75.2898 223.308 75.6667 223.137 76.1364C222.971 76.6023 222.887 77.1136 222.887 77.6705C222.887 78.2311 222.971 78.7443 223.137 79.2102C223.308 79.6761 223.567 80.0492 223.916 80.3295C224.268 80.6098 224.711 80.75 225.245 80.75ZM236.093 78.3807V73.2727H237.797V82H236.127V80.4886H236.036C235.835 80.9545 235.513 81.3428 235.07 81.6534C234.631 81.9602 234.083 82.1136 233.428 82.1136C232.867 82.1136 232.371 81.9905 231.939 81.7443C231.511 81.4943 231.174 81.125 230.928 80.6364C230.685 80.1477 230.564 79.5436 230.564 78.8239V73.2727H232.263V78.6193C232.263 79.214 232.428 79.6875 232.757 80.0398C233.087 80.392 233.515 80.5682 234.041 80.5682C234.36 80.5682 234.676 80.4886 234.99 80.3295C235.309 80.1705 235.572 79.9299 235.78 79.608C235.992 79.286 236.096 78.8769 236.093 78.3807ZM239.44 82V73.2727H241.082V74.6591H241.173C241.332 74.1894 241.612 73.8201 242.014 73.5511C242.419 73.2784 242.877 73.142 243.389 73.142C243.495 73.142 243.62 73.1458 243.764 73.1534C243.911 73.161 244.027 73.1705 244.11 73.1818V74.8068C244.042 74.7879 243.921 74.767 243.747 74.7443C243.572 74.7178 243.398 74.7045 243.224 74.7045C242.822 74.7045 242.464 74.7898 242.15 74.9602C241.839 75.1269 241.593 75.3598 241.411 75.6591C241.23 75.9545 241.139 76.2917 241.139 76.6705V82H239.44ZM58.6078 95.8182V101H56.9089V92.2727H58.5396V93.6932H58.6476C58.8483 93.2311 59.1627 92.8598 59.5907 92.5795C60.0226 92.2992 60.5661 92.1591 61.2214 92.1591C61.8161 92.1591 62.337 92.2841 62.7839 92.5341C63.2309 92.7803 63.5775 93.1477 63.8237 93.6364C64.0699 94.125 64.193 94.7292 64.193 95.4489V101H62.4941V95.6534C62.4941 95.0208 62.3294 94.5265 61.9998 94.1705C61.6703 93.8106 61.2176 93.6307 60.6419 93.6307C60.2479 93.6307 59.8976 93.7159 59.5907 93.8864C59.2877 94.0568 59.0472 94.3068 58.8691 94.6364C58.6949 94.9621 58.6078 95.3561 58.6078 95.8182ZM69.5928 101.176C68.7329 101.176 67.9924 100.992 67.3712 100.625C66.7538 100.254 66.2765 99.733 65.9394 99.0625C65.606 98.3883 65.4394 97.5985 65.4394 96.6932C65.4394 95.7992 65.606 95.0114 65.9394 94.3295C66.2765 93.6477 66.7462 93.1155 67.3485 92.733C67.9545 92.3504 68.6629 92.1591 69.4735 92.1591C69.9659 92.1591 70.4432 92.2405 70.9053 92.4034C71.3674 92.5663 71.7822 92.822 72.1496 93.1705C72.517 93.5189 72.8068 93.9716 73.0189 94.5284C73.231 95.0814 73.3371 95.7538 73.3371 96.5455V97.1477H66.3996V95.875H71.6723C71.6723 95.428 71.5814 95.0322 71.3996 94.6875C71.2178 94.339 70.9621 94.0644 70.6326 93.8636C70.3068 93.6629 69.9242 93.5625 69.4848 93.5625C69.0076 93.5625 68.5909 93.6799 68.2348 93.9148C67.8826 94.1458 67.6098 94.4489 67.4166 94.8239C67.2273 95.1951 67.1326 95.5985 67.1326 96.0341V97.0284C67.1326 97.6117 67.2348 98.108 67.4394 98.517C67.6477 98.9261 67.9375 99.2386 68.3087 99.4545C68.6799 99.6667 69.1136 99.7727 69.6098 99.7727C69.9318 99.7727 70.2254 99.7273 70.4905 99.6364C70.7557 99.5417 70.9848 99.4015 71.178 99.2159C71.3712 99.0303 71.5189 98.8011 71.6212 98.5284L73.2291 98.8182C73.1004 99.2917 72.8693 99.7064 72.536 100.062C72.2064 100.415 71.7916 100.689 71.2916 100.886C70.7954 101.08 70.2291 101.176 69.5928 101.176ZM74.582 101V92.2727H76.2241V93.6591H76.315C76.4741 93.1894 76.7544 92.8201 77.1559 92.5511C77.5612 92.2784 78.0195 92.142 78.5309 92.142C78.637 92.142 78.762 92.1458 78.9059 92.1534C79.0536 92.161 79.1692 92.1705 79.2525 92.1818V93.8068C79.1843 93.7879 79.0631 93.767 78.8889 93.7443C78.7146 93.7178 78.5404 93.7045 78.3661 93.7045C77.9646 93.7045 77.6067 93.7898 77.2923 93.9602C76.9817 94.1269 76.7355 94.3598 76.5536 94.6591C76.3718 94.9545 76.2809 95.2917 76.2809 95.6705V101H74.582ZM87.8142 92.2727L84.6494 101H82.8313L79.6608 92.2727H81.4847L83.6949 98.9886H83.7858L85.9903 92.2727H87.8142ZM92.1501 101.176C91.3319 101.176 90.6179 100.989 90.008 100.614C89.3982 100.239 88.9247 99.714 88.5876 99.0398C88.2504 98.3655 88.0819 97.5777 88.0819 96.6761C88.0819 95.7708 88.2504 94.9792 88.5876 94.3011C88.9247 93.6231 89.3982 93.0966 90.008 92.7216C90.6179 92.3466 91.3319 92.1591 92.1501 92.1591C92.9682 92.1591 93.6823 92.3466 94.2921 92.7216C94.902 93.0966 95.3754 93.6231 95.7126 94.3011C96.0497 94.9792 96.2182 95.7708 96.2182 96.6761C96.2182 97.5777 96.0497 98.3655 95.7126 99.0398C95.3754 99.714 94.902 100.239 94.2921 100.614C93.6823 100.989 92.9682 101.176 92.1501 101.176ZM92.1557 99.75C92.686 99.75 93.1254 99.6098 93.4739 99.3295C93.8224 99.0492 94.08 98.6761 94.2467 98.2102C94.4171 97.7443 94.5023 97.2311 94.5023 96.6705C94.5023 96.1136 94.4171 95.6023 94.2467 95.1364C94.08 94.6667 93.8224 94.2898 93.4739 94.0057C93.1254 93.7216 92.686 93.5795 92.1557 93.5795C91.6217 93.5795 91.1785 93.7216 90.8262 94.0057C90.4777 94.2898 90.2182 94.6667 90.0478 95.1364C89.8811 95.6023 89.7978 96.1136 89.7978 96.6705C89.7978 97.2311 89.8811 97.7443 90.0478 98.2102C90.2182 98.6761 90.4777 99.0492 90.8262 99.3295C91.1785 99.6098 91.6217 99.75 92.1557 99.75ZM103.003 97.3807V92.2727H104.708V101H103.037V99.4886H102.946C102.745 99.9545 102.423 100.343 101.98 100.653C101.541 100.96 100.993 101.114 100.338 101.114C99.7776 101.114 99.2814 100.991 98.8495 100.744C98.4215 100.494 98.0844 100.125 97.8382 99.6364C97.5958 99.1477 97.4745 98.5436 97.4745 97.8239V92.2727H99.1734V97.6193C99.1734 98.214 99.3382 98.6875 99.6677 99.0398C99.9973 99.392 100.425 99.5682 100.952 99.5682C101.27 99.5682 101.586 99.4886 101.901 99.3295C102.219 99.1705 102.482 98.9299 102.69 98.608C102.903 98.286 103.007 97.8769 103.003 97.3807ZM112.89 94.4034L111.35 94.6761C111.286 94.4792 111.184 94.2917 111.043 94.1136C110.907 93.9356 110.721 93.7898 110.487 93.6761C110.252 93.5625 109.958 93.5057 109.606 93.5057C109.125 93.5057 108.723 93.6136 108.401 93.8295C108.079 94.0417 107.918 94.3163 107.918 94.6534C107.918 94.9451 108.026 95.1799 108.242 95.358C108.458 95.536 108.807 95.6818 109.288 95.7955L110.674 96.1136C111.477 96.2992 112.076 96.5852 112.469 96.9716C112.863 97.358 113.06 97.8598 113.06 98.4773C113.06 99 112.909 99.4659 112.606 99.875C112.307 100.28 111.888 100.598 111.35 100.83C110.816 101.061 110.197 101.176 109.492 101.176C108.515 101.176 107.718 100.968 107.1 100.551C106.483 100.131 106.104 99.5341 105.964 98.7614L107.606 98.5114C107.708 98.9394 107.918 99.2633 108.237 99.483C108.555 99.6989 108.969 99.8068 109.481 99.8068C110.038 99.8068 110.483 99.6913 110.816 99.4602C111.149 99.2254 111.316 98.9394 111.316 98.6023C111.316 98.3295 111.214 98.1004 111.009 97.9148C110.809 97.7292 110.5 97.589 110.083 97.4943L108.606 97.1705C107.791 96.9848 107.189 96.6894 106.799 96.2841C106.413 95.8788 106.219 95.3655 106.219 94.7443C106.219 94.2292 106.363 93.7784 106.651 93.392C106.939 93.0057 107.337 92.7045 107.844 92.4886C108.352 92.2689 108.934 92.1591 109.589 92.1591C110.532 92.1591 111.274 92.3636 111.816 92.7727C112.358 93.178 112.716 93.7216 112.89 94.4034ZM124.422 94.4034L122.883 94.6761C122.818 94.4792 122.716 94.2917 122.576 94.1136C122.439 93.9356 122.254 93.7898 122.019 93.6761C121.784 93.5625 121.491 93.5057 121.138 93.5057C120.657 93.5057 120.256 93.6136 119.934 93.8295C119.612 94.0417 119.451 94.3163 119.451 94.6534C119.451 94.9451 119.559 95.1799 119.775 95.358C119.991 95.536 120.339 95.6818 120.82 95.7955L122.207 96.1136C123.01 96.2992 123.608 96.5852 124.002 96.9716C124.396 97.358 124.593 97.8598 124.593 98.4773C124.593 99 124.441 99.4659 124.138 99.875C123.839 100.28 123.421 100.598 122.883 100.83C122.349 101.061 121.729 101.176 121.025 101.176C120.047 101.176 119.25 100.968 118.633 100.551C118.015 100.131 117.636 99.5341 117.496 98.7614L119.138 98.5114C119.241 98.9394 119.451 99.2633 119.769 99.483C120.087 99.6989 120.502 99.8068 121.013 99.8068C121.57 99.8068 122.015 99.6913 122.349 99.4602C122.682 99.2254 122.849 98.9394 122.849 98.6023C122.849 98.3295 122.746 98.1004 122.542 97.9148C122.341 97.7292 122.032 97.589 121.616 97.4943L120.138 97.1705C119.324 96.9848 118.722 96.6894 118.332 96.2841C117.945 95.8788 117.752 95.3655 117.752 94.7443C117.752 94.2292 117.896 93.7784 118.184 93.392C118.472 93.0057 118.869 92.7045 119.377 92.4886C119.885 92.2689 120.466 92.1591 121.121 92.1591C122.064 92.1591 122.807 92.3636 123.349 92.7727C123.89 93.178 124.248 93.7216 124.422 94.4034ZM126.895 104.273C126.641 104.273 126.41 104.252 126.201 104.21C125.993 104.172 125.838 104.131 125.736 104.085L126.145 102.693C126.455 102.777 126.732 102.813 126.974 102.801C127.217 102.79 127.431 102.699 127.616 102.528C127.806 102.358 127.972 102.08 128.116 101.693L128.326 101.114L125.133 92.2727H126.951L129.162 99.0455H129.253L131.463 92.2727H133.287L129.69 102.165C129.523 102.619 129.311 103.004 129.054 103.318C128.796 103.636 128.489 103.875 128.133 104.034C127.777 104.193 127.364 104.273 126.895 104.273ZM140.783 94.4034L139.243 94.6761C139.179 94.4792 139.077 94.2917 138.936 94.1136C138.8 93.9356 138.615 93.7898 138.38 93.6761C138.145 93.5625 137.851 93.5057 137.499 93.5057C137.018 93.5057 136.616 93.6136 136.294 93.8295C135.972 94.0417 135.811 94.3163 135.811 94.6534C135.811 94.9451 135.919 95.1799 136.135 95.358C136.351 95.536 136.7 95.6818 137.181 95.7955L138.567 96.1136C139.37 96.2992 139.969 96.5852 140.363 96.9716C140.757 97.358 140.954 97.8598 140.954 98.4773C140.954 99 140.802 99.4659 140.499 99.875C140.2 100.28 139.781 100.598 139.243 100.83C138.709 101.061 138.09 101.176 137.385 101.176C136.408 101.176 135.611 100.968 134.993 100.551C134.376 100.131 133.997 99.5341 133.857 98.7614L135.499 98.5114C135.601 98.9394 135.811 99.2633 136.13 99.483C136.448 99.6989 136.863 99.8068 137.374 99.8068C137.931 99.8068 138.376 99.6913 138.709 99.4602C139.043 99.2254 139.209 98.9394 139.209 98.6023C139.209 98.3295 139.107 98.1004 138.902 97.9148C138.702 97.7292 138.393 97.589 137.976 97.4943L136.499 97.1705C135.685 96.9848 135.082 96.6894 134.692 96.2841C134.306 95.8788 134.113 95.3655 134.113 94.7443C134.113 94.2292 134.257 93.7784 134.544 93.392C134.832 93.0057 135.23 92.7045 135.738 92.4886C136.245 92.2689 136.827 92.1591 137.482 92.1591C138.425 92.1591 139.168 92.3636 139.709 92.7727C140.251 93.178 140.609 93.7216 140.783 94.4034ZM146.255 92.2727V93.6364H141.488V92.2727H146.255ZM142.767 90.1818H144.466V98.4375C144.466 98.767 144.515 99.0152 144.613 99.1818C144.712 99.3447 144.839 99.4564 144.994 99.517C145.153 99.5739 145.325 99.6023 145.511 99.6023C145.647 99.6023 145.767 99.5928 145.869 99.5739C145.971 99.5549 146.051 99.5398 146.108 99.5284L146.414 100.932C146.316 100.97 146.176 101.008 145.994 101.045C145.812 101.087 145.585 101.11 145.312 101.114C144.865 101.121 144.448 101.042 144.062 100.875C143.676 100.708 143.363 100.451 143.125 100.102C142.886 99.7538 142.767 99.3163 142.767 98.7898V90.1818ZM151.162 101.176C150.302 101.176 149.562 100.992 148.941 100.625C148.323 100.254 147.846 99.733 147.509 99.0625C147.175 98.3883 147.009 97.5985 147.009 96.6932C147.009 95.7992 147.175 95.0114 147.509 94.3295C147.846 93.6477 148.316 93.1155 148.918 92.733C149.524 92.3504 150.232 92.1591 151.043 92.1591C151.535 92.1591 152.013 92.2405 152.475 92.4034C152.937 92.5663 153.352 92.822 153.719 93.1705C154.086 93.5189 154.376 93.9716 154.588 94.5284C154.8 95.0814 154.906 95.7538 154.906 96.5455V97.1477H147.969V95.875H153.242C153.242 95.428 153.151 95.0322 152.969 94.6875C152.787 94.339 152.531 94.0644 152.202 93.8636C151.876 93.6629 151.494 93.5625 151.054 93.5625C150.577 93.5625 150.16 93.6799 149.804 93.9148C149.452 94.1458 149.179 94.4489 148.986 94.8239C148.797 95.1951 148.702 95.5985 148.702 96.0341V97.0284C148.702 97.6117 148.804 98.108 149.009 98.517C149.217 98.9261 149.507 99.2386 149.878 99.4545C150.249 99.6667 150.683 99.7727 151.179 99.7727C151.501 99.7727 151.795 99.7273 152.06 99.6364C152.325 99.5417 152.554 99.4015 152.747 99.2159C152.941 99.0303 153.088 98.8011 153.191 98.5284L154.799 98.8182C154.67 99.2917 154.439 99.7064 154.105 100.062C153.776 100.415 153.361 100.689 152.861 100.886C152.365 101.08 151.799 101.176 151.162 101.176ZM156.151 101V92.2727H157.782V93.6932H157.89C158.072 93.2121 158.369 92.8371 158.782 92.5682C159.195 92.2955 159.689 92.1591 160.265 92.1591C160.848 92.1591 161.337 92.2955 161.731 92.5682C162.129 92.8409 162.422 93.2159 162.612 93.6932H162.703C162.911 93.2273 163.242 92.8561 163.697 92.5795C164.151 92.2992 164.693 92.1591 165.322 92.1591C166.114 92.1591 166.759 92.4072 167.259 92.9034C167.763 93.3996 168.015 94.1477 168.015 95.1477V101H166.316V95.3068C166.316 94.7159 166.155 94.2879 165.833 94.0227C165.511 93.7576 165.127 93.625 164.68 93.625C164.127 93.625 163.697 93.7955 163.39 94.1364C163.083 94.4735 162.93 94.9072 162.93 95.4375V101H161.237V95.1989C161.237 94.7254 161.089 94.3447 160.793 94.0568C160.498 93.7689 160.114 93.625 159.64 93.625C159.318 93.625 159.021 93.7102 158.748 93.8807C158.479 94.0473 158.261 94.2803 158.095 94.5795C157.932 94.8788 157.85 95.2254 157.85 95.6193V101H156.151ZM179.786 94.4034L178.246 94.6761C178.182 94.4792 178.08 94.2917 177.94 94.1136C177.803 93.9356 177.618 93.7898 177.383 93.6761C177.148 93.5625 176.854 93.5057 176.502 93.5057C176.021 93.5057 175.62 93.6136 175.298 93.8295C174.976 94.0417 174.815 94.3163 174.815 94.6534C174.815 94.9451 174.923 95.1799 175.138 95.358C175.354 95.536 175.703 95.6818 176.184 95.7955L177.57 96.1136C178.373 96.2992 178.972 96.5852 179.366 96.9716C179.76 97.358 179.957 97.8598 179.957 98.4773C179.957 99 179.805 99.4659 179.502 99.875C179.203 100.28 178.784 100.598 178.246 100.83C177.712 101.061 177.093 101.176 176.388 101.176C175.411 101.176 174.614 100.968 173.996 100.551C173.379 100.131 173 99.5341 172.86 98.7614L174.502 98.5114C174.604 98.9394 174.815 99.2633 175.133 99.483C175.451 99.6989 175.866 99.8068 176.377 99.8068C176.934 99.8068 177.379 99.6913 177.712 99.4602C178.046 99.2254 178.212 98.9394 178.212 98.6023C178.212 98.3295 178.11 98.1004 177.906 97.9148C177.705 97.7292 177.396 97.589 176.979 97.4943L175.502 97.1705C174.688 96.9848 174.085 96.6894 173.695 96.2841C173.309 95.8788 173.116 95.3655 173.116 94.7443C173.116 94.2292 173.26 93.7784 173.548 93.392C173.835 93.0057 174.233 92.7045 174.741 92.4886C175.248 92.2689 175.83 92.1591 176.485 92.1591C177.428 92.1591 178.171 92.3636 178.712 92.7727C179.254 93.178 179.612 93.7216 179.786 94.4034ZM185.258 92.2727V93.6364H180.491V92.2727H185.258ZM181.77 90.1818H183.469V98.4375C183.469 98.767 183.518 99.0152 183.616 99.1818C183.715 99.3447 183.842 99.4564 183.997 99.517C184.156 99.5739 184.328 99.6023 184.514 99.6023C184.65 99.6023 184.77 99.5928 184.872 99.5739C184.974 99.5549 185.054 99.5398 185.111 99.5284L185.418 100.932C185.319 100.97 185.179 101.008 184.997 101.045C184.815 101.087 184.588 101.11 184.315 101.114C183.868 101.121 183.452 101.042 183.065 100.875C182.679 100.708 182.366 100.451 182.128 100.102C181.889 99.7538 181.77 99.3163 181.77 98.7898V90.1818ZM186.498 101V92.2727H188.14V93.6591H188.231C188.39 93.1894 188.67 92.8201 189.072 92.5511C189.477 92.2784 189.935 92.142 190.447 92.142C190.553 92.142 190.678 92.1458 190.822 92.1534C190.969 92.161 191.085 92.1705 191.168 92.1818V93.8068C191.1 93.7879 190.979 93.767 190.804 93.7443C190.63 93.7178 190.456 93.7045 190.282 93.7045C189.88 93.7045 189.522 93.7898 189.208 93.9602C188.897 94.1269 188.651 94.3598 188.469 94.6591C188.287 94.9545 188.197 95.2917 188.197 95.6705V101H186.498ZM195.362 101.176C194.544 101.176 193.83 100.989 193.22 100.614C192.61 100.239 192.137 99.714 191.799 99.0398C191.462 98.3655 191.294 97.5777 191.294 96.6761C191.294 95.7708 191.462 94.9792 191.799 94.3011C192.137 93.6231 192.61 93.0966 193.22 92.7216C193.83 92.3466 194.544 92.1591 195.362 92.1591C196.18 92.1591 196.894 92.3466 197.504 92.7216C198.114 93.0966 198.587 93.6231 198.924 94.3011C199.262 94.9792 199.43 95.7708 199.43 96.6761C199.43 97.5777 199.262 98.3655 198.924 99.0398C198.587 99.714 198.114 100.239 197.504 100.614C196.894 100.989 196.18 101.176 195.362 101.176ZM195.368 99.75C195.898 99.75 196.337 99.6098 196.686 99.3295C197.034 99.0492 197.292 98.6761 197.459 98.2102C197.629 97.7443 197.714 97.2311 197.714 96.6705C197.714 96.1136 197.629 95.6023 197.459 95.1364C197.292 94.6667 197.034 94.2898 196.686 94.0057C196.337 93.7216 195.898 93.5795 195.368 93.5795C194.834 93.5795 194.39 93.7216 194.038 94.0057C193.69 94.2898 193.43 94.6667 193.26 95.1364C193.093 95.6023 193.01 96.1136 193.01 96.6705C193.01 97.2311 193.093 97.7443 193.26 98.2102C193.43 98.6761 193.69 99.0492 194.038 99.3295C194.39 99.6098 194.834 99.75 195.368 99.75ZM202.385 95.8182V101H200.686V92.2727H202.317V93.6932H202.425C202.626 93.2311 202.94 92.8598 203.368 92.5795C203.8 92.2992 204.344 92.1591 204.999 92.1591C205.594 92.1591 206.114 92.2841 206.561 92.5341C207.008 92.7803 207.355 93.1477 207.601 93.6364C207.847 94.125 207.971 94.7292 207.971 95.4489V101H206.272V95.6534C206.272 95.0208 206.107 94.5265 205.777 94.1705C205.448 93.8106 204.995 93.6307 204.419 93.6307C204.025 93.6307 203.675 93.7159 203.368 93.8864C203.065 94.0568 202.825 94.3068 202.647 94.6364C202.472 94.9621 202.385 95.3561 202.385 95.8182ZM213.268 104.455C212.575 104.455 211.978 104.364 211.478 104.182C210.982 104 210.577 103.759 210.262 103.46C209.948 103.161 209.713 102.833 209.558 102.477L211.018 101.875C211.12 102.042 211.257 102.218 211.427 102.403C211.601 102.593 211.836 102.754 212.132 102.886C212.431 103.019 212.815 103.085 213.285 103.085C213.929 103.085 214.461 102.928 214.882 102.614C215.302 102.303 215.512 101.807 215.512 101.125V99.4091H215.404C215.302 99.5947 215.154 99.8011 214.961 100.028C214.772 100.256 214.51 100.453 214.177 100.619C213.844 100.786 213.41 100.869 212.876 100.869C212.187 100.869 211.565 100.708 211.012 100.386C210.463 100.061 210.027 99.5814 209.706 98.9489C209.387 98.3125 209.228 97.5303 209.228 96.6023C209.228 95.6742 209.385 94.8788 209.7 94.2159C210.018 93.553 210.454 93.0455 211.007 92.6932C211.56 92.3371 212.187 92.1591 212.887 92.1591C213.429 92.1591 213.866 92.25 214.2 92.4318C214.533 92.6098 214.793 92.8182 214.978 93.0568C215.168 93.2955 215.313 93.5057 215.416 93.6875H215.541V92.2727H217.206V101.193C217.206 101.943 217.031 102.559 216.683 103.04C216.334 103.521 215.863 103.877 215.268 104.108C214.677 104.339 214.01 104.455 213.268 104.455ZM213.251 99.4602C213.74 99.4602 214.152 99.3466 214.49 99.1193C214.831 98.8883 215.088 98.5587 215.262 98.1307C215.44 97.6989 215.529 97.1818 215.529 96.5795C215.529 95.9924 215.442 95.4754 215.268 95.0284C215.094 94.5814 214.838 94.233 214.501 93.983C214.164 93.7292 213.747 93.6023 213.251 93.6023C212.74 93.6023 212.313 93.7348 211.973 94C211.632 94.2614 211.374 94.6174 211.2 95.0682C211.029 95.5189 210.944 96.0227 210.944 96.5795C210.944 97.1515 211.031 97.6534 211.206 98.0852C211.38 98.517 211.637 98.8542 211.978 99.0966C212.323 99.339 212.747 99.4602 213.251 99.4602ZM219.963 101.108C219.653 101.108 219.386 100.998 219.162 100.778C218.939 100.555 218.827 100.286 218.827 99.9716C218.827 99.661 218.939 99.3958 219.162 99.1761C219.386 98.9527 219.653 98.8409 219.963 98.8409C220.274 98.8409 220.541 98.9527 220.764 99.1761C220.988 99.3958 221.1 99.661 221.1 99.9716C221.1 100.18 221.047 100.371 220.941 100.545C220.838 100.716 220.702 100.852 220.531 100.955C220.361 101.057 220.172 101.108 219.963 101.108Z" fill="black"/>
</svg>
