<svg width="256" height="96" viewBox="0 0 256 96" fill="none" xmlns="http://www.w3.org/2000/svg">
<rect x="10" y="10" width="235.875" height="75.5224" rx="4" fill="#DBEAFE"/>
<path d="M3.67383 3.43262H20.4264" stroke="#DBEAFE" stroke-width="3" stroke-linecap="round"/>
<path d="M3.67383 3.43262L3.67383 15.6062" stroke="#DBEAFE" stroke-width="3" stroke-linecap="round"/>
<path d="M26.7193 31.4326H22.9522V19.7963H26.8386C27.9788 19.7963 28.9579 20.0292 29.7761 20.4951C30.5943 20.9572 31.2212 21.622 31.6568 22.4894C32.0962 23.3531 32.3159 24.3891 32.3159 25.5974C32.3159 26.8095 32.0943 27.8512 31.6511 28.7224C31.2117 29.5936 30.5753 30.2641 29.742 30.7338C28.9087 31.1997 27.9011 31.4326 26.7193 31.4326ZM24.7079 29.8985H26.6227C27.5091 29.8985 28.2458 29.7319 28.8329 29.3985C29.42 29.0614 29.8594 28.5747 30.1511 27.9383C30.4428 27.2981 30.5886 26.5178 30.5886 25.5974C30.5886 24.6845 30.4428 23.9099 30.1511 23.2735C29.8632 22.6372 29.4333 22.1542 28.8613 21.8247C28.2894 21.4951 27.5791 21.3303 26.7306 21.3303H24.7079V29.8985ZM33.7227 31.4326V22.7053H35.3648V24.0917H35.4557C35.6148 23.622 35.8951 23.2527 36.2966 22.9838C36.7019 22.711 37.1602 22.5747 37.6716 22.5747C37.7777 22.5747 37.9027 22.5785 38.0466 22.586C38.1943 22.5936 38.3099 22.6031 38.3932 22.6144V24.2394C38.325 24.2205 38.2038 24.1997 38.0296 24.1769C37.8553 24.1504 37.6811 24.1372 37.5068 24.1372C37.1053 24.1372 36.7474 24.2224 36.433 24.3928C36.1224 24.5595 35.8762 24.7925 35.6943 25.0917C35.5125 25.3872 35.4216 25.7243 35.4216 26.1031V31.4326H33.7227ZM41.685 31.6258C41.132 31.6258 40.632 31.5235 40.185 31.319C39.7381 31.1106 39.3839 30.8095 39.1225 30.4156C38.8649 30.0216 38.7362 29.5387 38.7362 28.9667C38.7362 28.4743 38.8309 28.069 39.0202 27.7508C39.2096 27.4326 39.4653 27.1807 39.7873 26.9951C40.1093 26.8095 40.4691 26.6694 40.8668 26.5747C41.2646 26.48 41.6699 26.408 42.0827 26.3588C42.6055 26.2981 43.0297 26.2489 43.3555 26.211C43.6812 26.1694 43.918 26.1031 44.0657 26.0122C44.2134 25.9213 44.2873 25.7735 44.2873 25.569V25.5292C44.2873 25.033 44.1471 24.6485 43.8668 24.3758C43.5903 24.1031 43.1774 23.9667 42.6282 23.9667C42.0562 23.9667 41.6055 24.0936 41.2759 24.3474C40.9502 24.5974 40.7248 24.8758 40.5998 25.1826L39.0032 24.819C39.1926 24.2887 39.4691 23.8606 39.8327 23.5349C40.2002 23.2053 40.6225 22.9667 41.0998 22.819C41.5771 22.6675 42.079 22.5917 42.6055 22.5917C42.954 22.5917 43.3233 22.6334 43.7134 22.7167C44.1074 22.7963 44.4748 22.944 44.8157 23.1599C45.1604 23.3758 45.4426 23.6845 45.6623 24.086C45.882 24.4838 45.9918 25.0008 45.9918 25.6372V31.4326H44.3327V30.2394H44.2646C44.1547 30.4591 43.9899 30.675 43.7702 30.8872C43.5506 31.0993 43.2684 31.2754 42.9237 31.4156C42.579 31.5557 42.1661 31.6258 41.685 31.6258ZM42.0543 30.2622C42.524 30.2622 42.9256 30.1694 43.2589 29.9838C43.596 29.7981 43.8517 29.5557 44.0259 29.2565C44.204 28.9535 44.293 28.6296 44.293 28.2849V27.1599C44.2324 27.2205 44.1149 27.2773 43.9407 27.3303C43.7702 27.3796 43.5752 27.4231 43.3555 27.461C43.1358 27.4951 42.9218 27.5273 42.7134 27.5576C42.5051 27.5841 42.3309 27.6069 42.1907 27.6258C41.8612 27.6675 41.56 27.7375 41.2873 27.836C41.0184 27.9345 40.8024 28.0766 40.6396 28.2622C40.4805 28.444 40.4009 28.6864 40.4009 28.9894C40.4009 29.4099 40.5562 29.7281 40.8668 29.944C41.1774 30.1561 41.5733 30.2622 42.0543 30.2622ZM51.2737 34.8872C50.5805 34.8872 49.9839 34.7963 49.4839 34.6144C48.9877 34.4326 48.5824 34.1921 48.268 33.8928C47.9536 33.5936 47.7188 33.266 47.5635 32.9099L49.0237 32.3076C49.126 32.4743 49.2624 32.6504 49.4328 32.836C49.607 33.0254 49.8419 33.1864 50.1374 33.319C50.4366 33.4516 50.8211 33.5178 51.2908 33.5178C51.9347 33.5178 52.4669 33.3606 52.8874 33.0463C53.3078 32.7356 53.518 32.2394 53.518 31.5576V29.8417H53.4101C53.3078 30.0273 53.1601 30.2338 52.9669 30.461C52.7775 30.6883 52.5161 30.8853 52.1828 31.0519C51.8495 31.2186 51.4158 31.3019 50.8817 31.3019C50.1923 31.3019 49.5711 31.141 49.018 30.819C48.4688 30.4932 48.0332 30.0141 47.7112 29.3815C47.393 28.7451 47.2339 27.9629 47.2339 27.0349C47.2339 26.1069 47.3911 25.3114 47.7055 24.6485C48.0237 23.9856 48.4593 23.4781 49.0124 23.1258C49.5654 22.7697 50.1923 22.5917 50.893 22.5917C51.4347 22.5917 51.8722 22.6826 52.2055 22.8644C52.5389 23.0425 52.7983 23.2508 52.9839 23.4894C53.1733 23.7281 53.3192 23.9383 53.4214 24.1201H53.5464V22.7053H55.2112V31.6258C55.2112 32.3758 55.037 32.9913 54.6885 33.4724C54.34 33.9535 53.8684 34.3095 53.2737 34.5406C52.6828 34.7716 52.0161 34.8872 51.2737 34.8872ZM51.2567 29.8928C51.7453 29.8928 52.1582 29.7792 52.4953 29.5519C52.8362 29.3209 53.0938 28.9913 53.268 28.5633C53.4461 28.1315 53.5351 27.6144 53.5351 27.0122C53.5351 26.425 53.448 25.908 53.2737 25.461C53.0995 25.0141 52.8438 24.6656 52.5067 24.4156C52.1695 24.1618 51.7529 24.0349 51.2567 24.0349C50.7453 24.0349 50.3192 24.1675 49.9783 24.4326C49.6374 24.694 49.3798 25.05 49.2055 25.5008C49.0351 25.9516 48.9499 26.4553 48.9499 27.0122C48.9499 27.5841 49.037 28.086 49.2112 28.5178C49.3855 28.9497 49.643 29.2868 49.9839 29.5292C50.3286 29.7716 50.7529 29.8928 51.2567 29.8928ZM64.1201 31.6088C63.302 31.6088 62.5879 31.4213 61.9781 31.0463C61.3682 30.6713 60.8948 30.1466 60.5576 29.4724C60.2205 28.7981 60.052 28.0103 60.052 27.1088C60.052 26.2035 60.2205 25.4118 60.5576 24.7338C60.8948 24.0557 61.3682 23.5292 61.9781 23.1542C62.5879 22.7792 63.302 22.5917 64.1201 22.5917C64.9383 22.5917 65.6523 22.7792 66.2622 23.1542C66.872 23.5292 67.3455 24.0557 67.6826 24.7338C68.0198 25.4118 68.1883 26.2035 68.1883 27.1088C68.1883 28.0103 68.0198 28.7981 67.6826 29.4724C67.3455 30.1466 66.872 30.6713 66.2622 31.0463C65.6523 31.4213 64.9383 31.6088 64.1201 31.6088ZM64.1258 30.1826C64.6561 30.1826 65.0955 30.0425 65.444 29.7622C65.7925 29.4819 66.0501 29.1088 66.2167 28.6428C66.3872 28.1769 66.4724 27.6637 66.4724 27.1031C66.4724 26.5463 66.3872 26.0349 66.2167 25.569C66.0501 25.0993 65.7925 24.7224 65.444 24.4383C65.0955 24.1542 64.6561 24.0122 64.1258 24.0122C63.5917 24.0122 63.1485 24.1542 62.7963 24.4383C62.4478 24.7224 62.1883 25.0993 62.0179 25.569C61.8512 26.0349 61.7679 26.5463 61.7679 27.1031C61.7679 27.6637 61.8512 28.1769 62.0179 28.6428C62.1883 29.1088 62.4478 29.4819 62.7963 29.7622C63.1485 30.0425 63.5917 30.1826 64.1258 30.1826ZM71.1435 26.2508V31.4326H69.4446V22.7053H71.0753V24.1258H71.1833C71.384 23.6637 71.6984 23.2925 72.1264 23.0122C72.5583 22.7319 73.1018 22.5917 73.7571 22.5917C74.3518 22.5917 74.8727 22.7167 75.3196 22.9667C75.7666 23.2129 76.1132 23.5803 76.3594 24.069C76.6056 24.5576 76.7287 25.1618 76.7287 25.8815V31.4326H75.0299V26.086C75.0299 25.4535 74.8651 24.9591 74.5355 24.6031C74.206 24.2432 73.7533 24.0633 73.1776 24.0633C72.7836 24.0633 72.4333 24.1485 72.1264 24.319C71.8234 24.4894 71.5829 24.7394 71.4049 25.069C71.2306 25.3947 71.1435 25.7887 71.1435 26.2508ZM86.0354 22.7053V24.069H81.2683V22.7053H86.0354ZM82.5467 20.6144H84.2456V28.8701C84.2456 29.1997 84.2948 29.4478 84.3933 29.6144C84.4918 29.7773 84.6187 29.8891 84.774 29.9497C84.9331 30.0065 85.1054 30.0349 85.291 30.0349C85.4274 30.0349 85.5467 30.0254 85.649 30.0065C85.7513 29.9875 85.8308 29.9724 85.8876 29.961L86.1945 31.3644C86.096 31.4023 85.9558 31.4402 85.774 31.4781C85.5922 31.5197 85.3649 31.5425 85.0922 31.5463C84.6452 31.5538 84.2285 31.4743 83.8422 31.3076C83.4558 31.141 83.1433 30.8834 82.9047 30.5349C82.666 30.1864 82.5467 29.7489 82.5467 29.2224V20.6144ZM89.161 26.2508V31.4326H87.4621V19.7963H89.1383V24.1258H89.2462C89.4508 23.6561 89.7633 23.283 90.1837 23.0065C90.6042 22.73 91.1534 22.5917 91.8314 22.5917C92.4299 22.5917 92.9527 22.7148 93.3996 22.961C93.8504 23.2072 94.1989 23.5747 94.4451 24.0633C94.6951 24.5481 94.8201 25.1542 94.8201 25.8815V31.4326H93.1212V26.086C93.1212 25.4459 92.9564 24.9497 92.6269 24.5974C92.2973 24.2413 91.839 24.0633 91.2519 24.0633C90.8504 24.0633 90.4905 24.1485 90.1723 24.319C89.858 24.4894 89.6098 24.7394 89.428 25.069C89.25 25.3947 89.161 25.7887 89.161 26.2508ZM100.208 31.6088C99.3486 31.6088 98.6081 31.425 97.9869 31.0576C97.3695 30.6864 96.8922 30.1656 96.5551 29.4951C96.2217 28.8209 96.0551 28.0311 96.0551 27.1258C96.0551 26.2319 96.2217 25.444 96.5551 24.7622C96.8922 24.0803 97.3619 23.5481 97.9642 23.1656C98.5702 22.783 99.2786 22.5917 100.089 22.5917C100.582 22.5917 101.059 22.6731 101.521 22.836C101.983 22.9989 102.398 23.2546 102.765 23.6031C103.133 23.9516 103.423 24.4042 103.635 24.961C103.847 25.5141 103.953 26.1864 103.953 26.9781V27.5803H97.0153V26.3076H102.288C102.288 25.8606 102.197 25.4648 102.015 25.1201C101.833 24.7716 101.578 24.497 101.248 24.2963C100.923 24.0955 100.54 23.9951 100.101 23.9951C99.6233 23.9951 99.2066 24.1125 98.8505 24.3474C98.4983 24.5785 98.2255 24.8815 98.0323 25.2565C97.843 25.6277 97.7483 26.0311 97.7483 26.4667V27.461C97.7483 28.0444 97.8505 28.5406 98.0551 28.9497C98.2634 29.3588 98.5532 29.6713 98.9244 29.8872C99.2956 30.0993 99.7293 30.2053 100.226 30.2053C100.548 30.2053 100.841 30.1599 101.106 30.069C101.371 29.9743 101.601 29.8341 101.794 29.6485C101.987 29.4629 102.135 29.2338 102.237 28.961L103.845 29.2508C103.716 29.7243 103.485 30.1391 103.152 30.4951C102.822 30.8474 102.407 31.122 101.907 31.319C101.411 31.5122 100.845 31.6088 100.208 31.6088ZM108.792 34.7053V22.7053H110.451V24.1201H110.593C110.692 23.9383 110.834 23.7281 111.019 23.4894C111.205 23.2508 111.463 23.0425 111.792 22.8644C112.122 22.6826 112.557 22.5917 113.099 22.5917C113.803 22.5917 114.432 22.7697 114.985 23.1258C115.538 23.4819 115.972 23.9951 116.286 24.6656C116.605 25.336 116.764 26.1428 116.764 27.086C116.764 28.0292 116.607 28.8379 116.292 29.5122C115.978 30.1826 115.546 30.6997 114.997 31.0633C114.447 31.4231 113.821 31.6031 113.116 31.6031C112.586 31.6031 112.152 31.5141 111.815 31.336C111.482 31.158 111.22 30.9497 111.031 30.711C110.841 30.4724 110.696 30.2603 110.593 30.0747H110.491V34.7053H108.792ZM110.457 27.069C110.457 27.6826 110.546 28.2205 110.724 28.6826C110.902 29.1447 111.16 29.5065 111.497 29.7678C111.834 30.0254 112.247 30.1542 112.735 30.1542C113.243 30.1542 113.667 30.0197 114.008 29.7508C114.349 29.4781 114.607 29.1088 114.781 28.6428C114.959 28.1769 115.048 27.6523 115.048 27.069C115.048 26.4932 114.961 25.9762 114.786 25.5178C114.616 25.0595 114.358 24.6978 114.014 24.4326C113.673 24.1675 113.247 24.0349 112.735 24.0349C112.243 24.0349 111.826 24.1618 111.485 24.4156C111.148 24.6694 110.893 25.0235 110.718 25.4781C110.544 25.9326 110.457 26.4629 110.457 27.069ZM118.027 31.4326V22.7053H119.726V31.4326H118.027ZM118.885 21.3588C118.59 21.3588 118.336 21.2603 118.124 21.0633C117.915 20.8625 117.811 20.6239 117.811 20.3474C117.811 20.0671 117.915 19.8285 118.124 19.6315C118.336 19.4307 118.59 19.3303 118.885 19.3303C119.181 19.3303 119.432 19.4307 119.641 19.6315C119.853 19.8285 119.959 20.0671 119.959 20.3474C119.959 20.6239 119.853 20.8625 119.641 21.0633C119.432 21.2603 119.181 21.3588 118.885 21.3588ZM123.07 19.7963V31.4326H121.371V19.7963H123.07ZM126.415 19.7963V31.4326H124.716V19.7963H126.415ZM135.728 22.7053V24.069H130.961V22.7053H135.728ZM132.24 20.6144H133.939V28.8701C133.939 29.1997 133.988 29.4478 134.086 29.6144C134.185 29.7773 134.312 29.8891 134.467 29.9497C134.626 30.0065 134.799 30.0349 134.984 30.0349C135.121 30.0349 135.24 30.0254 135.342 30.0065C135.444 29.9875 135.524 29.9724 135.581 29.961L135.888 31.3644C135.789 31.4023 135.649 31.4402 135.467 31.4781C135.285 31.5197 135.058 31.5425 134.785 31.5463C134.338 31.5538 133.922 31.4743 133.535 31.3076C133.149 31.141 132.836 30.8834 132.598 30.5349C132.359 30.1864 132.24 29.7489 132.24 29.2224V20.6144ZM140.55 31.6088C139.732 31.6088 139.018 31.4213 138.408 31.0463C137.798 30.6713 137.325 30.1466 136.988 29.4724C136.651 28.7981 136.482 28.0103 136.482 27.1088C136.482 26.2035 136.651 25.4118 136.988 24.7338C137.325 24.0557 137.798 23.5292 138.408 23.1542C139.018 22.7792 139.732 22.5917 140.55 22.5917C141.368 22.5917 142.082 22.7792 142.692 23.1542C143.302 23.5292 143.776 24.0557 144.113 24.7338C144.45 25.4118 144.618 26.2035 144.618 27.1088C144.618 28.0103 144.45 28.7981 144.113 29.4724C143.776 30.1466 143.302 30.6713 142.692 31.0463C142.082 31.4213 141.368 31.6088 140.55 31.6088ZM140.556 30.1826C141.086 30.1826 141.526 30.0425 141.874 29.7622C142.222 29.4819 142.48 29.1088 142.647 28.6428C142.817 28.1769 142.902 27.6637 142.902 27.1031C142.902 26.5463 142.817 26.0349 142.647 25.569C142.48 25.0993 142.222 24.7224 141.874 24.4383C141.526 24.1542 141.086 24.0122 140.556 24.0122C140.022 24.0122 139.579 24.1542 139.226 24.4383C138.878 24.7224 138.618 25.0993 138.448 25.569C138.281 26.0349 138.198 26.5463 138.198 27.1031C138.198 27.6637 138.281 28.1769 138.448 28.6428C138.618 29.1088 138.878 29.4819 139.226 29.7622C139.579 30.0425 140.022 30.1826 140.556 30.1826ZM147.501 31.4326L144.933 22.7053H146.689L148.399 29.1144H148.484L150.2 22.7053H151.956L153.66 29.086H153.745L155.444 22.7053H157.2L154.637 31.4326H152.904L151.132 25.1315H151.001L149.228 31.4326H147.501ZM160.712 31.6258C160.159 31.6258 159.659 31.5235 159.212 31.319C158.765 31.1106 158.411 30.8095 158.149 30.4156C157.892 30.0216 157.763 29.5387 157.763 28.9667C157.763 28.4743 157.858 28.069 158.047 27.7508C158.237 27.4326 158.492 27.1807 158.814 26.9951C159.136 26.8095 159.496 26.6694 159.894 26.5747C160.291 26.48 160.697 26.408 161.11 26.3588C161.632 26.2981 162.057 26.2489 162.382 26.211C162.708 26.1694 162.945 26.1031 163.093 26.0122C163.24 25.9213 163.314 25.7735 163.314 25.569V25.5292C163.314 25.033 163.174 24.6485 162.894 24.3758C162.617 24.1031 162.204 23.9667 161.655 23.9667C161.083 23.9667 160.632 24.0936 160.303 24.3474C159.977 24.5974 159.752 24.8758 159.627 25.1826L158.03 24.819C158.219 24.2887 158.496 23.8606 158.86 23.5349C159.227 23.2053 159.649 22.9667 160.127 22.819C160.604 22.6675 161.106 22.5917 161.632 22.5917C161.981 22.5917 162.35 22.6334 162.74 22.7167C163.134 22.7963 163.502 22.944 163.843 23.1599C164.187 23.3758 164.469 23.6845 164.689 24.086C164.909 24.4838 165.019 25.0008 165.019 25.6372V31.4326H163.36V30.2394H163.291C163.182 30.4591 163.017 30.675 162.797 30.8872C162.577 31.0993 162.295 31.2754 161.951 31.4156C161.606 31.5557 161.193 31.6258 160.712 31.6258ZM161.081 30.2622C161.551 30.2622 161.952 30.1694 162.286 29.9838C162.623 29.7981 162.879 29.5557 163.053 29.2565C163.231 28.9535 163.32 28.6296 163.32 28.2849V27.1599C163.259 27.2205 163.142 27.2773 162.968 27.3303C162.797 27.3796 162.602 27.4231 162.382 27.461C162.163 27.4951 161.949 27.5273 161.74 27.5576C161.532 27.5841 161.358 27.6069 161.218 27.6258C160.888 27.6675 160.587 27.7375 160.314 27.836C160.045 27.9345 159.829 28.0766 159.666 28.2622C159.507 28.444 159.428 28.6864 159.428 28.9894C159.428 29.4099 159.583 29.7281 159.894 29.944C160.204 30.1561 160.6 30.2622 161.081 30.2622ZM166.641 31.4326V22.7053H168.284V24.0917H168.374C168.534 23.622 168.814 23.2527 169.215 22.9838C169.621 22.711 170.079 22.5747 170.59 22.5747C170.696 22.5747 170.821 22.5785 170.965 22.586C171.113 22.5936 171.229 22.6031 171.312 22.6144V24.2394C171.244 24.2205 171.123 24.1997 170.948 24.1769C170.774 24.1504 170.6 24.1372 170.426 24.1372C170.024 24.1372 169.666 24.2224 169.352 24.3928C169.041 24.5595 168.795 24.7925 168.613 25.0917C168.431 25.3872 168.34 25.7243 168.34 26.1031V31.4326H166.641ZM175.097 31.6031C174.392 31.6031 173.763 31.4231 173.21 31.0633C172.661 30.6997 172.229 30.1826 171.915 29.5122C171.604 28.8379 171.449 28.0292 171.449 27.086C171.449 26.1428 171.606 25.336 171.921 24.6656C172.239 23.9951 172.674 23.4819 173.227 23.1258C173.78 22.7697 174.407 22.5917 175.108 22.5917C175.65 22.5917 176.085 22.6826 176.415 22.8644C176.748 23.0425 177.006 23.2508 177.188 23.4894C177.373 23.7281 177.517 23.9383 177.619 24.1201H177.722V19.7963H179.421V31.4326H177.761V30.0747H177.619C177.517 30.2603 177.369 30.4724 177.176 30.711C176.987 30.9497 176.725 31.158 176.392 31.336C176.059 31.5141 175.627 31.6031 175.097 31.6031ZM175.472 30.1542C175.96 30.1542 176.373 30.0254 176.71 29.7678C177.051 29.5065 177.309 29.1447 177.483 28.6826C177.661 28.2205 177.75 27.6826 177.75 27.069C177.75 26.4629 177.663 25.9326 177.489 25.4781C177.314 25.0235 177.059 24.6694 176.722 24.4156C176.385 24.1618 175.968 24.0349 175.472 24.0349C174.96 24.0349 174.534 24.1675 174.193 24.4326C173.852 24.6978 173.595 25.0595 173.421 25.5178C173.25 25.9762 173.165 26.4932 173.165 27.069C173.165 27.6523 173.252 28.1769 173.426 28.6428C173.6 29.1088 173.858 29.4781 174.199 29.7508C174.544 30.0197 174.968 30.1542 175.472 30.1542ZM187.745 24.836L186.205 25.1088C186.141 24.9118 186.039 24.7243 185.898 24.5463C185.762 24.3682 185.576 24.2224 185.342 24.1088C185.107 23.9951 184.813 23.9383 184.461 23.9383C183.98 23.9383 183.578 24.0463 183.256 24.2622C182.934 24.4743 182.773 24.7489 182.773 25.086C182.773 25.3777 182.881 25.6125 183.097 25.7906C183.313 25.9686 183.662 26.1144 184.143 26.2281L185.529 26.5463C186.332 26.7319 186.931 27.0178 187.325 27.4042C187.719 27.7906 187.915 28.2925 187.915 28.9099C187.915 29.4326 187.764 29.8985 187.461 30.3076C187.162 30.7129 186.743 31.0311 186.205 31.2622C185.671 31.4932 185.052 31.6088 184.347 31.6088C183.37 31.6088 182.573 31.4004 181.955 30.9838C181.338 30.5633 180.959 29.9667 180.819 29.194L182.461 28.944C182.563 29.372 182.773 29.6959 183.092 29.9156C183.41 30.1315 183.825 30.2394 184.336 30.2394C184.893 30.2394 185.338 30.1239 185.671 29.8928C186.004 29.658 186.171 29.372 186.171 29.0349C186.171 28.7622 186.069 28.533 185.864 28.3474C185.664 28.1618 185.355 28.0216 184.938 27.9269L183.461 27.6031C182.647 27.4175 182.044 27.122 181.654 26.7167C181.268 26.3114 181.075 25.7981 181.075 25.1769C181.075 24.6618 181.219 24.211 181.506 23.8247C181.794 23.4383 182.192 23.1372 182.7 22.9213C183.207 22.7016 183.789 22.5917 184.444 22.5917C185.387 22.5917 186.129 22.7963 186.671 23.2053C187.213 23.6106 187.571 24.1542 187.745 24.836ZM196.812 22.7053V24.069H192.045V22.7053H196.812ZM193.323 20.6144H195.022V28.8701C195.022 29.1997 195.071 29.4478 195.17 29.6144C195.268 29.7773 195.395 29.8891 195.55 29.9497C195.709 30.0065 195.882 30.0349 196.067 30.0349C196.204 30.0349 196.323 30.0254 196.425 30.0065C196.528 29.9875 196.607 29.9724 196.664 29.961L196.971 31.3644C196.872 31.4023 196.732 31.4402 196.55 31.4781C196.368 31.5197 196.141 31.5425 195.868 31.5463C195.421 31.5538 195.005 31.4743 194.618 31.3076C194.232 31.141 193.92 30.8834 193.681 30.5349C193.442 30.1864 193.323 29.7489 193.323 29.2224V20.6144ZM199.937 26.2508V31.4326H198.238V19.7963H199.915V24.1258H200.022C200.227 23.6561 200.54 23.283 200.96 23.0065C201.38 22.73 201.93 22.5917 202.608 22.5917C203.206 22.5917 203.729 22.7148 204.176 22.961C204.627 23.2072 204.975 23.5747 205.221 24.0633C205.471 24.5481 205.596 25.1542 205.596 25.8815V31.4326H203.897V26.086C203.897 25.4459 203.733 24.9497 203.403 24.5974C203.074 24.2413 202.615 24.0633 202.028 24.0633C201.627 24.0633 201.267 24.1485 200.949 24.319C200.634 24.4894 200.386 24.7394 200.204 25.069C200.026 25.3947 199.937 25.7887 199.937 26.2508ZM210.985 31.6088C210.125 31.6088 209.384 31.425 208.763 31.0576C208.146 30.6864 207.668 30.1656 207.331 29.4951C206.998 28.8209 206.831 28.0311 206.831 27.1258C206.831 26.2319 206.998 25.444 207.331 24.7622C207.668 24.0803 208.138 23.5481 208.74 23.1656C209.346 22.783 210.055 22.5917 210.865 22.5917C211.358 22.5917 211.835 22.6731 212.297 22.836C212.759 22.9989 213.174 23.2546 213.542 23.6031C213.909 23.9516 214.199 24.4042 214.411 24.961C214.623 25.5141 214.729 26.1864 214.729 26.9781V27.5803H207.792V26.3076H213.064C213.064 25.8606 212.973 25.4648 212.792 25.1201C212.61 24.7716 212.354 24.497 212.025 24.2963C211.699 24.0955 211.316 23.9951 210.877 23.9951C210.4 23.9951 209.983 24.1125 209.627 24.3474C209.275 24.5785 209.002 24.8815 208.809 25.2565C208.619 25.6277 208.525 26.0311 208.525 26.4667V27.461C208.525 28.0444 208.627 28.5406 208.831 28.9497C209.04 29.3588 209.329 29.6713 209.701 29.8872C210.072 30.0993 210.506 30.2053 211.002 30.2053C211.324 30.2053 211.617 30.1599 211.882 30.069C212.148 29.9743 212.377 29.8341 212.57 29.6485C212.763 29.4629 212.911 29.2338 213.013 28.961L214.621 29.2508C214.492 29.7243 214.261 30.1391 213.928 30.4951C213.598 30.8474 213.184 31.122 212.684 31.319C212.187 31.5122 211.621 31.6088 210.985 31.6088ZM24.5147 45.2508V50.4326H22.8159V38.7963H24.492V43.1258H24.6C24.8045 42.6561 25.117 42.283 25.5375 42.0065C25.9579 41.73 26.5072 41.5917 27.1852 41.5917C27.7837 41.5917 28.3064 41.7148 28.7534 41.961C29.2041 42.2072 29.5526 42.5747 29.7988 43.0633C30.0488 43.5481 30.1738 44.1542 30.1738 44.8815V50.4326H28.475V45.086C28.475 44.4459 28.3102 43.9497 27.9806 43.5974C27.6511 43.2413 27.1928 43.0633 26.6056 43.0633C26.2041 43.0633 25.8443 43.1485 25.5261 43.319C25.2117 43.4894 24.9636 43.7394 24.7818 44.069C24.6038 44.3947 24.5147 44.7887 24.5147 45.2508ZM31.8009 50.4326V41.7053H33.4997V50.4326H31.8009ZM32.6588 40.3588C32.3634 40.3588 32.1096 40.2603 31.8975 40.0633C31.6891 39.8625 31.585 39.6239 31.585 39.3474C31.585 39.0671 31.6891 38.8285 31.8975 38.6315C32.1096 38.4307 32.3634 38.3303 32.6588 38.3303C32.9543 38.3303 33.2062 38.4307 33.4145 38.6315C33.6266 38.8285 33.7327 39.0671 33.7327 39.3474C33.7327 39.6239 33.6266 39.8625 33.4145 40.0633C33.2062 40.2603 32.9543 40.3588 32.6588 40.3588ZM38.8043 53.8872C38.1112 53.8872 37.5146 53.7963 37.0146 53.6144C36.5184 53.4326 36.1131 53.1921 35.7987 52.8928C35.4843 52.5936 35.2494 52.266 35.0941 51.9099L36.5543 51.3076C36.6566 51.4743 36.793 51.6504 36.9634 51.836C37.1377 52.0254 37.3725 52.1864 37.668 52.319C37.9672 52.4516 38.3517 52.5178 38.8214 52.5178C39.4653 52.5178 39.9975 52.3606 40.418 52.0463C40.8384 51.7356 41.0487 51.2394 41.0487 50.5576V48.8417H40.9407C40.8384 49.0273 40.6907 49.2338 40.4975 49.461C40.3081 49.6883 40.0468 49.8853 39.7134 50.0519C39.3801 50.2186 38.9464 50.3019 38.4123 50.3019C37.7229 50.3019 37.1017 50.141 36.5487 49.819C35.9994 49.4932 35.5638 49.0141 35.2418 48.3815C34.9237 47.7451 34.7646 46.9629 34.7646 46.0349C34.7646 45.1069 34.9218 44.3114 35.2362 43.6485C35.5543 42.9856 35.9899 42.4781 36.543 42.1258C37.096 41.7697 37.7229 41.5917 38.4237 41.5917C38.9653 41.5917 39.4028 41.6826 39.7362 41.8644C40.0695 42.0425 40.329 42.2508 40.5146 42.4894C40.704 42.7281 40.8498 42.9383 40.9521 43.1201H41.0771V41.7053H42.7418V50.6258C42.7418 51.3758 42.5676 51.9913 42.2191 52.4724C41.8706 52.9535 41.399 53.3095 40.8043 53.5406C40.2134 53.7716 39.5468 53.8872 38.8043 53.8872ZM38.7873 48.8928C39.2759 48.8928 39.6888 48.7792 40.0259 48.5519C40.3668 48.3209 40.6244 47.9913 40.7987 47.5633C40.9767 47.1315 41.0657 46.6144 41.0657 46.0122C41.0657 45.425 40.9786 44.908 40.8043 44.461C40.6301 44.0141 40.3744 43.6656 40.0373 43.4156C39.7002 43.1618 39.2835 43.0349 38.7873 43.0349C38.2759 43.0349 37.8498 43.1675 37.5089 43.4326C37.168 43.694 36.9104 44.05 36.7362 44.5008C36.5657 44.9516 36.4805 45.4553 36.4805 46.0122C36.4805 46.5841 36.5676 47.086 36.7418 47.5178C36.9161 47.9497 37.1737 48.2868 37.5146 48.5292C37.8593 48.7716 38.2835 48.8928 38.7873 48.8928ZM46.0791 45.2508V50.4326H44.3802V38.7963H46.0564V43.1258H46.1643C46.3689 42.6561 46.6814 42.283 47.1018 42.0065C47.5223 41.73 48.0715 41.5917 48.7496 41.5917C49.3481 41.5917 49.8708 41.7148 50.3177 41.961C50.7685 42.2072 51.117 42.5747 51.3632 43.0633C51.6132 43.5481 51.7382 44.1542 51.7382 44.8815V50.4326H50.0393V45.086C50.0393 44.4459 49.8746 43.9497 49.545 43.5974C49.2155 43.2413 48.7571 43.0633 48.17 43.0633C47.7685 43.0633 47.4087 43.1485 47.0905 43.319C46.7761 43.4894 46.528 43.7394 46.3462 44.069C46.1681 44.3947 46.0791 44.7887 46.0791 45.2508ZM55.0641 38.7963V50.4326H53.3652V38.7963H55.0641ZM56.7096 50.4326V41.7053H58.4085V50.4326H56.7096ZM57.5676 40.3588C57.2721 40.3588 57.0183 40.2603 56.8062 40.0633C56.5979 39.8625 56.4937 39.6239 56.4937 39.3474C56.4937 39.0671 56.5979 38.8285 56.8062 38.6315C57.0183 38.4307 57.2721 38.3303 57.5676 38.3303C57.863 38.3303 58.1149 38.4307 58.3233 38.6315C58.5354 38.8285 58.6414 39.0671 58.6414 39.3474C58.6414 39.6239 58.5354 39.8625 58.3233 40.0633C58.1149 40.2603 57.863 40.3588 57.5676 40.3588ZM63.7131 53.8872C63.0199 53.8872 62.4233 53.7963 61.9233 53.6144C61.4271 53.4326 61.0218 53.1921 60.7074 52.8928C60.393 52.5936 60.1582 52.266 60.0029 51.9099L61.4631 51.3076C61.5654 51.4743 61.7017 51.6504 61.8722 51.836C62.0464 52.0254 62.2813 52.1864 62.5767 52.319C62.876 52.4516 63.2604 52.5178 63.7301 52.5178C64.3741 52.5178 64.9063 52.3606 65.3267 52.0463C65.7472 51.7356 65.9574 51.2394 65.9574 50.5576V48.8417H65.8495C65.7472 49.0273 65.5995 49.2338 65.4063 49.461C65.2169 49.6883 64.9555 49.8853 64.6222 50.0519C64.2888 50.2186 63.8551 50.3019 63.321 50.3019C62.6316 50.3019 62.0104 50.141 61.4574 49.819C60.9082 49.4932 60.4726 49.0141 60.1506 48.3815C59.8324 47.7451 59.6733 46.9629 59.6733 46.0349C59.6733 45.1069 59.8305 44.3114 60.1449 43.6485C60.4631 42.9856 60.8987 42.4781 61.4517 42.1258C62.0048 41.7697 62.6316 41.5917 63.3324 41.5917C63.8741 41.5917 64.3116 41.6826 64.6449 41.8644C64.9782 42.0425 65.2377 42.2508 65.4233 42.4894C65.6127 42.7281 65.7585 42.9383 65.8608 43.1201H65.9858V41.7053H67.6506V50.6258C67.6506 51.3758 67.4763 51.9913 67.1279 52.4724C66.7794 52.9535 66.3078 53.3095 65.7131 53.5406C65.1222 53.7716 64.4555 53.8872 63.7131 53.8872ZM63.696 48.8928C64.1847 48.8928 64.5976 48.7792 64.9347 48.5519C65.2756 48.3209 65.5332 47.9913 65.7074 47.5633C65.8854 47.1315 65.9745 46.6144 65.9745 46.0122C65.9745 45.425 65.8873 44.908 65.7131 44.461C65.5388 44.0141 65.2832 43.6656 64.946 43.4156C64.6089 43.1618 64.1923 43.0349 63.696 43.0349C63.1847 43.0349 62.7585 43.1675 62.4176 43.4326C62.0767 43.694 61.8192 44.05 61.6449 44.5008C61.4745 44.9516 61.3892 45.4553 61.3892 46.0122C61.3892 46.5841 61.4763 47.086 61.6506 47.5178C61.8248 47.9497 62.0824 48.2868 62.4233 48.5292C62.768 48.7716 63.1923 48.8928 63.696 48.8928ZM70.9879 45.2508V50.4326H69.289V38.7963H70.9651V43.1258H71.0731C71.2776 42.6561 71.5901 42.283 72.0106 42.0065C72.431 41.73 72.9803 41.5917 73.6583 41.5917C74.2568 41.5917 74.7795 41.7148 75.2265 41.961C75.6773 42.2072 76.0257 42.5747 76.272 43.0633C76.522 43.5481 76.647 44.1542 76.647 44.8815V50.4326H74.9481V45.086C74.9481 44.4459 74.7833 43.9497 74.4538 43.5974C74.1242 43.2413 73.6659 43.0633 73.0788 43.0633C72.6773 43.0633 72.3174 43.1485 71.9992 43.319C71.6848 43.4894 71.4367 43.7394 71.2549 44.069C71.0769 44.3947 70.9879 44.7887 70.9879 45.2508ZM82.3479 41.7053V43.069H77.5808V41.7053H82.3479ZM78.8592 39.6144H80.5581V47.8701C80.5581 48.1997 80.6073 48.4478 80.7058 48.6144C80.8043 48.7773 80.9312 48.8891 81.0865 48.9497C81.2456 49.0065 81.4179 49.0349 81.6035 49.0349C81.7399 49.0349 81.8592 49.0254 81.9615 49.0065C82.0638 48.9875 82.1433 48.9724 82.2001 48.961L82.507 50.3644C82.4085 50.4023 82.2683 50.4402 82.0865 50.4781C81.9047 50.5197 81.6774 50.5425 81.4047 50.5463C80.9577 50.5538 80.541 50.4743 80.1547 50.3076C79.7683 50.141 79.4558 49.8834 79.2172 49.5349C78.9785 49.1864 78.8592 48.7489 78.8592 48.2224V39.6144ZM87.2547 50.6088C86.3949 50.6088 85.6544 50.425 85.0331 50.0576C84.4157 49.6864 83.9385 49.1656 83.6013 48.4951C83.268 47.8209 83.1013 47.0311 83.1013 46.1258C83.1013 45.2319 83.268 44.444 83.6013 43.7622C83.9385 43.0803 84.4081 42.5481 85.0104 42.1656C85.6165 41.783 86.3248 41.5917 87.1354 41.5917C87.6278 41.5917 88.1051 41.6731 88.5672 41.836C89.0294 41.9989 89.4441 42.2546 89.8116 42.6031C90.179 42.9516 90.4688 43.4042 90.6809 43.961C90.893 44.5141 90.9991 45.1864 90.9991 45.9781V46.5803H84.0616V45.3076H89.3343C89.3343 44.8606 89.2434 44.4648 89.0616 44.1201C88.8797 43.7716 88.6241 43.497 88.2945 43.2963C87.9688 43.0955 87.5862 42.9951 87.1468 42.9951C86.6695 42.9951 86.2528 43.1125 85.8968 43.3474C85.5445 43.5785 85.2718 43.8815 85.0786 44.2565C84.8892 44.6277 84.7945 45.0311 84.7945 45.4667V46.461C84.7945 47.0444 84.8968 47.5406 85.1013 47.9497C85.3097 48.3588 85.5994 48.6713 85.9706 48.8872C86.3419 49.0993 86.7756 49.2053 87.2718 49.2053C87.5938 49.2053 87.8873 49.1599 88.1525 49.069C88.4176 48.9743 88.6468 48.8341 88.84 48.6485C89.0331 48.4629 89.1809 48.2338 89.2831 47.961L90.8911 48.2508C90.7623 48.7243 90.5313 49.1391 90.1979 49.4951C89.8684 49.8474 89.4536 50.122 88.9536 50.319C88.4574 50.5122 87.8911 50.6088 87.2547 50.6088ZM95.511 50.6031C94.8065 50.6031 94.1777 50.4231 93.6247 50.0633C93.0754 49.6997 92.6436 49.1826 92.3292 48.5122C92.0186 47.8379 91.8633 47.0292 91.8633 46.086C91.8633 45.1428 92.0205 44.336 92.3349 43.6656C92.6531 42.9951 93.0887 42.4819 93.6417 42.1258C94.1948 41.7697 94.8216 41.5917 95.5224 41.5917C96.0641 41.5917 96.4997 41.6826 96.8292 41.8644C97.1626 42.0425 97.4201 42.2508 97.602 42.4894C97.7876 42.7281 97.9315 42.9383 98.0338 43.1201H98.136V38.7963H99.8349V50.4326H98.1758V49.0747H98.0338C97.9315 49.2603 97.7838 49.4724 97.5906 49.711C97.4012 49.9497 97.1398 50.158 96.8065 50.336C96.4732 50.5141 96.0413 50.6031 95.511 50.6031ZM95.886 49.1542C96.3747 49.1542 96.7876 49.0254 97.1247 48.7678C97.4656 48.5065 97.7232 48.1447 97.8974 47.6826C98.0754 47.2205 98.1645 46.6826 98.1645 46.069C98.1645 45.4629 98.0773 44.9326 97.9031 44.4781C97.7288 44.0235 97.4732 43.6694 97.136 43.4156C96.7989 43.1618 96.3823 43.0349 95.886 43.0349C95.3747 43.0349 94.9485 43.1675 94.6076 43.4326C94.2667 43.6978 94.0091 44.0595 93.8349 44.5178C93.6645 44.9762 93.5792 45.4932 93.5792 46.069C93.5792 46.6523 93.6663 47.1769 93.8406 47.6428C94.0148 48.1088 94.2724 48.4781 94.6133 48.7508C94.958 49.0197 95.3823 49.1542 95.886 49.1542ZM108.89 50.6088C108.072 50.6088 107.358 50.4213 106.748 50.0463C106.138 49.6713 105.665 49.1466 105.328 48.4724C104.991 47.7981 104.822 47.0103 104.822 46.1088C104.822 45.2035 104.991 44.4118 105.328 43.7338C105.665 43.0557 106.138 42.5292 106.748 42.1542C107.358 41.7792 108.072 41.5917 108.89 41.5917C109.708 41.5917 110.422 41.7792 111.032 42.1542C111.642 42.5292 112.116 43.0557 112.453 43.7338C112.79 44.4118 112.958 45.2035 112.958 46.1088C112.958 47.0103 112.79 47.7981 112.453 48.4724C112.116 49.1466 111.642 49.6713 111.032 50.0463C110.422 50.4213 109.708 50.6088 108.89 50.6088ZM108.896 49.1826C109.426 49.1826 109.866 49.0425 110.214 48.7622C110.562 48.4819 110.82 48.1088 110.987 47.6428C111.157 47.1769 111.242 46.6637 111.242 46.1031C111.242 45.5463 111.157 45.0349 110.987 44.569C110.82 44.0993 110.562 43.7224 110.214 43.4383C109.866 43.1542 109.426 43.0122 108.896 43.0122C108.362 43.0122 107.919 43.1542 107.566 43.4383C107.218 43.7224 106.958 44.0993 106.788 44.569C106.621 45.0349 106.538 45.5463 106.538 46.1031C106.538 46.6637 106.621 47.1769 106.788 47.6428C106.958 48.1088 107.218 48.4819 107.566 48.7622C107.919 49.0425 108.362 49.1826 108.896 49.1826ZM114.215 50.4326V41.7053H115.857V43.0917H115.948C116.107 42.622 116.387 42.2527 116.788 41.9838C117.194 41.711 117.652 41.5747 118.163 41.5747C118.27 41.5747 118.395 41.5785 118.538 41.586C118.686 41.5936 118.802 41.6031 118.885 41.6144V43.2394C118.817 43.2205 118.696 43.1997 118.521 43.1769C118.347 43.1504 118.173 43.1372 117.999 43.1372C117.597 43.1372 117.239 43.2224 116.925 43.3928C116.614 43.5595 116.368 43.7925 116.186 44.0917C116.004 44.3872 115.913 44.7243 115.913 45.1031V50.4326H114.215ZM123.062 53.8872C122.369 53.8872 121.772 53.7963 121.272 53.6144C120.776 53.4326 120.371 53.1921 120.056 52.8928C119.742 52.5936 119.507 52.266 119.352 51.9099L120.812 51.3076C120.914 51.4743 121.05 51.6504 121.221 51.836C121.395 52.0254 121.63 52.1864 121.925 52.319C122.225 52.4516 122.609 52.5178 123.079 52.5178C123.723 52.5178 124.255 52.3606 124.675 52.0463C125.096 51.7356 125.306 51.2394 125.306 50.5576V48.8417H125.198C125.096 49.0273 124.948 49.2338 124.755 49.461C124.566 49.6883 124.304 49.8853 123.971 50.0519C123.638 50.2186 123.204 50.3019 122.67 50.3019C121.98 50.3019 121.359 50.141 120.806 49.819C120.257 49.4932 119.821 49.0141 119.499 48.3815C119.181 47.7451 119.022 46.9629 119.022 46.0349C119.022 45.1069 119.179 44.3114 119.494 43.6485C119.812 42.9856 120.247 42.4781 120.8 42.1258C121.354 41.7697 121.98 41.5917 122.681 41.5917C123.223 41.5917 123.66 41.6826 123.994 41.8644C124.327 42.0425 124.586 42.2508 124.772 42.4894C124.961 42.7281 125.107 42.9383 125.21 43.1201H125.335V41.7053H126.999V50.6258C126.999 51.3758 126.825 51.9913 126.477 52.4724C126.128 52.9535 125.657 53.3095 125.062 53.5406C124.471 53.7716 123.804 53.8872 123.062 53.8872ZM123.045 48.8928C123.533 48.8928 123.946 48.7792 124.283 48.5519C124.624 48.3209 124.882 47.9913 125.056 47.5633C125.234 47.1315 125.323 46.6144 125.323 46.0122C125.323 45.425 125.236 44.908 125.062 44.461C124.888 44.0141 124.632 43.6656 124.295 43.4156C123.958 43.1618 123.541 43.0349 123.045 43.0349C122.533 43.0349 122.107 43.1675 121.766 43.4326C121.425 43.694 121.168 44.05 120.994 44.5008C120.823 44.9516 120.738 45.4553 120.738 46.0122C120.738 46.5841 120.825 47.086 120.999 47.5178C121.174 47.9497 121.431 48.2868 121.772 48.5292C122.117 48.7716 122.541 48.8928 123.045 48.8928ZM131.178 50.6258C130.624 50.6258 130.124 50.5235 129.678 50.319C129.231 50.1106 128.876 49.8095 128.615 49.4156C128.357 49.0216 128.229 48.5387 128.229 47.9667C128.229 47.4743 128.323 47.069 128.513 46.7508C128.702 46.4326 128.958 46.1807 129.28 45.9951C129.602 45.8095 129.962 45.6694 130.359 45.5747C130.757 45.48 131.162 45.408 131.575 45.3588C132.098 45.2981 132.522 45.2489 132.848 45.211C133.174 45.1694 133.41 45.1031 133.558 45.0122C133.706 44.9213 133.78 44.7735 133.78 44.569V44.5292C133.78 44.033 133.64 43.6485 133.359 43.3758C133.083 43.1031 132.67 42.9667 132.121 42.9667C131.549 42.9667 131.098 43.0936 130.768 43.3474C130.443 43.5974 130.217 43.8758 130.092 44.1826L128.496 43.819C128.685 43.2887 128.962 42.8606 129.325 42.5349C129.693 42.2053 130.115 41.9667 130.592 41.819C131.07 41.6675 131.571 41.5917 132.098 41.5917C132.446 41.5917 132.816 41.6334 133.206 41.7167C133.6 41.7963 133.967 41.944 134.308 42.1599C134.653 42.3758 134.935 42.6845 135.155 43.086C135.374 43.4838 135.484 44.0008 135.484 44.6372V50.4326H133.825V49.2394H133.757C133.647 49.4591 133.482 49.675 133.263 49.8872C133.043 50.0993 132.761 50.2754 132.416 50.4156C132.071 50.5557 131.659 50.6258 131.178 50.6258ZM131.547 49.2622C132.017 49.2622 132.418 49.1694 132.751 48.9838C133.089 48.7981 133.344 48.5557 133.518 48.2565C133.696 47.9535 133.785 47.6296 133.785 47.2849V46.1599C133.725 46.2205 133.607 46.2773 133.433 46.3303C133.263 46.3796 133.068 46.4231 132.848 46.461C132.628 46.4951 132.414 46.5273 132.206 46.5576C131.998 46.5841 131.823 46.6069 131.683 46.6258C131.354 46.6675 131.053 46.7375 130.78 46.836C130.511 46.9345 130.295 47.0766 130.132 47.2622C129.973 47.444 129.893 47.6864 129.893 47.9894C129.893 48.4099 130.049 48.7281 130.359 48.944C130.67 49.1561 131.066 49.2622 131.547 49.2622ZM138.806 45.2508V50.4326H137.107V41.7053H138.738V43.1258H138.846C139.047 42.6637 139.361 42.2925 139.789 42.0122C140.221 41.7319 140.764 41.5917 141.42 41.5917C142.014 41.5917 142.535 41.7167 142.982 41.9667C143.429 42.2129 143.776 42.5803 144.022 43.069C144.268 43.5576 144.391 44.1618 144.391 44.8815V50.4326H142.692V45.086C142.692 44.4535 142.528 43.9591 142.198 43.6031C141.868 43.2432 141.416 43.0633 140.84 43.0633C140.446 43.0633 140.096 43.1485 139.789 43.319C139.486 43.4894 139.245 43.7394 139.067 44.069C138.893 44.3947 138.806 44.7887 138.806 45.2508ZM152.164 50.6258C151.611 50.6258 151.111 50.5235 150.664 50.319C150.217 50.1106 149.863 49.8095 149.601 49.4156C149.344 49.0216 149.215 48.5387 149.215 47.9667C149.215 47.4743 149.31 47.069 149.499 46.7508C149.688 46.4326 149.944 46.1807 150.266 45.9951C150.588 45.8095 150.948 45.6694 151.346 45.5747C151.743 45.48 152.149 45.408 152.562 45.3588C153.084 45.2981 153.508 45.2489 153.834 45.211C154.16 45.1694 154.397 45.1031 154.544 45.0122C154.692 44.9213 154.766 44.7735 154.766 44.569V44.5292C154.766 44.033 154.626 43.6485 154.346 43.3758C154.069 43.1031 153.656 42.9667 153.107 42.9667C152.535 42.9667 152.084 43.0936 151.755 43.3474C151.429 43.5974 151.204 43.8758 151.079 44.1826L149.482 43.819C149.671 43.2887 149.948 42.8606 150.312 42.5349C150.679 42.2053 151.101 41.9667 151.579 41.819C152.056 41.6675 152.558 41.5917 153.084 41.5917C153.433 41.5917 153.802 41.6334 154.192 41.7167C154.586 41.7963 154.954 41.944 155.294 42.1599C155.639 42.3758 155.921 42.6845 156.141 43.086C156.361 43.4838 156.471 44.0008 156.471 44.6372V50.4326H154.812V49.2394H154.743C154.633 49.4591 154.469 49.675 154.249 49.8872C154.029 50.0993 153.747 50.2754 153.402 50.4156C153.058 50.5557 152.645 50.6258 152.164 50.6258ZM152.533 49.2622C153.003 49.2622 153.404 49.1694 153.738 48.9838C154.075 48.7981 154.33 48.5557 154.505 48.2565C154.683 47.9535 154.772 47.6296 154.772 47.2849V46.1599C154.711 46.2205 154.594 46.2773 154.419 46.3303C154.249 46.3796 154.054 46.4231 153.834 46.461C153.615 46.4951 153.401 46.5273 153.192 46.5576C152.984 46.5841 152.81 46.6069 152.669 46.6258C152.34 46.6675 152.039 46.7375 151.766 46.836C151.497 46.9345 151.281 47.0766 151.118 47.2622C150.959 47.444 150.88 47.6864 150.88 47.9894C150.88 48.4099 151.035 48.7281 151.346 48.944C151.656 49.1561 152.052 49.2622 152.533 49.2622ZM158.093 50.4326V41.7053H159.735V43.0917H159.826C159.985 42.622 160.266 42.2527 160.667 41.9838C161.073 41.711 161.531 41.5747 162.042 41.5747C162.148 41.5747 162.273 41.5785 162.417 41.586C162.565 41.5936 162.68 41.6031 162.764 41.6144V43.2394C162.696 43.2205 162.574 43.1997 162.4 43.1769C162.226 43.1504 162.052 43.1372 161.877 43.1372C161.476 43.1372 161.118 43.2224 160.804 43.3928C160.493 43.5595 160.247 43.7925 160.065 44.0917C159.883 44.3872 159.792 44.7243 159.792 45.1031V50.4326H158.093ZM167.043 50.6088C166.183 50.6088 165.442 50.425 164.821 50.0576C164.204 49.6864 163.727 49.1656 163.389 48.4951C163.056 47.8209 162.889 47.0311 162.889 46.1258C162.889 45.2319 163.056 44.444 163.389 43.7622C163.727 43.0803 164.196 42.5481 164.799 42.1656C165.405 41.783 166.113 41.5917 166.924 41.5917C167.416 41.5917 167.893 41.6731 168.355 41.836C168.817 41.9989 169.232 42.2546 169.6 42.6031C169.967 42.9516 170.257 43.4042 170.469 43.961C170.681 44.5141 170.787 45.1864 170.787 45.9781V46.5803H163.85V45.3076H169.122C169.122 44.8606 169.031 44.4648 168.85 44.1201C168.668 43.7716 168.412 43.497 168.083 43.2963C167.757 43.0955 167.374 42.9951 166.935 42.9951C166.458 42.9951 166.041 43.1125 165.685 43.3474C165.333 43.5785 165.06 43.8815 164.867 44.2565C164.677 44.6277 164.583 45.0311 164.583 45.4667V46.461C164.583 47.0444 164.685 47.5406 164.889 47.9497C165.098 48.3588 165.388 48.6713 165.759 48.8872C166.13 49.0993 166.564 49.2053 167.06 49.2053C167.382 49.2053 167.675 49.1599 167.941 49.069C168.206 48.9743 168.435 48.8341 168.628 48.6485C168.821 48.4629 168.969 48.2338 169.071 47.961L170.679 48.2508C170.55 48.7243 170.319 49.1391 169.986 49.4951C169.656 49.8474 169.242 50.122 168.742 50.319C168.246 50.5122 167.679 50.6088 167.043 50.6088ZM174.572 50.6258C174.019 50.6258 173.519 50.5235 173.072 50.319C172.625 50.1106 172.271 49.8095 172.009 49.4156C171.752 49.0216 171.623 48.5387 171.623 47.9667C171.623 47.4743 171.718 47.069 171.907 46.7508C172.097 46.4326 172.352 46.1807 172.674 45.9951C172.996 45.8095 173.356 45.6694 173.754 45.5747C174.151 45.48 174.557 45.408 174.97 45.3588C175.492 45.2981 175.917 45.2489 176.242 45.211C176.568 45.1694 176.805 45.1031 176.953 45.0122C177.1 44.9213 177.174 44.7735 177.174 44.569V44.5292C177.174 44.033 177.034 43.6485 176.754 43.3758C176.477 43.1031 176.064 42.9667 175.515 42.9667C174.943 42.9667 174.492 43.0936 174.163 43.3474C173.837 43.5974 173.612 43.8758 173.487 44.1826L171.89 43.819C172.079 43.2887 172.356 42.8606 172.72 42.5349C173.087 42.2053 173.509 41.9667 173.987 41.819C174.464 41.6675 174.966 41.5917 175.492 41.5917C175.841 41.5917 176.21 41.6334 176.6 41.7167C176.994 41.7963 177.362 41.944 177.703 42.1599C178.047 42.3758 178.329 42.6845 178.549 43.086C178.769 43.4838 178.879 44.0008 178.879 44.6372V50.4326H177.22V49.2394H177.151C177.042 49.4591 176.877 49.675 176.657 49.8872C176.437 50.0993 176.155 50.2754 175.811 50.4156C175.466 50.5557 175.053 50.6258 174.572 50.6258ZM174.941 49.2622C175.411 49.2622 175.812 49.1694 176.146 48.9838C176.483 48.7981 176.739 48.5557 176.913 48.2565C177.091 47.9535 177.18 47.6296 177.18 47.2849V46.1599C177.119 46.2205 177.002 46.2773 176.828 46.3303C176.657 46.3796 176.462 46.4231 176.242 46.461C176.023 46.4951 175.809 46.5273 175.6 46.5576C175.392 46.5841 175.218 46.6069 175.078 46.6258C174.748 46.6675 174.447 46.7375 174.174 46.836C173.905 46.9345 173.689 47.0766 173.526 47.2622C173.367 47.444 173.288 47.6864 173.288 47.9894C173.288 48.4099 173.443 48.7281 173.754 48.944C174.064 49.1561 174.46 49.2622 174.941 49.2622ZM187.041 43.836L185.501 44.1088C185.437 43.9118 185.335 43.7243 185.195 43.5463C185.058 43.3682 184.873 43.2224 184.638 43.1088C184.403 42.9951 184.109 42.9383 183.757 42.9383C183.276 42.9383 182.875 43.0463 182.553 43.2622C182.231 43.4743 182.07 43.7489 182.07 44.086C182.07 44.3777 182.178 44.6125 182.394 44.7906C182.609 44.9686 182.958 45.1144 183.439 45.2281L184.825 45.5463C185.628 45.7319 186.227 46.0178 186.621 46.4042C187.015 46.7906 187.212 47.2925 187.212 47.9099C187.212 48.4326 187.06 48.8985 186.757 49.3076C186.458 49.7129 186.039 50.0311 185.501 50.2622C184.967 50.4932 184.348 50.6088 183.644 50.6088C182.666 50.6088 181.869 50.4004 181.251 49.9838C180.634 49.5633 180.255 48.9667 180.115 48.194L181.757 47.944C181.859 48.372 182.07 48.6959 182.388 48.9156C182.706 49.1315 183.121 49.2394 183.632 49.2394C184.189 49.2394 184.634 49.1239 184.967 48.8928C185.301 48.658 185.467 48.372 185.467 48.0349C185.467 47.7622 185.365 47.533 185.161 47.3474C184.96 47.1618 184.651 47.0216 184.234 46.9269L182.757 46.6031C181.943 46.4175 181.341 46.122 180.95 45.7167C180.564 45.3114 180.371 44.7981 180.371 44.1769C180.371 43.6618 180.515 43.211 180.803 42.8247C181.091 42.4383 181.488 42.1372 181.996 41.9213C182.503 41.7016 183.085 41.5917 183.74 41.5917C184.683 41.5917 185.426 41.7963 185.967 42.2053C186.509 42.6106 186.867 43.1542 187.041 43.836ZM196.108 41.7053V43.069H191.341V41.7053H196.108ZM192.619 39.6144H194.318V47.8701C194.318 48.1997 194.367 48.4478 194.466 48.6144C194.564 48.7773 194.691 48.8891 194.846 48.9497C195.006 49.0065 195.178 49.0349 195.364 49.0349C195.5 49.0349 195.619 49.0254 195.721 49.0065C195.824 48.9875 195.903 48.9724 195.96 48.961L196.267 50.3644C196.168 50.4023 196.028 50.4402 195.846 50.4781C195.665 50.5197 195.437 50.5425 195.165 50.5463C194.718 50.5538 194.301 50.4743 193.915 50.3076C193.528 50.141 193.216 49.8834 192.977 49.5349C192.739 49.1864 192.619 48.7489 192.619 48.2224V39.6144ZM200.93 50.6088C200.111 50.6088 199.397 50.4213 198.787 50.0463C198.178 49.6713 197.704 49.1466 197.367 48.4724C197.03 47.7981 196.861 47.0103 196.861 46.1088C196.861 45.2035 197.03 44.4118 197.367 43.7338C197.704 43.0557 198.178 42.5292 198.787 42.1542C199.397 41.7792 200.111 41.5917 200.93 41.5917C201.748 41.5917 202.462 41.7792 203.072 42.1542C203.681 42.5292 204.155 43.0557 204.492 43.7338C204.829 44.4118 204.998 45.2035 204.998 46.1088C204.998 47.0103 204.829 47.7981 204.492 48.4724C204.155 49.1466 203.681 49.6713 203.072 50.0463C202.462 50.4213 201.748 50.6088 200.93 50.6088ZM200.935 49.1826C201.465 49.1826 201.905 49.0425 202.253 48.7622C202.602 48.4819 202.859 48.1088 203.026 47.6428C203.197 47.1769 203.282 46.6637 203.282 46.1031C203.282 45.5463 203.197 45.0349 203.026 44.569C202.859 44.0993 202.602 43.7224 202.253 43.4383C201.905 43.1542 201.465 43.0122 200.935 43.0122C200.401 43.0122 199.958 43.1542 199.606 43.4383C199.257 43.7224 198.998 44.0993 198.827 44.569C198.661 45.0349 198.577 45.5463 198.577 46.1031C198.577 46.6637 198.661 47.1769 198.827 47.6428C198.998 48.1088 199.257 48.4819 199.606 48.7622C199.958 49.0425 200.401 49.1826 200.935 49.1826ZM216.388 43.836L214.848 44.1088C214.784 43.9118 214.682 43.7243 214.542 43.5463C214.405 43.3682 214.22 43.2224 213.985 43.1088C213.75 42.9951 213.456 42.9383 213.104 42.9383C212.623 42.9383 212.221 43.0463 211.9 43.2622C211.578 43.4743 211.417 43.7489 211.417 44.086C211.417 44.3777 211.525 44.6125 211.74 44.7906C211.956 44.9686 212.305 45.1144 212.786 45.2281L214.172 45.5463C214.975 45.7319 215.574 46.0178 215.968 46.4042C216.362 46.7906 216.559 47.2925 216.559 47.9099C216.559 48.4326 216.407 48.8985 216.104 49.3076C215.805 49.7129 215.386 50.0311 214.848 50.2622C214.314 50.4932 213.695 50.6088 212.99 50.6088C212.013 50.6088 211.216 50.4004 210.598 49.9838C209.981 49.5633 209.602 48.9667 209.462 48.194L211.104 47.944C211.206 48.372 211.417 48.6959 211.735 48.9156C212.053 49.1315 212.468 49.2394 212.979 49.2394C213.536 49.2394 213.981 49.1239 214.314 48.8928C214.648 48.658 214.814 48.372 214.814 48.0349C214.814 47.7622 214.712 47.533 214.507 47.3474C214.307 47.1618 213.998 47.0216 213.581 46.9269L212.104 46.6031C211.29 46.4175 210.687 46.122 210.297 45.7167C209.911 45.3114 209.718 44.7981 209.718 44.1769C209.718 43.6618 209.862 43.211 210.15 42.8247C210.437 42.4383 210.835 42.1372 211.343 41.9213C211.85 41.7016 212.432 41.5917 213.087 41.5917C214.03 41.5917 214.773 41.7963 215.314 42.2053C215.856 42.6106 216.214 43.1542 216.388 43.836ZM221.548 50.6088C220.688 50.6088 219.947 50.425 219.326 50.0576C218.709 49.6864 218.232 49.1656 217.894 48.4951C217.561 47.8209 217.394 47.0311 217.394 46.1258C217.394 45.2319 217.561 44.444 217.894 43.7622C218.232 43.0803 218.701 42.5481 219.304 42.1656C219.91 41.783 220.618 41.5917 221.429 41.5917C221.921 41.5917 222.398 41.6731 222.86 41.836C223.322 41.9989 223.737 42.2546 224.105 42.6031C224.472 42.9516 224.762 43.4042 224.974 43.961C225.186 44.5141 225.292 45.1864 225.292 45.9781V46.5803H218.355V45.3076H223.627C223.627 44.8606 223.537 44.4648 223.355 44.1201C223.173 43.7716 222.917 43.497 222.588 43.2963C222.262 43.0955 221.879 42.9951 221.44 42.9951C220.963 42.9951 220.546 43.1125 220.19 43.3474C219.838 43.5785 219.565 43.8815 219.372 44.2565C219.182 44.6277 219.088 45.0311 219.088 45.4667V46.461C219.088 47.0444 219.19 47.5406 219.394 47.9497C219.603 48.3588 219.893 48.6713 220.264 48.8872C220.635 49.0993 221.069 49.2053 221.565 49.2053C221.887 49.2053 222.18 49.1599 222.446 49.069C222.711 48.9743 222.94 48.8341 223.133 48.6485C223.326 48.4629 223.474 48.2338 223.576 47.961L225.184 48.2508C225.055 48.7243 224.824 49.1391 224.491 49.4951C224.162 49.8474 223.747 50.122 223.247 50.319C222.751 50.5122 222.184 50.6088 221.548 50.6088ZM230.298 50.6088C229.439 50.6088 228.698 50.425 228.077 50.0576C227.459 49.6864 226.982 49.1656 226.645 48.4951C226.312 47.8209 226.145 47.0311 226.145 46.1258C226.145 45.2319 226.312 44.444 226.645 43.7622C226.982 43.0803 227.452 42.5481 228.054 42.1656C228.66 41.783 229.369 41.5917 230.179 41.5917C230.672 41.5917 231.149 41.6731 231.611 41.836C232.073 41.9989 232.488 42.2546 232.855 42.6031C233.223 42.9516 233.513 43.4042 233.725 43.961C233.937 44.5141 234.043 45.1864 234.043 45.9781V46.5803H227.105V45.3076H232.378C232.378 44.8606 232.287 44.4648 232.105 44.1201C231.923 43.7716 231.668 43.497 231.338 43.2963C231.013 43.0955 230.63 42.9951 230.191 42.9951C229.713 42.9951 229.297 43.1125 228.941 43.3474C228.588 43.5785 228.316 43.8815 228.122 44.2565C227.933 44.6277 227.838 45.0311 227.838 45.4667V46.461C227.838 47.0444 227.941 47.5406 228.145 47.9497C228.353 48.3588 228.643 48.6713 229.014 48.8872C229.386 49.0993 229.819 49.2053 230.316 49.2053C230.638 49.2053 230.931 49.1599 231.196 49.069C231.461 48.9743 231.691 48.8341 231.884 48.6485C232.077 48.4629 232.225 48.2338 232.327 47.961L233.935 48.2508C233.806 48.7243 233.575 49.1391 233.242 49.4951C232.912 49.8474 232.497 50.122 231.997 50.319C231.501 50.5122 230.935 50.6088 230.298 50.6088ZM24.5147 64.2508V69.4326H22.8159V57.7963H24.492V62.1258H24.6C24.8045 61.6561 25.117 61.283 25.5375 61.0065C25.9579 60.73 26.5072 60.5917 27.1852 60.5917C27.7837 60.5917 28.3064 60.7148 28.7534 60.961C29.2041 61.2072 29.5526 61.5747 29.7988 62.0633C30.0488 62.5481 30.1738 63.1542 30.1738 63.8815V69.4326H28.475V64.086C28.475 63.4459 28.3102 62.9497 27.9806 62.5974C27.6511 62.2413 27.1928 62.0633 26.6056 62.0633C26.2041 62.0633 25.8443 62.1485 25.5261 62.319C25.2117 62.4894 24.9636 62.7394 24.7818 63.069C24.6038 63.3947 24.5147 63.7887 24.5147 64.2508ZM35.477 69.6088C34.6588 69.6088 33.9448 69.4213 33.335 69.0463C32.7251 68.6713 32.2516 68.1466 31.9145 67.4724C31.5774 66.7981 31.4088 66.0103 31.4088 65.1088C31.4088 64.2035 31.5774 63.4118 31.9145 62.7338C32.2516 62.0557 32.7251 61.5292 33.335 61.1542C33.9448 60.7792 34.6588 60.5917 35.477 60.5917C36.2952 60.5917 37.0092 60.7792 37.6191 61.1542C38.2289 61.5292 38.7024 62.0557 39.0395 62.7338C39.3766 63.4118 39.5452 64.2035 39.5452 65.1088C39.5452 66.0103 39.3766 66.7981 39.0395 67.4724C38.7024 68.1466 38.2289 68.6713 37.6191 69.0463C37.0092 69.4213 36.2952 69.6088 35.477 69.6088ZM35.4827 68.1826C36.013 68.1826 36.4524 68.0425 36.8009 67.7622C37.1494 67.4819 37.4069 67.1088 37.5736 66.6428C37.7441 66.1769 37.8293 65.6637 37.8293 65.1031C37.8293 64.5463 37.7441 64.0349 37.5736 63.569C37.4069 63.0993 37.1494 62.7224 36.8009 62.4383C36.4524 62.1542 36.013 62.0122 35.4827 62.0122C34.9486 62.0122 34.5054 62.1542 34.1531 62.4383C33.8047 62.7224 33.5452 63.0993 33.3747 63.569C33.2081 64.0349 33.1247 64.5463 33.1247 65.1031C33.1247 65.6637 33.2081 66.1769 33.3747 66.6428C33.5452 67.1088 33.8047 67.4819 34.1531 67.7622C34.5054 68.0425 34.9486 68.1826 35.4827 68.1826ZM42.4279 69.4326L39.8597 60.7053H41.6154L43.3256 67.1144H43.4109L45.1268 60.7053H46.8825L48.587 67.086H48.6722L50.3711 60.7053H52.1268L49.5643 69.4326H47.8313L46.0586 63.1315H45.9279L44.1552 69.4326H42.4279ZM56.8297 69.4326V57.7963H61.0911C61.9169 57.7963 62.6006 57.9326 63.1422 58.2053C63.6839 58.4743 64.0892 58.8398 64.3581 59.3019C64.6271 59.7603 64.7616 60.2773 64.7616 60.8531C64.7616 61.3379 64.6725 61.747 64.4945 62.0803C64.3165 62.4099 64.0778 62.675 63.7786 62.8758C63.4831 63.0728 63.1574 63.2167 62.8013 63.3076V63.4213C63.1877 63.4402 63.5646 63.5652 63.932 63.7963C64.3032 64.0235 64.61 64.3474 64.8525 64.7678C65.0949 65.1883 65.2161 65.6997 65.2161 66.3019C65.2161 66.8966 65.0759 67.4307 64.7956 67.9042C64.5191 68.3739 64.0911 68.747 63.5116 69.0235C62.932 69.2963 62.1915 69.4326 61.29 69.4326H56.8297ZM58.5854 67.9269H61.1195C61.9604 67.9269 62.5627 67.7641 62.9263 67.4383C63.29 67.1125 63.4718 66.7053 63.4718 66.2167C63.4718 65.8493 63.379 65.5122 63.1934 65.2053C63.0078 64.8985 62.7426 64.6542 62.3979 64.4724C62.057 64.2906 61.6517 64.1997 61.182 64.1997H58.5854V67.9269ZM58.5854 62.8303H60.9377C61.3316 62.8303 61.6858 62.7546 62.0002 62.6031C62.3184 62.4516 62.5703 62.2394 62.7559 61.9667C62.9453 61.6902 63.04 61.3644 63.04 60.9894C63.04 60.5084 62.8714 60.105 62.5343 59.7792C62.1972 59.4535 61.6801 59.2906 60.9831 59.2906H58.5854V62.8303ZM66.5221 72.7053V60.7053H68.1812V62.1201H68.3233C68.4217 61.9383 68.5638 61.7281 68.7494 61.4894C68.935 61.2508 69.1926 61.0425 69.5221 60.8644C69.8517 60.6826 70.2873 60.5917 70.8289 60.5917C71.5335 60.5917 72.1623 60.7697 72.7153 61.1258C73.2683 61.4819 73.702 61.9951 74.0164 62.6656C74.3346 63.336 74.4937 64.1428 74.4937 65.086C74.4937 66.0292 74.3365 66.8379 74.0221 67.5122C73.7077 68.1826 73.2759 68.6997 72.7267 69.0633C72.1774 69.4231 71.5505 69.6031 70.846 69.6031C70.3157 69.6031 69.882 69.5141 69.5449 69.336C69.2115 69.158 68.9502 68.9497 68.7608 68.711C68.5714 68.4724 68.4255 68.2603 68.3233 68.0747H68.221V72.7053H66.5221ZM68.1869 65.069C68.1869 65.6826 68.2759 66.2205 68.4539 66.6826C68.632 67.1447 68.8895 67.5065 69.2267 67.7678C69.5638 68.0254 69.9767 68.1542 70.4653 68.1542C70.9729 68.1542 71.3971 68.0197 71.738 67.7508C72.0789 67.4781 72.3365 67.1088 72.5108 66.6428C72.6888 66.1769 72.7778 65.6523 72.7778 65.069C72.7778 64.4932 72.6907 63.9762 72.5164 63.5178C72.346 63.0595 72.0884 62.6978 71.7437 62.4326C71.4028 62.1675 70.9767 62.0349 70.4653 62.0349C69.9729 62.0349 69.5562 62.1618 69.2153 62.4156C68.8782 62.6694 68.6225 63.0235 68.4483 63.4781C68.274 63.9326 68.1869 64.4629 68.1869 65.069ZM77.456 57.7963V69.4326H75.7571V57.7963H77.456ZM82.8629 69.6088C82.003 69.6088 81.2625 69.425 80.6413 69.0576C80.0238 68.6864 79.5466 68.1656 79.2095 67.4951C78.8761 66.8209 78.7095 66.0311 78.7095 65.1258C78.7095 64.2319 78.8761 63.444 79.2095 62.7622C79.5466 62.0803 80.0163 61.5481 80.6185 61.1656C81.2246 60.783 81.9329 60.5917 82.7435 60.5917C83.236 60.5917 83.7132 60.6731 84.1754 60.836C84.6375 60.9989 85.0523 61.2546 85.4197 61.6031C85.7871 61.9516 86.0769 62.4042 86.289 62.961C86.5011 63.5141 86.6072 64.1864 86.6072 64.9781V65.5803H79.6697V64.3076H84.9424C84.9424 63.8606 84.8515 63.4648 84.6697 63.1201C84.4879 62.7716 84.2322 62.497 83.9026 62.2963C83.5769 62.0955 83.1943 61.9951 82.7549 61.9951C82.2776 61.9951 81.861 62.1125 81.5049 62.3474C81.1526 62.5785 80.8799 62.8815 80.6867 63.2565C80.4973 63.6277 80.4026 64.0311 80.4026 64.4667V65.461C80.4026 66.0444 80.5049 66.5406 80.7095 66.9497C80.9178 67.3588 81.2076 67.6713 81.5788 67.8872C81.95 68.0993 82.3837 68.2053 82.8799 68.2053C83.2019 68.2053 83.4954 68.1599 83.7606 68.069C84.0257 67.9743 84.2549 67.8341 84.4481 67.6485C84.6413 67.4629 84.789 67.2338 84.8913 66.961L86.4992 67.2508C86.3704 67.7243 86.1394 68.1391 85.806 68.4951C85.4765 68.8474 85.0617 69.122 84.5617 69.319C84.0655 69.5122 83.4992 69.6088 82.8629 69.6088ZM88.9899 60.7053L90.916 64.1031L92.8592 60.7053H94.7172L91.9956 65.069L94.7399 69.4326H92.882L90.916 66.1713L88.9558 69.4326H87.0922L89.8081 65.069L87.1263 60.7053H88.9899ZM99.5522 69.4326V57.7963H106.768V59.3076H101.308V62.8531H106.251V64.3588H101.308V69.4326H99.5522ZM111.186 69.6088C110.368 69.6088 109.654 69.4213 109.044 69.0463C108.434 68.6713 107.961 68.1466 107.624 67.4724C107.287 66.7981 107.118 66.0103 107.118 65.1088C107.118 64.2035 107.287 63.4118 107.624 62.7338C107.961 62.0557 108.434 61.5292 109.044 61.1542C109.654 60.7792 110.368 60.5917 111.186 60.5917C112.005 60.5917 112.719 60.7792 113.328 61.1542C113.938 61.5292 114.412 62.0557 114.749 62.7338C115.086 63.4118 115.255 64.2035 115.255 65.1088C115.255 66.0103 115.086 66.7981 114.749 67.4724C114.412 68.1466 113.938 68.6713 113.328 69.0463C112.719 69.4213 112.005 69.6088 111.186 69.6088ZM111.192 68.1826C111.722 68.1826 112.162 68.0425 112.51 67.7622C112.859 67.4819 113.116 67.1088 113.283 66.6428C113.453 66.1769 113.539 65.6637 113.539 65.1031C113.539 64.5463 113.453 64.0349 113.283 63.569C113.116 63.0993 112.859 62.7224 112.51 62.4383C112.162 62.1542 111.722 62.0122 111.192 62.0122C110.658 62.0122 110.215 62.1542 109.863 62.4383C109.514 62.7224 109.255 63.0993 109.084 63.569C108.917 64.0349 108.834 64.5463 108.834 65.1031C108.834 65.6637 108.917 66.1769 109.084 66.6428C109.255 67.1088 109.514 67.4819 109.863 67.7622C110.215 68.0425 110.658 68.1826 111.192 68.1826ZM116.511 69.4326V60.7053H118.153V62.0917H118.244C118.403 61.622 118.683 61.2527 119.085 60.9838C119.49 60.711 119.948 60.5747 120.46 60.5747C120.566 60.5747 120.691 60.5785 120.835 60.586C120.982 60.5936 121.098 60.6031 121.181 60.6144V62.2394C121.113 62.2205 120.992 62.1997 120.818 62.1769C120.643 62.1504 120.469 62.1372 120.295 62.1372C119.893 62.1372 119.535 62.2224 119.221 62.3928C118.91 62.5595 118.664 62.7925 118.482 63.0917C118.301 63.3872 118.21 63.7243 118.21 64.1031V69.4326H116.511ZM126.601 60.7053V62.069H121.834V60.7053H126.601ZM123.112 58.6144H124.811V66.8701C124.811 67.1997 124.86 67.4478 124.959 67.6144C125.057 67.7773 125.184 67.8891 125.34 67.9497C125.499 68.0065 125.671 68.0349 125.857 68.0349C125.993 68.0349 126.112 68.0254 126.215 68.0065C126.317 67.9875 126.396 67.9724 126.453 67.961L126.76 69.3644C126.662 69.4023 126.521 69.4402 126.34 69.4781C126.158 69.5197 125.931 69.5425 125.658 69.5463C125.211 69.5538 124.794 69.4743 124.408 69.3076C124.021 69.141 123.709 68.8834 123.47 68.5349C123.232 68.1864 123.112 67.7489 123.112 67.2224V58.6144ZM131.508 69.6088C130.648 69.6088 129.907 69.425 129.286 69.0576C128.669 68.6864 128.192 68.1656 127.854 67.4951C127.521 66.8209 127.354 66.0311 127.354 65.1258C127.354 64.2319 127.521 63.444 127.854 62.7622C128.192 62.0803 128.661 61.5481 129.264 61.1656C129.87 60.783 130.578 60.5917 131.389 60.5917C131.881 60.5917 132.358 60.6731 132.82 60.836C133.282 60.9989 133.697 61.2546 134.065 61.6031C134.432 61.9516 134.722 62.4042 134.934 62.961C135.146 63.5141 135.252 64.1864 135.252 64.9781V65.5803H128.315V64.3076H133.587C133.587 63.8606 133.496 63.4648 133.315 63.1201C133.133 62.7716 132.877 62.497 132.548 62.2963C132.222 62.0955 131.839 61.9951 131.4 61.9951C130.923 61.9951 130.506 62.1125 130.15 62.3474C129.798 62.5785 129.525 62.8815 129.332 63.2565C129.142 63.6277 129.048 64.0311 129.048 64.4667V65.461C129.048 66.0444 129.15 66.5406 129.354 66.9497C129.563 67.3588 129.853 67.6713 130.224 67.8872C130.595 68.0993 131.029 68.2053 131.525 68.2053C131.847 68.2053 132.14 68.1599 132.406 68.069C132.671 67.9743 132.9 67.8341 133.093 67.6485C133.286 67.4629 133.434 67.2338 133.536 66.961L135.144 67.2508C135.015 67.7243 134.784 68.1391 134.451 68.4951C134.121 68.8474 133.707 69.122 133.207 69.319C132.711 69.5122 132.144 69.6088 131.508 69.6088ZM141.984 69.4326L139.415 60.7053H141.171L142.881 67.1144H142.967L144.682 60.7053H146.438L148.143 67.086H148.228L149.927 60.7053H151.682L149.12 69.4326H147.387L145.614 63.1315H145.484L143.711 69.4326H141.984ZM156.065 69.6088C155.247 69.6088 154.533 69.4213 153.923 69.0463C153.313 68.6713 152.84 68.1466 152.503 67.4724C152.166 66.7981 151.997 66.0103 151.997 65.1088C151.997 64.2035 152.166 63.4118 152.503 62.7338C152.84 62.0557 153.313 61.5292 153.923 61.1542C154.533 60.7792 155.247 60.5917 156.065 60.5917C156.883 60.5917 157.597 60.7792 158.207 61.1542C158.817 61.5292 159.291 62.0557 159.628 62.7338C159.965 63.4118 160.133 64.2035 160.133 65.1088C160.133 66.0103 159.965 66.7981 159.628 67.4724C159.291 68.1466 158.817 68.6713 158.207 69.0463C157.597 69.4213 156.883 69.6088 156.065 69.6088ZM156.071 68.1826C156.601 68.1826 157.041 68.0425 157.389 67.7622C157.737 67.4819 157.995 67.1088 158.162 66.6428C158.332 66.1769 158.417 65.6637 158.417 65.1031C158.417 64.5463 158.332 64.0349 158.162 63.569C157.995 63.0993 157.737 62.7224 157.389 62.4383C157.041 62.1542 156.601 62.0122 156.071 62.0122C155.537 62.0122 155.094 62.1542 154.741 62.4383C154.393 62.7224 154.133 63.0993 153.963 63.569C153.796 64.0349 153.713 64.5463 153.713 65.1031C153.713 65.6637 153.796 66.1769 153.963 66.6428C154.133 67.1088 154.393 67.4819 154.741 67.7622C155.094 68.0425 155.537 68.1826 156.071 68.1826ZM165.151 69.6088C164.291 69.6088 163.551 69.425 162.929 69.0576C162.312 68.6864 161.835 68.1656 161.498 67.4951C161.164 66.8209 160.998 66.0311 160.998 65.1258C160.998 64.2319 161.164 63.444 161.498 62.7622C161.835 62.0803 162.304 61.5481 162.907 61.1656C163.513 60.783 164.221 60.5917 165.032 60.5917C165.524 60.5917 166.001 60.6731 166.463 60.836C166.926 60.9989 167.34 61.2546 167.708 61.6031C168.075 61.9516 168.365 62.4042 168.577 62.961C168.789 63.5141 168.895 64.1864 168.895 64.9781V65.5803H161.958V64.3076H167.231C167.231 63.8606 167.14 63.4648 166.958 63.1201C166.776 62.7716 166.52 62.497 166.191 62.2963C165.865 62.0955 165.482 61.9951 165.043 61.9951C164.566 61.9951 164.149 62.1125 163.793 62.3474C163.441 62.5785 163.168 62.8815 162.975 63.2565C162.785 63.6277 162.691 64.0311 162.691 64.4667V65.461C162.691 66.0444 162.793 66.5406 162.998 66.9497C163.206 67.3588 163.496 67.6713 163.867 67.8872C164.238 68.0993 164.672 68.2053 165.168 68.2053C165.49 68.2053 165.784 68.1599 166.049 68.069C166.314 67.9743 166.543 67.8341 166.736 67.6485C166.929 67.4629 167.077 67.2338 167.179 66.961L168.787 67.2508C168.659 67.7243 168.427 68.1391 168.094 68.4951C167.765 68.8474 167.35 69.122 166.85 69.319C166.354 69.5122 165.787 69.6088 165.151 69.6088ZM171.703 66.4724L171.691 64.3985H171.987L175.464 60.7053H177.498L173.532 64.9099H173.265L171.703 66.4724ZM170.14 69.4326V57.7963H171.839V69.4326H170.14ZM175.652 69.4326L172.527 65.2849L173.697 64.0974L177.737 69.4326H175.652ZM184.946 62.836L183.406 63.1088C183.342 62.9118 183.24 62.7243 183.1 62.5463C182.963 62.3682 182.778 62.2224 182.543 62.1088C182.308 61.9951 182.014 61.9383 181.662 61.9383C181.181 61.9383 180.78 62.0463 180.458 62.2622C180.136 62.4743 179.975 62.7489 179.975 63.086C179.975 63.3777 180.083 63.6125 180.299 63.7906C180.514 63.9686 180.863 64.1144 181.344 64.2281L182.73 64.5463C183.533 64.7319 184.132 65.0178 184.526 65.4042C184.92 65.7906 185.117 66.2925 185.117 66.9099C185.117 67.4326 184.965 67.8985 184.662 68.3076C184.363 68.7129 183.944 69.0311 183.406 69.2622C182.872 69.4932 182.253 69.6088 181.549 69.6088C180.571 69.6088 179.774 69.4004 179.156 68.9838C178.539 68.5633 178.16 67.9667 178.02 67.194L179.662 66.944C179.764 67.372 179.975 67.6959 180.293 67.9156C180.611 68.1315 181.026 68.2394 181.537 68.2394C182.094 68.2394 182.539 68.1239 182.872 67.8928C183.206 67.658 183.372 67.372 183.372 67.0349C183.372 66.7622 183.27 66.533 183.066 66.3474C182.865 66.1618 182.556 66.0216 182.139 65.9269L180.662 65.6031C179.848 65.4175 179.246 65.122 178.855 64.7167C178.469 64.3114 178.276 63.7981 178.276 63.1769C178.276 62.6618 178.42 62.211 178.708 61.8247C178.996 61.4383 179.393 61.1372 179.901 60.9213C180.408 60.7016 180.99 60.5917 181.645 60.5917C182.588 60.5917 183.331 60.7963 183.872 61.2053C184.414 61.6106 184.772 62.1542 184.946 62.836Z" fill="black"/>
</svg>
